<svg width="40" height="40" viewBox="0 0 40 40" fill="none" xmlns="http://www.w3.org/2000/svg">
<path fill-rule="evenodd" clip-rule="evenodd" d="M19.9999 5.89711C12.2113 5.89711 5.89736 12.211 5.89736 19.9997C5.89736 27.7883 12.2113 34.1022 19.9999 34.1022C27.7886 34.1022 34.1025 27.7883 34.1025 19.9997C34.1025 12.211 27.7886 5.89711 19.9999 5.89711ZM3.33325 19.9997C3.33325 10.7949 10.7952 3.33301 19.9999 3.33301C29.2047 3.33301 36.6666 10.7949 36.6666 19.9997C36.6666 29.2044 29.2047 36.6663 19.9999 36.6663C10.7952 36.6663 3.33325 29.2044 3.33325 19.9997ZM20.7369 11.7293C19.5815 11.5479 18.4028 11.7608 17.3642 12.3385C16.2818 13.0035 15.4768 14.0941 15.1157 15.3845C15.0431 15.5533 15.0037 15.7367 15.0002 15.923C14.9966 16.1093 15.0289 16.2943 15.095 16.4663C15.1612 16.6382 15.2596 16.7934 15.3842 16.9218C15.5087 17.0502 15.6566 17.1491 15.8184 17.2121C15.9935 17.2847 16.1803 17.3186 16.3677 17.3118C16.555 17.305 16.7393 17.2576 16.9095 17.1725C17.0798 17.0873 17.2326 16.9661 17.3589 16.816C17.4853 16.6658 17.5826 16.4898 17.6452 16.2983C17.7285 15.9945 17.8724 15.7142 18.0667 15.4774C18.2609 15.2405 18.5009 15.0528 18.7695 14.9276C19.2786 14.6068 19.8782 14.4985 20.4558 14.623C21.009 14.7385 21.5067 15.0621 21.8611 15.5368C22.0536 15.7609 22.2026 16.0248 22.2992 16.3125C22.3957 16.6003 22.4379 16.9062 22.4232 17.2121C22.4232 17.8213 22.0016 18.4305 21.1585 19.0397C20.8938 19.2201 20.6166 19.378 20.3293 19.5118L20.0342 19.6488L19.4721 19.9534C19.1539 20.089 18.8958 20.3516 18.751 20.6873C18.6062 21.023 18.5857 21.4061 18.6939 21.7576C18.802 22.1091 19.0304 22.4023 19.3321 22.5767C19.6338 22.751 19.9857 22.7933 20.3153 22.6948C28.747 18.8874 23.8285 11.8816 20.7369 11.7293ZM19.1811 25.73C19.4446 25.4444 19.8021 25.2839 20.1748 25.2839C20.5475 25.2839 20.9049 25.4444 21.1684 25.73C21.432 26.0156 21.58 26.403 21.58 26.8069C21.58 27.2108 21.432 27.5982 21.1684 27.8838C20.9049 28.1694 20.5475 28.3299 20.1748 28.3299C19.987 28.3434 19.7988 28.3132 19.6226 28.2414C19.4465 28.1696 19.2865 28.0579 19.1535 27.9137C19.0204 27.7695 18.9173 27.5962 18.8511 27.4053C18.7849 27.2144 18.7571 27.0104 18.7695 26.8069C18.7695 26.403 18.9175 26.0156 19.1811 25.73Z" fill="url(#paint0_linear_8014_16971)"/>
<defs>
<linearGradient id="paint0_linear_8014_16971" x1="36.6666" y1="19.9997" x2="3.33325" y2="19.9997" gradientUnits="userSpaceOnUse">
<stop stop-color="#B34ABD"/>
<stop offset="1" stop-color="#873ED4"/>
</linearGradient>
</defs>
</svg>
