<svg width="25" height="25" viewBox="0 0 25 25" fill="none" xmlns="http://www.w3.org/2000/svg">
  <path d="M12.3887 4.61689C12.651 4.5053 12.9412 4.47251 13.2229 4.52325C13.5046 4.57395 13.7633 4.70558 13.9674 4.89948L20.8906 11.4731C21.0315 11.6069 21.1428 11.767 21.2186 11.9433C21.2944 12.1195 21.3333 12.3087 21.3333 12.4995C21.3333 12.6904 21.2944 12.8795 21.2186 13.0557C21.1428 13.232 21.0313 13.3923 20.8904 13.5261L13.9673 20.0997C13.7631 20.2935 13.5046 20.4251 13.2229 20.4758C12.9412 20.5265 12.651 20.4937 12.3887 20.3822C12.1266 20.2707 11.9054 20.086 11.751 19.8532C11.5966 19.6206 11.5152 19.3493 11.5151 19.0731V16.5166C9.63771 16.5964 8.45864 16.9573 7.56779 17.4837C6.52884 18.0976 5.79829 18.9778 4.78828 20.2022C4.57051 20.4662 4.20615 20.5672 3.87907 20.4543C3.55198 20.3414 3.33325 20.0391 3.33325 19.6999C3.33325 16.8531 3.74341 14.0668 5.09603 11.9728C6.38161 9.98252 8.45393 8.71434 11.5151 8.52475V5.92592C11.5152 5.64968 11.5966 5.37846 11.751 5.14581C11.9054 4.91303 12.1266 4.7284 12.3887 4.61689Z" fill="#CE28D9" />
</svg>