<svg width="44" height="44" viewBox="0 0 44 44" fill="none" xmlns="http://www.w3.org/2000/svg">
<path d="M36.4731 24.4011C36.1797 25.0978 35.3547 25.4278 34.6581 25.1344C33.9614 24.8411 33.6314 24.0344 33.9247 23.3378C34.1447 22.8061 34.6581 22.4944 35.1897 22.4944C35.3731 22.4944 35.5564 22.5128 35.7214 22.5861C36.0697 22.7328 36.3264 22.9894 36.4731 23.3378C36.6014 23.6861 36.6014 24.0528 36.4731 24.4011ZM32.5497 26.0144C32.4214 26.3444 32.1464 26.6194 31.8164 26.7478C31.4681 26.8944 31.1014 26.8944 30.7531 26.7478C30.4231 26.6194 30.1481 26.3444 30.0014 25.9961C29.8731 25.6661 29.8731 25.2811 30.0014 24.9511C30.2214 24.4194 30.7531 24.0894 31.2847 24.0894C31.4681 24.0894 31.6331 24.1261 31.8164 24.1994C32.1464 24.3461 32.4214 24.6028 32.5681 24.9511C32.6964 25.2994 32.6964 25.6661 32.5681 26.0144H32.5497ZM34.8597 20.4961C34.5664 21.1928 33.7597 21.5228 33.0447 21.2294C32.3481 20.9361 32.0181 20.1294 32.3114 19.4328C32.4397 19.0844 32.7147 18.8278 33.0447 18.6811C33.2281 18.6078 33.3931 18.5711 33.5764 18.5711C33.7597 18.5711 33.9431 18.6078 34.1081 18.6811C34.4564 18.8278 34.7131 19.0844 34.8597 19.4328C34.9881 19.7628 34.9881 20.1478 34.8597 20.4961ZM30.9547 22.0911C30.8081 22.4394 30.5331 22.7144 30.2031 22.8428C29.8547 22.9894 29.4881 22.9894 29.1397 22.8428C28.8097 22.6961 28.5347 22.4394 28.3881 22.0911C28.2597 21.7611 28.2597 21.3761 28.3881 21.0461C28.5347 20.6978 28.8097 20.4411 29.1397 20.2944C29.3231 20.2211 29.4881 20.1844 29.6714 20.1844C29.8547 20.1844 30.0381 20.2211 30.2031 20.2944C30.5331 20.4411 30.8081 20.6978 30.9547 21.0461C31.0831 21.3761 31.0831 21.7611 30.9547 22.0911ZM19.7531 15.9494L18.9647 17.8011L16.9114 16.9394L16.0497 19.0111L14.1797 18.2411L15.0414 16.1694L12.9697 15.3078L13.7581 13.4561L15.8114 14.3178L16.6731 12.2461L18.5431 13.0161L17.6814 15.0878L19.7531 15.9494Z"/>
<path fill-rule="evenodd" clip-rule="evenodd" d="M40.1032 20.4414C39.8466 18.4614 39.3699 16.6464 38.7282 15.198C38.0682 13.7314 37.2249 12.5764 36.0516 12.0814C34.1266 11.293 32.6782 11.3847 31.4499 11.4947C30.4416 11.568 29.5799 11.6414 28.3882 11.2747L26.9766 10.7247C25.7849 10.1197 25.2166 9.44138 24.5566 8.65304L24.5199 8.59804C23.7316 7.66304 22.7782 6.56304 20.8716 5.77471C19.6799 5.27971 18.2682 5.49971 16.7649 6.06804C15.2799 6.63638 13.6666 7.58971 12.0716 8.79971C8.89989 11.2197 5.83822 14.6847 4.31655 18.3147C3.69322 19.818 3.50989 21.303 3.80322 22.6047C4.09655 23.9064 4.90322 25.0247 6.16822 25.5564C9.50489 26.9497 12.6216 26.2714 15.2799 25.5197L15.5549 25.4464L15.8849 25.3547C18.2682 24.6947 20.2666 24.1264 21.8616 24.8047C23.4566 25.4647 24.4649 27.2614 25.6749 29.4247C25.7666 29.608 25.8766 29.7914 25.9682 29.9747C27.3249 32.3764 29.0482 35.0714 32.3849 36.4464C33.6499 36.978 35.0249 36.758 36.1432 36.043C37.2799 35.328 38.1966 34.1547 38.8199 32.6514C40.3232 29.0214 40.6166 24.4014 40.1032 20.4414ZM35.4099 34.9064C34.8966 35.218 34.4016 35.383 33.8882 35.383C33.5766 35.383 33.2466 35.3097 32.9166 35.1814C30.0016 33.9714 28.4799 31.6064 27.1782 29.3147C27.0866 29.1314 26.9949 28.9664 26.9032 28.8014L26.7382 28.4897C25.5832 26.3814 24.4832 24.4014 22.3932 23.5214C20.2849 22.6414 18.1216 23.283 15.8116 23.943L15.6832 23.9797C15.4266 24.053 15.1516 24.1264 14.8949 24.1997C12.3466 24.9147 9.61489 25.5014 6.69989 24.273C5.85655 23.943 5.36155 23.283 5.14155 22.3114C4.92155 21.3214 5.08655 20.093 5.59989 18.8464C6.84655 15.8214 9.66989 12.393 12.9332 9.89971C14.4549 8.72638 15.9582 7.84638 17.2599 7.35138C18.5066 6.87471 19.6616 6.76471 20.3399 7.03971C21.9899 7.73638 22.6499 8.52471 23.4199 9.44138L23.4566 9.47804C24.2082 10.358 25.1616 11.4764 27.0682 12.2647C27.0866 12.2647 27.1049 12.2647 27.1416 12.3014L27.2516 12.3564C29.0849 13.053 30.4782 12.943 31.5966 12.8514H31.6516C32.8432 12.7597 33.8699 12.668 35.5199 13.3647C36.1799 13.6397 36.9132 14.538 37.4632 15.748C38.0316 17.013 38.4716 18.6997 38.7282 20.6247C39.2599 24.6764 38.8016 29.0947 37.5366 32.1197C37.0232 33.3664 36.2716 34.3564 35.4099 34.9064Z"/>
</svg>
