<svg width="44" height="44" viewBox="0 0 44 44" fill="none" xmlns="http://www.w3.org/2000/svg">
<path d="M12.8515 33.623C12.8515 33.8063 12.7965 33.9713 12.6499 34.118L9.71655 37.143C9.60655 37.2713 9.44155 37.3263 9.27655 37.3446C9.07488 37.3446 8.87322 37.308 8.72655 37.1796C8.57988 37.0513 8.52488 36.868 8.50655 36.6846C8.50655 36.5013 8.57988 36.3363 8.70822 36.1896L11.6599 33.1646C11.9165 32.908 12.3749 32.8896 12.6499 33.1646C12.7782 33.2746 12.8515 33.458 12.8515 33.6413V33.623ZM11.1649 31.7163C11.1649 31.8996 11.0915 32.0646 10.9815 32.2113L6.21488 37.1063C6.10488 37.2346 5.93988 37.308 5.75655 37.3263C5.57322 37.3446 5.38988 37.2713 5.22488 37.143C5.09655 37.033 5.02322 36.8496 5.00488 36.6663C5.00488 36.483 5.07822 36.318 5.18822 36.1713L9.95488 31.2763C10.2115 31.0013 10.6515 30.983 10.9449 31.2396C11.0732 31.3496 11.1465 31.533 11.1649 31.7163ZM9.53322 30.1396C9.53322 30.323 9.45988 30.5063 9.33155 30.6346L6.50822 33.3846C6.37988 33.513 6.19655 33.568 6.01322 33.568C5.82988 33.568 5.66488 33.513 5.51822 33.3846C5.38988 33.238 5.31655 33.073 5.31655 32.8896C5.31655 32.7063 5.38988 32.523 5.51822 32.3946L8.34155 29.6446C8.61655 29.388 9.05655 29.388 9.33155 29.6446C9.45988 29.773 9.53322 29.9563 9.53322 30.1396Z"/>
<path d="M16.6833 30.378L12.0633 26.033C11.7883 25.7764 11.4033 25.6664 11.0367 25.7764C10.67 25.868 10.395 26.1247 10.285 26.473L9.77168 28.068C9.64335 28.453 9.77168 28.8564 10.0467 29.1314L13.64 32.6514C13.8417 32.853 14.1167 32.963 14.41 32.963C14.575 32.963 14.7217 32.9264 14.8867 32.853L16.4083 32.083C16.7383 31.9364 16.94 31.643 16.995 31.2947C17.05 30.9464 16.94 30.6164 16.6833 30.378ZM15.3817 31.0564L14.465 31.5147L11.1833 28.288L11.4767 27.3714L15.3633 31.0564H15.3817Z"/>
<path d="M40.0034 3.97817C39.7834 3.75817 39.4717 3.6665 39.1784 3.6665C35.9517 3.90484 32.9451 4.5465 30.1951 5.57317C29.2784 5.93984 28.3801 6.34317 27.5001 6.78317C24.0167 8.54317 20.9551 11.0548 18.1317 14.4282C14.6667 14.2265 12.0267 14.7398 9.80839 16.0415C7.59005 17.3615 5.73839 19.5432 3.77672 23.0265C3.46505 23.5765 3.72172 24.1082 4.07005 24.3648C4.41839 24.6215 4.98672 24.7315 5.44505 24.3648C7.40672 22.8982 8.80005 22.5682 9.64339 22.5682H9.73505C10.7617 22.5682 11.4951 23.0815 11.9717 24.0165C12.0084 24.0715 12.0634 24.1448 12.1184 24.1815L18.4801 30.3965C18.4801 30.3965 18.6817 30.5432 18.8101 30.5798C19.3051 30.7082 19.6901 30.9282 19.9467 31.2582C20.2217 31.5698 20.3684 32.0098 20.3867 32.5048C20.4601 33.7332 19.8367 35.2365 18.6451 36.7765C18.2784 37.2532 18.4067 37.8032 18.6817 38.1332C18.8834 38.3715 19.2134 38.5732 19.5617 38.5732C19.7267 38.5732 19.9101 38.5365 20.0751 38.4448C24.1084 36.2632 26.7117 34.0815 28.0867 31.7898C29.3151 29.7182 29.5717 27.4632 28.9117 24.8965C32.6334 22.1832 35.3651 19.2315 37.2717 15.8582C37.7301 15.0515 38.1334 14.2082 38.4817 13.3465C39.5817 10.7248 40.1867 7.82817 40.3334 4.72984C40.3334 4.4365 40.2417 4.14317 40.0217 3.9415V3.97817H40.0034ZM9.82672 21.2115H9.68005C8.45172 21.2115 7.11339 21.6698 5.68339 22.5682C7.24172 19.9648 8.81839 18.2598 10.5601 17.2148C12.2284 16.2065 14.2084 15.7482 16.7017 15.7482H17.0867C15.3267 18.0215 13.8417 20.3865 12.6134 22.4398C11.8984 21.6698 10.9451 21.2298 9.84505 21.1932L9.82672 21.2115ZM26.8767 31.1298C25.7584 33.0182 23.6501 34.8515 20.4417 36.7032C21.4134 35.1998 21.8717 33.7332 21.7984 32.4682C21.7617 31.6615 21.5051 31.0015 21.0467 30.4515C20.9001 30.2498 20.7167 30.0848 20.5151 29.9382C22.6051 28.8015 25.1717 27.4448 27.6467 25.7948C28.0867 27.8115 27.8301 29.5165 26.8584 31.1482L26.8767 31.1298ZM27.6834 24.0898C24.9517 26.0148 22.1101 27.5365 19.6167 28.8565C19.4517 28.9482 19.2867 29.0215 19.1217 29.1132L13.4934 23.6132C14.9601 21.1198 16.7384 18.2598 18.9751 15.5648C21.6151 12.3382 24.4751 9.9365 27.6834 8.21317L35.7501 15.6748C33.9167 18.8098 31.2767 21.5598 27.6651 24.0898H27.6834ZM36.4467 14.4465L29.0217 7.5715C29.4434 7.38817 29.8651 7.20484 30.2684 7.0215L36.9601 13.2915C36.7951 13.6765 36.6117 14.0615 36.4284 14.4465H36.4467ZM37.5284 11.9165L31.7351 6.48984C33.9534 5.73817 36.355 5.2615 38.885 5.07817C38.7384 7.49817 38.2801 9.80817 37.5284 11.9165Z"/>
<path d="M27.2801 13.3467C25.7584 13.3467 24.5117 14.5567 24.5117 16.0417C24.5117 17.5267 25.7584 18.7367 27.2801 18.7367C28.8017 18.7367 30.0484 17.5267 30.0484 16.0417C30.0484 14.5567 28.8017 13.3467 27.2801 13.3467ZM27.2801 17.3617C26.5101 17.3617 25.9234 16.7567 25.9234 16.0417C25.9234 15.3267 26.5284 14.7217 27.2801 14.7217C28.0317 14.7217 28.6367 15.3267 28.6367 16.0417C28.6367 16.7567 28.0134 17.3617 27.2801 17.3617Z"/>
</svg>
