<svg width="44" height="44" viewBox="0 0 44 44" fill="none" xmlns="http://www.w3.org/2000/svg">
<path d="M18.3681 26.7083V38.5883L6.56142 32.2999L6.12142 23.3899C4.83809 19.4299 2.65642 10.5566 4.19642 8.88827C6.12142 6.79827 8.92642 8.00827 9.45809 8.19161C10.0081 8.37494 12.4281 9.58494 13.8214 10.2816L6.12142 19.7233L27.4248 15.1766L31.7881 8.88827C32.0264 8.64994 31.9714 8.00827 31.7881 7.49494L31.0548 6.79827L14.5364 9.41994L8.72476 6.44994L25.9764 3.80994C26.7098 3.51661 29.4231 3.66327 30.3398 4.34161C31.0731 4.87327 33.0714 6.43161 33.4198 6.96327C33.7131 7.40327 33.6031 8.35661 32.6864 9.76827C31.9531 10.8866 29.9548 14.1866 29.0564 15.7083L39.5798 19.0266L38.3148 19.7233L27.4248 16.7533L6.94642 21.5383L18.3681 26.7083ZM40.3131 30.0266V19.8883L33.4198 22.5099V28.7983L27.4248 31.0716V24.2516L20.5314 26.6899V38.5699L40.3314 30.0083H40.3131V30.0266ZM29.0564 28.8166L32.1364 27.7716V22.8766L29.0564 23.7566V25.1499L29.9731 24.9666V24.6183L31.6048 24.0866V26.8916L29.9731 27.4233V26.3783L29.0564 26.7266V28.8166Z"/>
</svg>
