<svg width="44" height="44" viewBox="0 0 44 44" fill="none" xmlns="http://www.w3.org/2000/svg">
<path d="M40.0217 21.5598V21.5048C39.9667 19.3965 39.5267 17.2882 38.7384 15.2715V15.2348C38.7384 15.1248 38.7201 15.0332 38.6834 14.9415C38.6467 14.8498 38.5917 14.7582 38.5184 14.6848V14.6482C37.6384 12.6865 36.4101 10.8715 34.8701 9.25817V9.2215C34.7784 9.07484 34.6684 8.96484 34.5217 8.8915H34.5034C32.8901 7.31484 31.0384 6.06817 28.9851 5.18817H28.9667C28.8751 5.0965 28.7651 5.0415 28.6551 5.00484H28.5817C26.4734 4.1615 24.2734 3.7215 22.0367 3.70317H21.9817C21.9817 3.70317 21.9267 3.6665 21.9084 3.6665C21.8534 3.6665 21.7617 3.6665 21.7067 3.68484H21.6701C19.4334 3.7215 17.2151 4.1615 15.1067 5.00484C14.9967 5.02317 14.9051 5.05984 14.8317 5.0965C14.8134 5.11484 14.7951 5.11484 14.7767 5.13317C14.7584 5.1515 14.7217 5.1515 14.7034 5.16984C12.6317 6.06817 10.7801 7.31484 9.18508 8.87317H9.14841C9.03841 8.9465 8.96508 9.01984 8.89175 9.12984L8.85508 9.2215C7.27841 10.8348 6.05008 12.6682 5.17008 14.6482V14.6848C5.17008 14.6848 5.04175 14.8315 5.00508 14.9232C4.96841 15.0148 4.95008 15.1065 4.96841 15.1982V15.2348H4.95008C4.12508 17.3615 3.68508 19.5248 3.66675 21.7065V22.0548C3.68508 24.3282 4.14341 26.5648 5.00508 28.7098C5.02341 28.8015 5.04175 28.8565 5.07841 28.9298C5.07841 28.9298 5.08453 28.9482 5.09675 28.9848C5.09675 28.9848 5.09675 29.0215 5.13341 29.0398H5.15175C6.01341 31.0748 7.22341 32.8898 8.72675 34.4848L8.76341 34.5215C8.76341 34.6315 8.83675 34.7415 8.92841 34.8148C9.00175 34.9065 9.09341 34.9615 9.20341 34.9982H9.25841C10.8717 36.5748 12.7234 37.8032 14.7767 38.6832C14.8317 38.7198 14.8867 38.7382 14.9234 38.7565C17.0501 39.6365 19.3234 40.0948 21.6517 40.1132H22.0001C24.2734 40.0948 26.4917 39.6548 28.6367 38.7748C28.6917 38.7748 28.7284 38.7748 28.7651 38.7382H28.7834L28.8201 38.7198C28.8201 38.7198 28.8751 38.7015 28.8934 38.7015C28.8934 38.6832 28.9117 38.6648 28.9484 38.6465H28.9667C30.9834 37.7665 32.8167 36.5565 34.3934 35.0532L34.4851 34.9982H34.5034C34.5034 34.9982 34.6867 34.9065 34.7601 34.8332C34.8151 34.7598 34.8701 34.6682 34.9067 34.5765L34.9434 34.5215C36.4834 32.9082 37.7117 31.0382 38.5917 28.9848C38.6467 28.8932 38.6651 28.8382 38.6834 28.7465C39.5267 26.6565 39.9851 24.4748 40.0217 22.2565V22.2015C40.0217 22.2015 40.1134 21.9998 40.1134 21.8898C40.1134 21.7615 40.0951 21.6515 40.0401 21.5598H40.0217ZM34.2467 10.5782C35.3467 11.7882 36.2817 13.1815 36.9967 14.7398L37.0517 14.8498L34.6501 15.8215L34.5951 15.7298C34.0451 14.5748 33.2934 13.4565 32.3767 12.4482L32.3034 12.3748L34.1734 10.5048L34.2467 10.5782ZM27.9401 8.96484L28.8751 6.65484L28.9851 6.6915C30.5251 7.42484 31.9367 8.35984 33.1284 9.45984L33.2201 9.53317L31.3501 11.4032L31.2767 11.3298C30.2501 10.4315 29.1501 9.67984 27.9951 9.1115L27.9034 9.07484L27.9401 8.96484ZM22.5134 5.0965H22.6967C24.3101 5.16984 25.9234 5.49984 27.5001 6.06817L27.6101 6.10484L27.5734 6.21484L26.6384 8.52484L26.5284 8.48817C25.3184 8.0665 23.9984 7.80984 22.6234 7.7365H22.5134V5.0965ZM16.1517 6.06817C17.7467 5.49984 19.3784 5.16984 21.0284 5.0965H21.1384V7.71817H21.0284C19.6534 7.80984 18.3334 8.0665 17.1234 8.48817L17.0134 8.52484L16.9767 8.43317L16.0417 6.10484L16.1517 6.06817ZM10.5234 9.45984C11.7334 8.35984 13.1267 7.42484 14.6667 6.6915L14.7767 6.65484L15.7484 9.07484L15.6567 9.1115C14.5017 9.67984 13.4017 10.4315 12.3934 11.3298L12.3017 11.4032L10.4317 9.53317L10.5234 9.45984ZM6.65508 14.7398C7.38841 13.1815 8.30508 11.7882 9.40508 10.5782L9.47841 10.5048L11.3484 12.3748L11.2751 12.4482C10.3584 13.4565 9.62508 14.5748 9.05675 15.7298L9.02008 15.8215L8.91008 15.7848L6.60008 14.8498L6.65508 14.7398ZM5.04175 21.1015C5.13341 19.4515 5.44508 17.8198 6.03175 16.2248L6.06841 16.1148L8.47008 17.0865L8.43341 17.1965C8.01175 18.4065 7.75508 19.7265 7.68175 21.1198V21.2115H5.04175V21.1015ZM6.03175 27.5915C5.44508 25.9965 5.13341 24.3465 5.04175 22.7148V22.5865H7.66341V22.6965C7.75508 24.0715 8.01175 25.3915 8.43341 26.6198L8.47008 26.7298L8.37841 26.7665L6.06841 27.7015L6.03175 27.5915ZM9.40508 33.2382C8.30508 32.0282 7.38841 30.6348 6.65508 29.0765L6.60008 28.9665L9.02008 27.9948L9.05675 28.0865C9.62508 29.2415 10.3584 30.3415 11.2751 31.3682L11.3484 31.4415L9.47841 33.3115L9.40508 33.2382ZM15.7117 34.8332L14.7767 37.1615L14.6667 37.1065C13.1267 36.3732 11.7334 35.4565 10.5234 34.3565L10.4317 34.2832L12.3017 32.4132L12.3934 32.4865C13.4017 33.3848 14.5017 34.1365 15.6567 34.7048L15.7484 34.7415L15.7117 34.8332ZM21.1384 38.7198H21.0284C19.3784 38.6465 17.7467 38.3165 16.1517 37.7482L16.0417 37.7115L17.0134 35.2915L17.1234 35.3282C18.3334 35.7498 19.6534 36.0065 21.0284 36.0798H21.1384V38.7198ZM21.9451 34.7598H21.8901C21.8351 34.7598 21.7617 34.7598 21.7067 34.7598H21.6701C20.1117 34.7598 18.5717 34.4298 17.0867 33.8248C16.9767 33.7698 16.9034 33.7332 16.8117 33.7148C15.3267 33.0732 14.0067 32.2115 12.9067 31.1298L12.8701 31.0932V31.0565H12.8517C12.8517 31.0565 12.7417 30.9282 12.6867 30.8915C11.5867 29.7548 10.7251 28.4898 10.1201 27.0965V27.0598C10.1017 26.9132 10.0467 26.7482 9.93675 26.6382V26.6015C9.36841 25.2082 9.07508 23.7232 9.03841 22.1832V22.1465C9.11175 21.9815 9.11175 21.7982 9.05675 21.6148V21.5782C9.07508 19.9832 9.38675 18.4615 9.93675 17.0865C9.99175 17.0132 10.0101 16.9398 10.0467 16.8665C10.6334 15.4732 11.4767 14.2082 12.5584 13.0715L12.5951 13.0348C12.5951 13.0348 12.7601 12.9615 12.8334 12.8882C12.9067 12.8148 12.9617 12.7232 12.9984 12.6315L13.0351 12.5948C14.1901 11.4948 15.4734 10.6332 16.8301 10.0648H16.8851C18.4251 9.3865 20.1117 9.0565 21.8534 9.0565H22.0001C23.6134 9.07484 25.1901 9.3865 26.6567 9.9915C26.6751 9.9915 26.6934 9.9915 26.7117 9.9915C28.1601 10.5782 29.4801 11.4582 30.6717 12.5765V12.6132C30.6717 12.6132 30.7817 12.7965 30.8551 12.8698C30.9284 12.9432 31.0017 12.9982 31.0934 13.0165L31.1484 13.0532C32.2301 14.2082 33.0917 15.4915 33.6784 16.8848C33.6784 16.9398 33.6967 16.9765 33.7151 17.0132C34.3384 18.5165 34.6501 20.0932 34.6684 21.7065C34.6684 21.8348 34.6684 21.9265 34.6684 22.0182C34.6684 23.5215 34.3751 24.9882 33.8434 26.3998V26.4365H33.8067C33.6967 26.5282 33.6051 26.6382 33.5501 26.7665C33.4951 26.8948 33.4767 27.0415 33.5134 27.1698V27.2432C32.8717 28.5998 32.0467 29.8098 31.0384 30.8548C31.0017 30.8732 30.9834 30.8915 30.9651 30.9098L30.8734 31.0015C30.8734 31.0198 30.8551 31.0382 30.8367 31.0565H30.8184C29.7001 32.1748 28.3801 33.0548 26.9134 33.6965C26.7851 33.6965 26.7117 33.7515 26.6201 33.8065C25.1167 34.4115 23.5584 34.7232 22.0001 34.7415H21.9634L21.9451 34.7598ZM27.5001 37.7482C25.9051 38.3165 24.2734 38.6465 22.6234 38.7198H22.5134V36.0982H22.6234C23.9984 36.0065 25.3184 35.7498 26.5284 35.3282L26.6384 35.2915L27.6101 37.7115L27.5001 37.7482ZM33.1284 34.3565C31.9367 35.4565 30.5251 36.3732 28.9851 37.1065L28.8751 37.1615L27.9034 34.7415L27.9951 34.7048C29.1501 34.1365 30.2501 33.3848 31.2767 32.4865L31.3501 32.4132L33.2201 34.2832L33.1284 34.3565ZM36.9967 29.0765C36.2817 30.6348 35.3467 32.0282 34.2467 33.2382L34.1734 33.3115L32.3034 31.4415L32.3767 31.3682C33.2934 30.3415 34.0451 29.2415 34.5951 28.0865L34.6501 27.9948L34.7417 28.0315L37.0517 28.9665L36.9967 29.0765ZM38.6101 22.7148C38.5367 24.3465 38.2067 25.9965 37.6384 27.5915L37.6017 27.7015L35.1817 26.7298L35.2184 26.6198C35.6401 25.3915 35.8967 24.0715 35.9701 22.6965V22.5865H38.6101V22.7148ZM38.6101 21.2115H35.9884V21.1198C35.8967 19.7265 35.6401 18.4065 35.2184 17.1965L35.1817 17.0865L35.2734 17.0498L37.6017 16.1148L37.6384 16.2248C38.2067 17.8198 38.5367 19.4515 38.6101 21.1015V21.2115Z"/>
<path d="M26.6384 25.2082C26.5101 25.2082 26.3818 25.2265 26.2718 25.2449H26.1984L26.1618 25.2265L23.8701 22.9532L23.9068 22.8798C24.0534 22.5498 24.1451 22.2199 24.1451 21.9082C24.1451 21.5965 24.0534 21.2665 23.9068 20.9365L23.8701 20.8632L23.9251 20.8082L26.1984 18.5532H26.2718C26.3818 18.5899 26.5101 18.6082 26.6384 18.6082C27.4451 18.6082 28.1234 17.9482 28.1234 17.1232C28.1234 16.2982 27.4451 15.6382 26.6384 15.6382C25.8318 15.6382 25.1534 16.3165 25.1534 17.1232C25.1534 17.2515 25.1718 17.3798 25.1901 17.4898V17.5632V17.5998L22.9168 19.8915H22.8618C22.2018 19.5432 21.5784 19.5432 20.9184 19.8732H20.8451L20.7901 19.8365L18.5351 17.5632V17.4898C18.5718 17.3798 18.5901 17.2515 18.5901 17.1232C18.5901 16.3165 17.9301 15.6382 17.1051 15.6382C16.2801 15.6382 15.6384 16.3165 15.6384 17.1232C15.6384 17.9299 16.2984 18.6082 17.1051 18.6082C17.2334 18.6082 17.3618 18.6082 17.4901 18.5715H17.5451L17.5818 18.5898L19.8734 20.8632L19.8368 20.9365C19.6901 21.2665 19.5984 21.5965 19.5984 21.9082C19.5984 22.2199 19.6901 22.5498 19.8368 22.8798L19.8734 22.9532L19.8184 23.0082L17.5451 25.2632H17.4901C17.3618 25.2265 17.2518 25.2082 17.1051 25.2082C16.2984 25.2082 15.6384 25.8682 15.6384 26.6932C15.6384 27.5182 16.2984 28.1599 17.1051 28.1599C17.9118 28.1599 18.5901 27.4999 18.5901 26.6932C18.5901 26.5648 18.5718 26.4365 18.5534 26.3082V26.2532L18.5718 26.2165L20.8451 23.9065L20.9184 23.9432C21.5784 24.2732 22.2018 24.2732 22.8618 23.9432L22.9168 23.9065L22.9718 23.9615L25.2268 26.2532V26.3082C25.1901 26.4365 25.1718 26.5648 25.1718 26.6932C25.1718 27.4999 25.8318 28.1599 26.6568 28.1599C27.4818 28.1599 28.1418 27.4999 28.1418 26.6932C28.1418 25.8865 27.4634 25.2082 26.6568 25.2082H26.6384ZM22.6234 22.4215H22.6051C22.6051 22.4215 22.4584 22.5682 22.4034 22.6415L22.3668 22.6782C22.2384 22.7699 22.0551 22.8065 21.8718 22.8065C21.6701 22.8065 21.5051 22.7699 21.3584 22.6782L21.3218 22.6415C21.3218 22.6415 21.2301 22.5315 21.1751 22.4949L21.1201 22.4215C21.0284 22.2748 20.9734 22.0915 20.9734 21.9082C20.9734 21.7615 21.0101 21.6332 21.0651 21.5048L21.0834 21.4682C21.2301 21.3949 21.3218 21.2849 21.3951 21.1382V21.1015L21.4501 21.0832C21.5601 21.0282 21.7068 20.9915 21.8718 20.9915C22.0184 20.9915 22.1284 20.9915 22.2201 21.0649L22.2934 21.1015V21.1382C22.3668 21.2482 22.4584 21.3582 22.5868 21.4132H22.6234L22.6784 21.4682C22.6784 21.4682 22.6784 21.4865 22.6968 21.4865V21.5232C22.7518 21.6332 22.7701 21.7799 22.7701 21.9082C22.7701 22.0915 22.7151 22.2748 22.6234 22.4215Z"/>
</svg>
