<svg width="44" height="44" viewBox="0 0 44 44" fill="none" xmlns="http://www.w3.org/2000/svg">
<path d="M25.3549 35.6034C25.3549 36.0067 24.9699 36.2817 24.4016 36.2817H18.4066C17.8383 36.2817 17.4533 36.0067 17.4533 35.6034C17.4533 35.2001 17.8383 34.9067 18.4066 34.9067H24.4016C24.9699 34.9067 25.3549 35.1817 25.3549 35.6034ZM15.5466 35.6034C15.5466 36.0067 15.1616 36.2817 14.5933 36.2817H12.5949C12.0266 36.2817 11.6416 36.0067 11.6416 35.6034C11.6416 35.2001 12.0266 34.9067 12.5949 34.9067H14.5933C14.9233 34.9067 15.1983 34.9984 15.3633 35.1634C15.4733 35.2917 15.5466 35.4384 15.5466 35.6034ZM29.1683 35.6034C29.1683 36.0067 28.7833 36.2817 28.2149 36.2817C27.6466 36.2817 27.2616 36.0067 27.2616 35.6034C27.2616 35.2001 27.6466 34.9067 28.2149 34.9067C28.7833 34.9067 29.1683 35.1817 29.1683 35.6034Z"/>
<path d="M21.8168 21.1748C20.5334 21.1748 19.5618 22.0915 19.5618 23.3015V26.9865C19.5618 27.3715 19.8368 27.6281 20.2584 27.6281H23.3751C23.7968 27.6281 24.0718 27.3715 24.0718 26.9865V23.3015C24.0718 22.0915 23.1001 21.1748 21.8168 21.1748ZM22.6968 26.3448H20.9551V23.3015C20.9551 22.7881 21.3034 22.4581 21.8168 22.4581C22.3301 22.4581 22.6968 22.7881 22.6968 23.3015V26.3448Z"/>
<path d="M33.3849 18.5532C33.7332 18.5532 34.1182 18.4432 34.1182 18.1315V15.6015H35.4932C35.7866 15.6015 36.0982 15.4548 36.2449 15.2532C36.2816 15.1065 36.2266 14.9598 36.0432 14.8315L22.4766 6.81984V4.08817C22.4766 3.7765 22.0916 3.6665 21.7616 3.6665C21.4316 3.6665 21.0282 3.7765 21.0282 4.08817V6.87484L20.8999 6.9665L7.55323 14.8498C7.3699 14.9598 7.29657 15.1248 7.3699 15.2898C7.40657 15.4365 7.6999 15.6015 8.01157 15.6015H9.38657V18.1315C9.38657 18.4432 9.77157 18.5532 10.1199 18.5532H11.4949V31.4782H10.1199C9.71657 31.4782 9.44157 31.6982 9.36823 31.9182L8.32323 39.2515C8.32323 39.2515 8.28657 39.4532 8.32323 39.5082C8.37823 39.6182 8.4699 39.6548 8.5799 39.6732C8.70823 39.7098 8.81823 39.7098 9.0749 39.7098H34.4482C34.7232 39.7098 34.8882 39.6548 34.9066 39.6182L34.9799 39.5448C35.0899 39.4715 35.1632 39.3432 35.1632 39.2148L34.1182 31.8632C34.0632 31.6982 33.7882 31.4782 33.3849 31.4782H32.0099V18.5532H33.3849ZM28.1049 29.6265H30.5432V31.4782H13.0899L12.9799 27.7382V22.2382H15.4182C15.7482 22.2382 16.1516 22.1098 16.1516 21.6882C16.1516 21.2665 15.7482 21.0282 15.4182 21.0282H12.9799V18.5532H30.5616V28.3798H28.1232C27.7932 28.3798 27.3899 28.7098 27.3899 29.0398C27.3899 29.3515 27.7932 29.6265 28.1232 29.6265H28.1049ZM11.1832 15.9132H32.3399V17.3798H11.1832V15.9132ZM21.7616 8.0115L32.5416 14.4282H10.8716L21.7616 8.0115ZM32.7249 32.7065L33.6599 38.3898H9.86323L10.7982 32.7065H32.7249Z"/>
</svg>
