<svg width="44" height="44" viewBox="0 0 44 44" fill="none" xmlns="http://www.w3.org/2000/svg">
<path d="M34.5615 9.49699C33.6999 8.41533 32.5265 7.22366 30.9682 6.21533C30.5465 5.92199 30.0882 5.64699 29.5932 5.40866C28.7132 4.95033 27.7232 4.56533 26.6232 4.27199C26.1832 4.14366 25.7249 4.03366 25.2482 3.96033C24.3865 3.79533 23.4699 3.68533 22.4799 3.66699C22.2599 3.66699 22.0399 3.66699 21.8015 3.66699C21.5632 3.66699 21.3249 3.66699 21.1049 3.66699C20.0599 3.70366 19.1065 3.81366 18.2082 3.99699C17.7315 4.08866 17.2732 4.21699 16.8332 4.34533C15.6599 4.69366 14.6149 5.13366 13.6982 5.66533C13.2032 5.94033 12.7449 6.23366 12.3232 6.54533C11.1315 7.42533 10.1782 8.37866 9.44485 9.27699C6.32819 13.0903 4.91652 18.6087 5.72319 23.7053C5.79652 32.542 13.0015 39.692 21.8015 39.692C30.6015 39.692 37.7882 32.542 37.8615 23.7603C38.8148 18.627 37.5865 13.3103 34.5615 9.49699ZM29.5932 7.05866V9.57033C28.6399 9.07533 27.6499 8.63533 26.6232 8.32366V5.77533C27.6865 6.08699 28.6765 6.52699 29.5932 7.05866ZM25.2482 5.42699V7.93866C24.3499 7.73699 23.4149 7.62699 22.4799 7.59033V5.11533C23.4332 5.11533 24.3682 5.24366 25.2482 5.42699ZM21.0499 5.11533H21.1049V7.59033C20.1332 7.62699 19.1615 7.77366 18.2265 7.97533V5.48199C19.1432 5.28033 20.0965 5.17033 21.0682 5.11533H21.0499ZM16.8332 5.84866V8.36033C15.7882 8.69033 14.7799 9.13033 13.8449 9.68033L13.6982 9.77199V7.33366C14.6699 6.71033 15.7149 6.21533 16.8332 5.84866ZM8.34485 13.732C8.93152 12.4303 9.64652 11.2387 10.4899 10.212C11.0399 9.53366 11.6632 8.91033 12.3232 8.36033V10.6703C11.0215 11.6053 9.86652 12.742 8.89485 14.0437L7.20819 16.317L8.34485 13.732ZM36.4865 23.687C36.4865 31.6987 29.8682 38.2437 21.8015 38.2437C13.7349 38.2437 7.09819 31.6803 7.09819 23.632C7.09819 18.5537 9.71985 14.062 13.6982 11.4403C14.6699 10.7987 15.7149 10.2853 16.8332 9.88199C17.2732 9.71699 17.7315 9.57033 18.2082 9.46033C19.1432 9.22199 20.1149 9.07533 21.1049 9.03866C21.3249 9.03866 21.5632 9.03866 21.8015 9.03866C22.0215 9.03866 22.2599 9.03866 22.4799 9.03866C23.4332 9.07533 24.3499 9.20366 25.2482 9.42366C25.7249 9.53366 26.1832 9.68033 26.6232 9.82699C32.3615 11.8253 36.4865 17.252 36.4865 23.632V23.687ZM35.2398 14.832C34.1032 13.0903 32.6549 11.6237 30.9682 10.4503V7.93866H31.0049C31.9399 8.67199 32.7832 9.49699 33.5165 10.4137C34.4699 11.642 35.2399 13.017 35.8082 14.5387L36.7615 17.1603L35.2398 14.832Z"/>
<path d="M25.2665 29.2784C25.2665 29.6634 24.9548 29.9934 24.5698 29.9934H19.4182C19.0515 29.9934 18.7398 29.6634 18.7398 29.2784C18.7398 28.8934 19.0515 28.5451 19.4182 28.5451H21.3798V18.6084L18.9415 20.4051C18.7948 20.5151 18.6298 20.5701 18.4465 20.5334C18.2632 20.4967 18.0982 20.4051 17.9882 20.2401C17.7682 19.9101 17.8415 19.4701 18.1532 19.2317L21.6732 16.6284C21.8932 16.4634 22.1682 16.4451 22.3882 16.5734C22.6265 16.6834 22.7548 16.9401 22.7548 17.2151V28.5451H24.5698C24.9548 28.5451 25.2665 28.8751 25.2665 29.2784ZM33.3515 23.6317C33.3515 29.9934 28.1632 35.1634 21.8015 35.1634C15.4398 35.1634 10.2332 29.9934 10.2332 23.6317C10.2332 20.4784 11.4982 17.5267 13.7715 15.3267C13.8998 15.1984 14.0282 15.1801 14.1382 15.1801C14.2848 15.1801 14.4132 15.2351 14.5232 15.3451C14.7248 15.5834 14.7065 15.9317 14.5232 16.1334C12.4698 18.1134 11.3332 20.7901 11.3332 23.6317C11.3332 29.3701 16.0448 34.0451 21.8198 34.0451C27.5948 34.0451 32.3065 29.3701 32.3065 23.6317C32.3065 20.6617 31.0415 17.8384 28.8048 15.8584C28.5848 15.6384 28.5665 15.3084 28.7498 15.0701C28.8415 14.9601 28.9882 14.8867 29.1348 14.8867C29.1898 14.8867 29.3732 14.8867 29.5015 15.0151C31.9582 17.2151 33.3698 20.3501 33.3698 23.6317H33.3515Z"/>
</svg>
