<svg width="44" height="44" viewBox="0 0 44 44" fill="none" xmlns="http://www.w3.org/2000/svg">
<path d="M38.8922 22.3275C38.8189 21.5575 38.3422 20.8425 37.6456 20.4942L28.4789 15.9108C28.2772 15.8192 28.0572 15.8375 27.8739 15.9475L26.3156 16.9742C26.1506 17.0658 26.0039 17.0292 25.9122 16.9742C25.8206 16.9008 25.7472 16.7542 25.8206 16.5892L26.9756 13.6375C27.0489 13.4358 27.0306 13.2158 26.9022 13.0508L20.4489 4.5625C19.9356 3.88417 19.0739 3.55417 18.2489 3.70083L8.05557 5.51583C7.83557 5.5525 7.67057 5.68083 7.59724 5.8825L3.82057 15.4342C3.52724 16.2042 3.65557 17.0658 4.18724 17.7075L10.9339 25.9025C11.0806 26.0675 11.3006 26.1408 11.5022 26.1225L17.6806 25.1692C17.6806 25.1692 17.8639 25.1692 17.9372 25.2425C18.0106 25.2975 18.0656 25.3892 18.0656 25.4808L18.6339 34.3175C18.6339 34.5375 18.7806 34.7392 18.9639 34.8308L28.4972 39.4692C28.8089 39.6158 29.1389 39.7075 29.4872 39.7075C29.9456 39.7075 30.4039 39.5608 30.7889 39.2858L39.4239 33.1992C39.6072 33.0708 39.6989 32.8692 39.6806 32.6492L38.8922 22.3275ZM9.79724 6.7625C9.83391 6.6525 9.92557 6.57917 10.0539 6.56083L18.4872 5.0575C18.8172 5.0025 19.1472 5.13083 19.3489 5.40583L24.7206 12.4458C24.7206 12.4458 24.8122 12.6658 24.7572 12.7758C24.7206 12.8858 24.6106 12.9592 24.5006 12.9775L15.8472 14.2242C15.8472 14.2242 15.6272 14.1875 15.5539 14.0958L9.85224 7.0925C9.85224 7.0925 9.74224 6.8725 9.79724 6.7625ZM11.4289 23.5375C11.3739 23.6475 11.2822 23.7208 11.1722 23.7392C11.0256 23.7758 10.9339 23.7208 10.8422 23.6292L5.25057 16.8275C5.03057 16.5892 4.97557 16.2408 5.10391 15.9475L8.22057 8.06417C8.25724 7.95417 8.34891 7.8625 8.47724 7.84417C8.60557 7.84417 8.71557 7.88083 8.78891 7.9725L14.4722 14.9575C14.4722 14.9575 14.5639 15.1775 14.5272 15.2875L11.4289 23.5375ZM13.0606 24.4908C12.9322 24.4908 12.8406 24.4542 12.7489 24.3625C12.6756 24.2708 12.6572 24.1425 12.6939 24.0325L15.8106 15.7825C15.8472 15.6725 15.9572 15.5992 16.0672 15.5808L24.6839 14.3342H24.7206C24.8306 14.3342 24.9222 14.3892 24.9772 14.4625C25.0689 14.5542 25.0872 14.6825 25.0322 14.7925L21.9156 22.6942C21.8056 22.9875 21.5489 23.1892 21.2372 23.2442L13.0606 24.4908ZM20.0822 32.7042C19.9722 32.6492 19.8989 32.5392 19.8989 32.4292L19.4406 25.2058C19.4406 25.0408 19.5506 24.8942 19.7156 24.8575L21.4389 24.6008C22.2272 24.4725 22.9056 23.9408 23.1989 23.1892L24.5189 19.8525C24.5189 19.8525 24.5922 19.7425 24.6472 19.7058L27.1039 18.0925C27.1039 18.0925 27.2322 18.0375 27.2872 18.0375C27.3422 18.0375 27.3972 18.0375 27.4339 18.0742C27.5439 18.1292 27.6172 18.2392 27.6172 18.3492L28.1122 27.4058C28.1122 27.5158 28.0756 27.6258 27.9656 27.6992L20.4122 32.6858C20.3022 32.7592 20.1922 32.7592 20.0822 32.7042ZM37.1506 33.1075L30.0006 38.1675C29.7256 38.3508 29.3772 38.3692 29.1022 38.2408L21.2189 34.3908C21.1089 34.3358 21.0539 34.2442 21.0356 34.1158C21.0356 34.0058 21.0906 33.8775 21.1822 33.8225L28.7356 28.8358C28.7356 28.8358 28.8639 28.7808 28.9372 28.7808C28.9739 28.7808 29.0289 28.7808 29.0656 28.8175L37.1139 32.5392C37.1139 32.5392 37.2789 32.6858 37.2972 32.8142C37.2972 32.9242 37.2606 33.0525 37.1506 33.1075ZM38.0306 31.2742C38.0306 31.2742 37.8106 31.3475 37.7006 31.2925L29.6889 27.5708C29.5789 27.5342 29.5056 27.4242 29.4872 27.2958L28.9922 18.2758C28.9922 18.1475 29.0472 18.0375 29.1389 17.9825C29.1939 17.9458 29.2672 17.9275 29.3222 17.9275C29.3772 17.9275 29.4322 17.9275 29.4872 17.9458L37.0222 21.7225C37.2972 21.8508 37.4989 22.1442 37.5172 22.4375L38.1772 30.9625C38.1772 31.0908 38.1222 31.2008 38.0306 31.2742Z"/>
<path d="M7.57885 16.461C7.65218 17.066 7.41385 17.616 7.06552 17.6527C6.91885 17.671 6.73552 17.5977 6.58885 17.4143C6.44218 17.2127 6.33218 16.9193 6.29552 16.6077C6.22218 16.0027 6.46052 15.4527 6.80885 15.416H6.84552C6.99218 15.416 7.15718 15.5077 7.28552 15.6727C7.43218 15.8743 7.54218 16.1493 7.57885 16.461ZM10.5855 20.0727C10.6405 20.696 10.4022 21.2277 10.0538 21.2827H10.0172C9.68718 21.2827 9.35718 20.806 9.28385 20.2193C9.24718 19.8343 9.32052 19.431 9.50385 19.211C9.55885 19.1377 9.66885 19.046 9.79718 19.0277H9.83385C9.98052 19.0277 10.1455 19.1194 10.2738 19.2844C10.4388 19.486 10.5489 19.761 10.5855 20.0727ZM12.6205 14.8843C12.6939 15.5077 12.4555 16.0577 12.1072 16.0943C11.7772 16.1494 11.4105 15.6543 11.3372 15.0493C11.2638 14.426 11.5022 13.876 11.8505 13.8393H11.8872C12.0339 13.8393 12.1805 13.931 12.3272 14.096C12.4738 14.2977 12.5839 14.5727 12.6205 14.8843ZM9.46718 11.2727C9.52218 11.676 9.43052 12.061 9.24718 12.2993C9.19218 12.3727 9.10052 12.4643 8.95385 12.4827C8.78885 12.4827 8.62385 12.4093 8.49552 12.226C8.33052 12.0243 8.22052 11.731 8.18385 11.4193C8.12885 11.0343 8.22052 10.6493 8.40385 10.411C8.45885 10.3377 8.56885 10.246 8.69718 10.2277H8.73385C9.08218 10.2277 9.41218 10.686 9.46718 11.2727ZM14.2155 8.30268C14.0872 8.63268 13.4639 8.72435 12.8405 8.50435C12.2172 8.28435 11.7955 7.80768 11.9239 7.47768C11.9972 7.27602 12.2722 7.16602 12.6205 7.16602C12.8222 7.16602 13.0605 7.20268 13.2805 7.27602C13.7022 7.44102 14.0505 7.69768 14.1789 7.97268C14.2339 8.10102 14.2339 8.21102 14.2155 8.30268ZM18.6155 10.026C18.5788 10.136 18.5055 10.2093 18.3772 10.2643C18.1022 10.3927 17.6805 10.3927 17.2589 10.2277C16.8372 10.081 16.4889 9.82435 16.3605 9.54935C16.3055 9.42102 16.2872 9.31102 16.3239 9.21935C16.4522 8.88935 17.0755 8.79768 17.6805 9.01768C18.1022 9.16435 18.4505 9.42102 18.5789 9.69602C18.6339 9.82435 18.6522 9.93435 18.6155 10.026ZM22.7039 11.9143C22.5939 12.2443 21.9705 12.336 21.3472 12.116C20.7239 11.896 20.3022 11.4377 20.4122 11.1077C20.4855 10.8877 20.7789 10.7777 21.1272 10.7777C21.3289 10.7777 21.5489 10.8143 21.7872 10.906C22.2089 11.0527 22.5389 11.3093 22.6855 11.5843C22.7405 11.7127 22.7405 11.8227 22.6855 11.9143H22.7039ZM20.1372 19.0093C20.1372 19.3027 19.9539 19.651 19.6605 19.926C19.2205 20.3477 18.6338 20.4943 18.3955 20.2377C18.1572 19.981 18.3222 19.4127 18.7622 18.991C19.0555 18.716 19.4038 18.551 19.6972 18.551C19.8255 18.551 19.9538 18.5877 20.0272 18.6793C20.1189 18.771 20.1372 18.9177 20.1372 19.0093ZM22.2089 29.716C21.9155 30.431 21.4022 30.7793 21.1272 30.6693C21.0355 30.6327 20.9622 30.5594 20.9072 30.431C20.7788 30.1377 20.8155 29.6793 20.9989 29.221C21.2372 28.6527 21.6405 28.2493 21.9705 28.2493C22.0072 28.2493 22.0439 28.2493 22.0805 28.2677C22.4105 28.396 22.4655 29.056 22.2089 29.716ZM26.5172 21.6494C26.3339 22.0894 26.0405 22.456 25.7289 22.5843C25.6189 22.621 25.5089 22.6393 25.4172 22.6027C25.3439 22.566 25.2705 22.4927 25.2155 22.3643C25.0872 22.071 25.1239 21.6127 25.3072 21.1543C25.5455 20.586 25.9489 20.1643 26.2789 20.1643C26.3155 20.1643 26.3522 20.1827 26.3889 20.201C26.7189 20.3294 26.7739 20.9894 26.5172 21.6494ZM34.6022 24.766C34.6389 25.0044 34.6022 25.1877 34.4739 25.2794C34.2172 25.5177 33.6488 25.316 33.2455 24.8577C32.8422 24.381 32.7322 23.8127 32.9889 23.5743C33.0622 23.501 33.1722 23.4827 33.2822 23.4827C33.5572 23.4827 33.9422 23.666 34.2172 23.996C34.4372 24.2344 34.5655 24.5093 34.6022 24.766ZM34.7305 33.6027C34.7305 33.731 34.6389 33.841 34.5655 33.9144C34.3639 34.116 33.9972 34.226 33.6122 34.226H33.5755C32.9705 34.226 32.4572 33.9143 32.4572 33.566C32.4572 33.4193 32.5489 33.3093 32.6039 33.2543C32.8055 33.0527 33.1722 32.9244 33.5755 32.9244H33.5939C34.2172 32.9427 34.7305 33.2543 34.7305 33.6027ZM30.7889 36.426C30.7889 36.7744 30.2755 37.0493 29.6705 37.0493H29.6339C29.0289 37.0493 28.5155 36.7377 28.5155 36.3894C28.5155 36.261 28.6072 36.151 28.6805 36.0777C28.8822 35.876 29.2489 35.766 29.6339 35.766H29.6705C30.2755 35.766 30.7889 36.0777 30.7889 36.426ZM30.1655 33.7493C30.1472 34.116 29.6339 34.391 29.0105 34.391C28.4055 34.3727 27.8922 34.061 27.8922 33.7127C27.8922 33.5843 27.9655 33.4743 28.0389 33.401C28.2405 33.2177 28.6072 33.0893 29.0105 33.0893H29.0289C29.4322 33.0893 29.8172 33.236 30.0189 33.4377C30.0739 33.511 30.1655 33.621 30.1655 33.7493ZM29.6889 31.2377C29.6889 31.3843 29.5972 31.4944 29.5239 31.5494C29.3222 31.751 28.9555 31.8794 28.5705 31.8794H28.5339C27.9289 31.8794 27.4155 31.5494 27.4155 31.201C27.4155 31.0727 27.5072 30.9627 27.5805 30.8894C27.7822 30.706 28.1305 30.5777 28.5339 30.5777H28.5705C28.9555 30.5777 29.3405 30.7243 29.5422 30.926C29.6155 30.9993 29.6889 31.1094 29.6889 31.2377ZM25.7472 33.9144C25.7472 34.061 25.6739 34.1527 25.6005 34.226C25.3989 34.4277 25.0322 34.5377 24.6289 34.5377H24.6105C24.2072 34.5377 23.8222 34.4093 23.6205 34.1893C23.5655 34.1343 23.4739 34.006 23.4739 33.8777C23.4922 33.731 23.5655 33.621 23.6389 33.566C23.8405 33.3643 24.2072 33.2543 24.5922 33.2543H24.6289C25.2339 33.2543 25.7472 33.566 25.7472 33.9144Z"/>
</svg>
