<svg width="44" height="44" viewBox="0 0 44 44" fill="none" xmlns="http://www.w3.org/2000/svg">
<path fill-rule="evenodd" clip-rule="evenodd" d="M35.3651 15.6015L38.1701 16.2248H4.73008L8.03008 15.1248L7.09508 11.7882H10.8717V7.49817C10.8717 7.49817 14.6301 8.0115 14.6484 7.97484L16.0601 4.1615L19.3601 6.54484C19.3601 6.54484 21.5784 3.75817 21.7067 3.6665L24.5301 6.5265L27.3534 4.14317C27.4634 4.2165 29.7184 8.43317 29.7184 8.43317L33.0184 7.47984V11.7698C33.0184 11.7698 36.5017 11.4765 36.7951 11.7698L35.3834 15.5832L35.3651 15.6015ZM22.3484 11.0365L21.7251 10.0832L21.1017 11.0365L20.0201 11.3482L20.7167 12.2465L20.6617 13.3832L21.7251 12.9798L22.7884 13.3832L22.7334 12.2465L23.4301 11.3482L22.3484 11.0365ZM10.1751 24.8965L10.4501 23.8515H12.1001L12.3751 24.8965C12.4301 25.0798 12.5767 25.1715 12.8334 25.1715C13.1817 25.1715 13.6767 24.9332 13.6767 24.5665C13.6767 24.5665 13.6767 24.5665 13.6767 24.5482C13.6767 24.5482 13.6767 24.5482 13.6767 24.5298C13.6767 24.5298 13.6767 24.5115 13.6767 24.4932C13.6767 24.4932 13.6767 24.4748 13.6767 24.4565L12.1734 19.1398C12.0817 18.8465 11.7517 18.6632 11.3117 18.6632C10.8717 18.6632 10.5417 18.8465 10.4501 19.1398L8.94675 24.4565C8.94675 24.4565 8.94675 24.4748 8.94675 24.4932C8.94675 24.5115 8.94675 24.5298 8.94675 24.5665C8.94675 24.9332 9.44175 25.1715 9.79008 25.1715C10.0284 25.1715 10.1934 25.0798 10.2484 24.8965H10.1751ZM7.71841 19.1765V23.1182C7.71841 24.4565 6.98508 25.2082 5.73841 25.2082C4.49175 25.2082 3.66675 24.4565 3.66675 23.3382C3.66675 22.7698 3.90508 22.6415 4.34508 22.6415C4.78508 22.6415 4.98675 22.7882 5.00508 23.0998C5.02341 23.4482 5.06008 23.9248 5.66508 23.9248C6.12341 23.9248 6.34341 23.6498 6.34341 23.0998V20.0015H5.70175C5.46341 20.0015 5.28008 19.7265 5.28008 19.3415C5.28008 19.0298 5.40841 18.6998 5.70175 18.6998H7.11341C7.38841 18.6998 7.71841 18.8465 7.71841 19.1582V19.1765ZM16.7934 19.9832C17.4534 19.9832 17.4717 20.4965 17.4717 20.7348C17.4717 21.0282 17.7101 21.1932 18.1501 21.1932C18.5901 21.1932 18.8284 21.0832 18.8284 20.4965C18.8284 19.4148 18.0034 18.7182 16.7384 18.7182C15.4734 18.7182 14.7401 19.4882 14.7401 20.8082V23.1182C14.7401 24.4565 15.4734 25.2082 16.7384 25.2082C18.0034 25.2082 18.8101 24.4565 18.8101 23.3382C18.8101 22.7698 18.5717 22.6415 18.1317 22.6415C17.6917 22.6415 17.4901 22.7882 17.4717 23.0998C17.4534 23.4298 17.4167 23.9248 16.7934 23.9248C16.3351 23.9248 16.0967 23.6498 16.0967 23.0998V20.7898C16.0967 20.2398 16.3351 19.9648 16.7934 19.9648V19.9832ZM20.8267 18.7182C20.5151 18.7182 20.1484 18.8282 20.1484 19.1765V24.7132C20.1484 25.0248 20.5151 25.1715 20.8267 25.1715C21.1384 25.1715 21.5051 25.0248 21.5051 24.7132V23.1548L21.7984 22.7515L23.1551 24.9698C23.2467 25.1532 23.4301 25.2448 23.6317 25.2448C24.0351 25.2448 24.4384 24.8782 24.4384 24.5298C24.4384 24.4932 24.4384 24.4748 24.4384 24.4382C24.4384 24.3832 24.4017 24.3282 24.3834 24.2732L22.7334 21.5415L24.0351 19.7632C24.0351 19.7632 24.1267 19.5798 24.1267 19.4698C24.1267 19.1032 23.6867 18.7365 23.3384 18.7365C23.1917 18.7365 23.0451 18.8098 22.9717 18.9382L21.5234 21.1382V19.1948C21.5234 18.8648 21.1384 18.7365 20.8451 18.7365L20.8267 18.7182ZM26.9134 24.7132V22.8982H27.6467C28.9484 22.8982 29.6634 22.1282 29.6634 20.8082V20.7715C29.6634 19.4515 28.9851 18.7365 27.7384 18.7365H26.0701C25.7767 18.7365 25.5567 18.9198 25.5567 19.1765V24.7132C25.5567 25.0248 25.9234 25.1715 26.2351 25.1715C26.5467 25.1715 26.9134 25.0248 26.9134 24.7132ZM32.8717 18.7182C31.5701 18.7182 30.8551 19.4698 30.8551 20.8082V23.1182C30.8551 24.4748 31.5701 25.2082 32.8717 25.2082C34.1734 25.2082 34.8884 24.4565 34.8884 23.1182V20.8082C34.8884 19.4515 34.1734 18.7182 32.8717 18.7182ZM39.8934 18.7182H36.4101C36.1167 18.7182 35.9884 19.0482 35.9884 19.3598C35.9884 19.7448 36.1534 20.0198 36.4101 20.0198H37.4734V24.6948C37.4734 25.0065 37.8401 25.1532 38.1517 25.1532C38.4634 25.1532 38.8301 25.0065 38.8301 24.6948V20.0198H39.8751C40.1134 20.0198 40.2967 19.7448 40.2967 19.3598C40.2967 19.0482 40.1684 18.7182 39.8751 18.7182H39.8934ZM32.9084 23.9432C33.3667 23.9432 33.6051 23.6682 33.6051 23.1182V20.8082C33.6051 20.2582 33.3667 19.9832 32.9084 19.9832C32.4501 19.9832 32.2301 20.2582 32.2301 20.8082V23.1182C32.2301 23.6682 32.4684 23.9432 32.9084 23.9432ZM27.6284 20.0198H26.8951V21.7615H27.6284C28.0684 21.7615 28.3434 21.4498 28.3434 20.8998V20.8082C28.3434 20.2582 28.0684 20.0198 27.6284 20.0198ZM11.2384 20.5882L11.7701 22.7148H10.6884L11.2201 20.5882H11.2384ZM38.1517 27.6648L35.3467 28.2882L36.7584 32.1015C36.4651 32.3948 32.9817 32.1015 32.9817 32.1015V36.3915L29.6817 35.4382C29.6817 35.4382 27.4451 39.6548 27.3167 39.7282L24.4934 37.3448L21.6701 40.2048C21.5601 40.1315 19.3051 37.3448 19.3051 37.3448L16.0051 39.7282L14.5934 35.9148L10.8167 36.3915V32.1015H7.09508L8.03008 28.7648L4.73008 27.6648H38.1701H38.1517ZM21.7067 30.4882L22.3301 31.4415L23.4117 31.7532L22.7151 32.6515L22.7701 33.7882L21.7067 33.3848L20.6434 33.7882L20.6984 32.6515L20.0017 31.7532L21.0834 31.4415L21.7067 30.4882Z"/>
</svg>
