<svg width="28" height="28" viewBox="0 0 28 28" fill="none" xmlns="http://www.w3.org/2000/svg">
<path fill-rule="evenodd" clip-rule="evenodd" d="M24.2081 11.4476H3.79165C3.13759 11.4476 2.56375 11.0123 2.38765 10.3823C2.21083 9.75264 2.47588 9.08217 3.03478 8.74275L13.243 2.54483C13.4756 2.40337 13.7378 2.33301 13.9999 2.33301C14.262 2.33301 14.5242 2.40337 14.7571 2.54483L24.9654 8.74275C25.5243 9.08217 25.7889 9.75228 25.6125 10.3823C25.436 11.0123 24.8622 11.4476 24.2081 11.4476ZM14.8751 14.3481C14.8751 13.6321 15.4554 13.0518 16.1714 13.0518H16.4954C17.2113 13.0518 17.7917 13.6321 17.7917 14.3481V19.7034C17.7917 20.4193 17.2113 20.9997 16.4954 20.9997H16.1714C15.4554 20.9997 14.8751 20.4193 14.8751 19.7034V14.3481ZM22.1667 14.3481C22.1667 13.6321 21.5863 13.0518 20.8704 13.0518H20.5463C19.8304 13.0518 19.25 13.6321 19.25 14.3481V19.7034C19.25 20.4193 19.8304 20.9997 20.5463 20.9997H20.8704C21.5863 20.9997 22.1667 20.4193 22.1667 19.7034V14.3481ZM10.5001 14.3481C10.5001 13.6321 11.0805 13.0518 11.7964 13.0518H12.1205C12.8364 13.0518 13.4168 13.6321 13.4168 14.3481V19.7034C13.4168 20.4193 12.8364 20.9997 12.1205 20.9997H11.7964C11.0805 20.9997 10.5001 20.4193 10.5001 19.7034V14.3481ZM9.04179 14.3481C9.04179 13.6321 8.46142 13.0518 7.7455 13.0518H7.42145C6.70552 13.0518 6.12515 13.6321 6.12515 14.3481V19.7034C6.12515 20.4193 6.70552 20.9997 7.42145 20.9997H7.74549C8.46142 20.9997 9.04179 20.4193 9.04179 19.7034V14.3481ZM25.2378 24.4655C25.6563 25.0463 25.0861 25.6663 24.3702 25.6663H3.68395C2.96803 25.6663 2.37165 25.0501 2.7355 24.4335C3.32244 23.4389 4.57338 22.7497 5.87497 22.7497H22.1667C23.0233 22.7497 24.5087 23.4537 25.2378 24.4655Z"/>
</svg>
