<svg width="28" height="28" viewBox="0 0 28 28" fill="none" xmlns="http://www.w3.org/2000/svg">
<path fill-rule="evenodd" clip-rule="evenodd" d="M24.2083 11.4481L3.79181 11.4481C3.13775 11.4481 2.56391 11.0128 2.38781 10.3828C2.21099 9.75313 2.47604 9.08266 3.03494 8.74323L13.2432 2.54532C13.4758 2.40386 13.7379 2.3335 14 2.3335C14.2622 2.3335 14.5243 2.40386 14.7573 2.54532L24.9655 8.74323C25.5244 9.08266 25.7891 9.75277 25.6127 10.3828C25.4362 11.0128 24.8623 11.4481 24.2083 11.4481ZM14.8752 14.3485C14.8752 13.6326 15.4556 13.0522 16.1715 13.0522H16.4956C17.2115 13.0522 17.7919 13.6326 17.7919 14.3485V19.7039C17.7919 20.4198 17.2115 21.0002 16.4956 21.0002H16.1715C15.4556 21.0002 14.8752 20.4198 14.8752 19.7039L14.8752 14.3485ZM22.1668 14.3485C22.1668 13.6326 21.5865 13.0522 20.8705 13.0522H20.5465C19.8306 13.0522 19.2502 13.6326 19.2502 14.3485V19.7039C19.2502 20.4198 19.8306 21.0002 20.5465 21.0002H20.8705C21.5865 21.0002 22.1668 20.4198 22.1668 19.7039V14.3485ZM10.5003 14.3485C10.5003 13.6326 11.0806 13.0522 11.7966 13.0522H12.1206C12.8365 13.0522 13.4169 13.6326 13.4169 14.3485L13.4169 19.7039C13.4169 20.4198 12.8365 21.0002 12.1206 21.0002H11.7966C11.0806 21.0002 10.5003 20.4198 10.5003 19.7039L10.5003 14.3485ZM9.04195 14.3485C9.04195 13.6326 8.46158 13.0522 7.74566 13.0522H7.42161C6.70568 13.0522 6.12531 13.6326 6.12531 14.3485V19.7039C6.12531 20.4198 6.70568 21.0002 7.42161 21.0002H7.74565C8.46158 21.0002 9.04195 20.4198 9.04195 19.7039V14.3485ZM25.2379 24.466C25.6565 25.0468 25.0862 25.6668 24.3703 25.6668H3.68411C2.96819 25.6668 2.37181 25.0506 2.73566 24.434C3.3226 23.4394 4.57354 22.7502 5.87513 22.7502H22.1668C23.0234 22.7502 24.5089 23.4542 25.2379 24.466Z" fill="url(#paint0_linear_8016_45885)"/>
<defs>
<linearGradient id="paint0_linear_8016_45885" x1="25.6668" y1="14.0002" x2="2.3335" y2="14.0002" gradientUnits="userSpaceOnUse">
<stop stop-color="#B34ABD"/>
<stop offset="1" stop-color="#873ED4"/>
</linearGradient>
</defs>
</svg>
