<svg width="32" height="32" viewBox="0 0 32 32" fill="none" xmlns="http://www.w3.org/2000/svg">
<path d="M15.2139 1.3335L14.9692 2.26299C8.98487 1.786 4.37543 9.67402 2.66797 16.1604L3.33712 19.6004C6.51377 9.95965 11.1579 4.74723 15.2565 4.79968L23.2669 6.98441L24.1155 3.76127L15.2139 1.33362V1.3335ZM24.9032 5.09267L24.6187 6.17347L26.0451 6.56256C25.9727 6.66076 25.9068 6.76471 25.8478 6.87243C25.5294 7.45313 25.3566 8.19185 25.3566 9.00111C25.3566 9.81025 25.5294 10.549 25.8478 11.1297C26.1663 11.7104 26.682 12.1852 27.3457 12.1852C28.0092 12.1852 28.5248 11.7104 28.8433 11.1297C29.1618 10.5489 29.3346 9.81031 29.3346 9.00105C29.3346 8.19197 29.1618 7.45331 28.8434 6.87261C28.5995 6.42801 28.2398 6.04629 27.787 5.89138L27.79 5.88001L24.9033 5.09249L24.9032 5.09267ZM15.3207 5.93198C14.3321 6.24724 13.3599 6.77687 12.4482 7.4908L15.0064 8.1885C15.4807 7.44098 15.9734 6.78932 16.4759 6.247L15.3207 5.93198ZM17.7115 6.58394C17.2065 7.06057 16.6804 7.70953 16.1575 8.50244L20.0696 9.56936C20.0063 8.61669 19.8696 7.78678 19.6663 7.11716L17.7115 6.58394ZM27.3456 6.93584C27.4768 6.93584 27.6808 7.04859 27.8833 7.41787C28.0857 7.78708 28.2351 8.36059 28.2351 9.00105C28.2351 9.64139 28.0857 10.215 27.8833 10.5842C27.6808 10.9534 27.4768 11.0663 27.3456 11.0663C27.2144 11.0663 27.0103 10.9534 26.8079 10.5842C26.6054 10.215 26.4561 9.64139 26.4561 9.00105C26.4561 8.36053 26.6054 7.7869 26.8079 7.41769C27.0103 7.04848 27.2144 6.93584 27.3456 6.93584ZM20.9019 7.45409C21.0708 8.1794 21.1771 8.99446 21.2207 9.88324L24.0756 10.6619C23.6368 9.57966 23.0552 8.62621 22.3539 7.85001L20.9019 7.45409ZM11.4448 8.37574C10.3825 9.42397 9.43805 10.7361 8.69365 12.2553L12.5783 13.3148C13.1275 11.7823 13.748 10.3895 14.4154 9.1859L11.4447 8.37574H11.4448ZM15.549 9.49511C14.8781 10.665 14.2294 12.0573 13.6567 13.6089L19.7268 15.2642C19.9932 13.629 20.1154 12.0931 20.1091 10.7385L15.549 9.49505V9.49511ZM21.2426 11.0478C21.2291 12.4298 21.0824 13.9519 20.8051 15.5584L24.9866 16.6987C25.0882 15.0043 24.915 13.3872 24.5101 11.9389L21.2426 11.0479V11.0478ZM8.232 13.288C7.96873 13.9371 7.74076 14.6179 7.55415 15.3267C7.3913 15.9453 7.26629 16.5613 7.17669 17.1708L11.1796 18.2624C11.3072 17.6612 11.4516 17.0512 11.614 16.4341C11.8002 15.7271 12.0022 15.04 12.2173 14.3748L8.23206 13.288H8.232ZM13.2874 14.6666C13.0678 15.3298 12.8623 16.0164 12.6761 16.7237C12.5136 17.3409 12.3712 17.952 12.2472 18.5536L18.5183 20.2637C18.7064 19.6798 18.8832 19.0781 19.0457 18.4609C19.2319 17.7535 19.3915 17.0545 19.5272 16.3683L13.2872 14.6666H13.2874ZM20.597 16.6601C20.4564 17.3457 20.294 18.0435 20.1078 18.7505C19.9454 19.3675 19.7707 19.9694 19.586 20.555L23.8857 21.7276C24.1075 21.1541 24.3017 20.5571 24.4646 19.9386C24.6512 19.2296 24.7881 18.5241 24.8789 17.8279L20.597 16.6601ZM7.05073 18.2948C6.93307 19.8222 7.03914 21.2907 7.33665 22.6354L10.4955 23.4967C10.5438 22.2117 10.6995 20.8206 10.9628 19.3617L7.05061 18.2948H7.05073ZM12.0396 19.6554C11.7863 21.134 11.6493 22.5369 11.6188 23.803L16.4837 25.1298C17.0792 24.0177 17.6498 22.7331 18.1567 21.3237L12.0397 19.6555L12.0396 19.6554ZM19.2335 21.6172C18.7449 23.0146 18.1963 24.2987 17.6071 25.4362L21.0628 26.3786C21.9809 25.3654 22.7942 24.1476 23.4426 22.7651L19.2336 21.6172H19.2335ZM7.67981 23.8874C8.13717 25.2672 8.81273 26.4722 9.66496 27.4153L10.8202 27.7304C10.6113 26.8315 10.4984 25.7946 10.4813 24.6515L7.67981 23.8874ZM11.6214 24.9624C11.6585 26.1911 11.8077 27.2488 12.056 28.0675L14.0102 28.6004C14.6274 28.0178 15.2762 27.1778 15.912 26.1325L11.6214 24.9624V24.9624ZM17.0521 26.4434C16.4758 27.4247 15.8685 28.2654 15.2461 28.9375L16.6981 29.3335C17.8996 28.9504 19.0766 28.2508 20.1505 27.2885L17.0521 26.4435L17.0521 26.4434Z" fill="#EF0C3C"/>
</svg>
