<svg width="109" height="45" viewBox="0 0 109 45" fill="none" xmlns="http://www.w3.org/2000/svg">
<g opacity="0.3">
<path d="M85.3019 0H77.3086L81.0963 2.5L85.3019 0Z" fill="#3E5BB2"/>
<path d="M100.652 0V5.14L93.2313 0L91.1422 2.5L89.598 0H86.0373L79.9333 6.5L76.6906 3.39L72.5123 7.78L70.9681 0.76H67.4892L62.4661 2.5L59.4141 0H47.1062L45.998 2.5L40.4299 0H0V45H8.65642L11.1362 41.65L13.5251 43.32H17.549V45H29.8751L26.814 39.38H35.7066L27.2863 34.7H39.0311L17.3673 10.47L40.7842 27.83L36.1698 11.21L45.6619 26.36L47.3423 21.02L49.5678 26.14L58.206 14.9L56.6528 25.14L69.7509 8.18L67.6527 22.7L90.8333 6.97L94.4303 4.29L70.414 30.91L94.5757 30.01L70.8228 37.1L77.0903 38.34L66.7171 45H85.2108L88.5171 41.65V45H109V0H100.652Z" fill="#3E5BB2"/>
<path d="M45.5363 37.7002H40.7766L45.609 39.8602L49.0152 33.2202L50.1688 35.6102L53.0482 35.1802L57.5899 40.6702H68.0539L69.3255 39.8502L58.4346 37.6902L71.1695 33.8902L63.4759 34.1702L79.9803 16.4502L63.921 29.4502L65.5378 18.2702L52.5577 34.7902L53.893 25.1602L48.9244 31.6202L47.7435 28.9102L46.481 32.9402L43.9195 28.8602L45.6453 35.0402L38.2969 29.6002L45.5363 37.7002Z" fill="#3E5BB2"/>
</g>
</svg>
