<svg width="40" height="40" viewBox="0 0 40 40" fill="none" xmlns="http://www.w3.org/2000/svg">
<path fill-rule="evenodd" clip-rule="evenodd" d="M33.0434 10.8273H30.8597C31.1478 10.3706 31.3378 9.85803 31.392 9.31591C31.5652 7.58336 30.6543 6.03025 29.1037 5.34168C27.6783 4.70875 26.0765 4.96749 24.9231 6.01545L22.1657 8.51886C21.6287 7.93049 20.8567 7.5607 20 7.5607C19.1417 7.5607 18.3685 7.93166 17.8314 8.52186L15.0704 6.01516C13.9151 4.96719 12.314 4.70946 10.8893 5.34203C9.33903 6.03066 8.42802 7.5843 8.60169 9.31679C8.65601 9.8585 8.84597 10.3709 9.13396 10.8273H6.9565C5.87592 10.8273 5 11.7048 5 12.7872V15.7272C5 16.2683 5.43799 16.7072 5.97828 16.7072H34.0217C34.562 16.7072 35 16.2684 35 15.7272V12.7872C34.9999 11.7048 34.124 10.8273 33.0434 10.8273ZM17.0652 10.5006V10.8273H12.4631C11.2471 10.8273 10.2902 9.69174 10.5939 8.42354C10.7276 7.86504 11.1301 7.38896 11.6506 7.14795C12.3653 6.81702 13.157 6.92326 13.7573 7.46755L17.066 10.4718L17.0656 10.484L17.0652 10.5006ZM29.4508 9.0557C29.3779 10.0743 28.4594 10.8274 27.4401 10.8274H22.9348V10.5008L22.9343 10.4819L22.9339 10.4662L26.1914 7.5084C26.6926 7.05333 27.3939 6.84091 28.0422 7.0346C28.9725 7.31259 29.5188 8.10511 29.4508 9.0557Z" fill="url(#paint0_linear_8003_18218)"/>
<path d="M6.95653 18.667V33.0401C6.95653 34.1225 7.83244 35 8.91303 35H18.0434V18.667H6.95653Z" fill="url(#paint1_linear_8003_18218)"/>
<path d="M21.9566 35V18.667H33.0435V33.0401C33.0435 34.1225 32.1676 35 31.087 35H21.9566Z" fill="url(#paint2_linear_8003_18218)"/>
<defs>
<linearGradient id="paint0_linear_8003_18218" x1="35" y1="20" x2="5" y2="20" gradientUnits="userSpaceOnUse">
<stop stop-color="#B34ABD"/>
<stop offset="1" stop-color="#873ED4"/>
</linearGradient>
<linearGradient id="paint1_linear_8003_18218" x1="35" y1="20" x2="5" y2="20" gradientUnits="userSpaceOnUse">
<stop stop-color="#B34ABD"/>
<stop offset="1" stop-color="#873ED4"/>
</linearGradient>
<linearGradient id="paint2_linear_8003_18218" x1="35" y1="20" x2="5" y2="20" gradientUnits="userSpaceOnUse">
<stop stop-color="#B34ABD"/>
<stop offset="1" stop-color="#873ED4"/>
</linearGradient>
</defs>
</svg>
