<svg width="24" height="19" viewBox="0 0 24 19" fill="none" xmlns="http://www.w3.org/2000/svg">
<path d="M21.52 5.12633H2.48001C1.29001 5.12633 0.333344 4.158 0.333344 2.97967C0.333344 1.78967 1.30168 0.833008 2.48001 0.833008H21.5083C22.6983 0.833008 23.655 1.80134 23.655 2.97967C23.655 4.16967 22.6867 5.12633 21.5083 5.12633H21.52ZM23.6667 9.55965C23.6667 8.36965 22.6983 7.41299 21.52 7.41299H2.48001C1.29001 7.41299 0.333344 8.38132 0.333344 9.55965C0.333344 10.7497 1.30168 11.7063 2.48001 11.7063H21.5083C22.6983 11.7063 23.655 10.738 23.655 9.55965H23.6667ZM23.6667 16.1513C23.6667 14.9613 22.6983 14.0046 21.52 14.0046H2.48001C1.29001 14.0046 0.333344 14.973 0.333344 16.1513C0.333344 17.3413 1.30168 18.298 2.48001 18.298H21.5083C22.6983 18.298 23.655 17.3296 23.655 16.1513H23.6667Z"/>
</svg>
