<svg width="24" height="19" viewBox="0 0 24 19" fill="none" xmlns="http://www.w3.org/2000/svg">
<path d="M21.5199 5.12633H2.47992C1.28992 5.12633 0.333252 4.158 0.333252 2.97967C0.333252 1.78967 1.30159 0.833008 2.47992 0.833008H21.5083C22.6982 0.833008 23.6549 1.80134 23.6549 2.97967C23.6549 4.16967 22.6866 5.12633 21.5083 5.12633H21.5199ZM23.6666 9.55965C23.6666 8.36965 22.6983 7.41299 21.5199 7.41299H2.47992C1.28992 7.41299 0.333252 8.38132 0.333252 9.55965C0.333252 10.7497 1.30159 11.7063 2.47992 11.7063H21.5083C22.6982 11.7063 23.6549 10.738 23.6549 9.55965H23.6666ZM23.6666 16.1513C23.6666 14.9613 22.6983 14.0046 21.5199 14.0046H2.47992C1.28992 14.0046 0.333252 14.973 0.333252 16.1513C0.333252 17.3413 1.30159 18.298 2.47992 18.298H21.5083C22.6982 18.298 23.6549 17.3296 23.6549 16.1513H23.6666Z"/>
</svg>
