<svg width="28" height="28" viewBox="0 0 28 28" fill="none" xmlns="http://www.w3.org/2000/svg">
<path d="M25.655 14.8367C25.5733 15.1167 25.5033 15.4201 25.3867 15.6884C24.9783 16.5984 24.2783 17.1701 23.31 17.4151C23.2633 17.4268 23.205 17.4384 23.1583 17.4384C23.135 17.4384 23.1117 17.4384 23.065 17.4268V17.1468C23.065 14.5684 23.065 11.9784 23.065 9.40011C23.065 7.82511 22.435 6.5651 21.14 5.66676C20.3933 5.14177 19.5417 4.92008 18.62 4.92008C14.8517 4.92008 11.0717 4.92008 7.30333 4.92008C7.21 4.92008 7.11667 4.92008 7 4.92008C7.05833 4.44175 7.22167 4.02176 7.49 3.6601C8.085 2.8201 8.90167 2.34176 9.94 2.34176C14.1983 2.33009 18.4567 2.33009 22.715 2.34176C24.1383 2.34176 25.3633 3.42677 25.6083 4.83844C25.6083 4.88511 25.6433 4.93177 25.655 4.97844V14.8251V14.8367Z"/>
<path d="M5.63499 22.187C5.23833 22.1286 4.85333 22.1053 4.49166 22.0003C3.21999 21.6503 2.33333 20.4603 2.33333 19.142C2.33333 16.0853 2.33333 13.017 2.33333 9.9603C2.33333 8.32696 3.66333 6.98531 5.31999 6.98531C9.55499 6.97365 13.79 6.97365 18.025 6.98531C19.6467 6.98531 20.93 8.24531 21.0117 9.86698C21.0233 10.112 21.0117 10.3686 21.0117 10.6136C21.0117 13.4136 21.0117 16.202 21.0117 19.002C21.0117 20.4136 20.2067 21.5687 18.9233 21.977C18.6083 22.082 18.2583 22.1286 17.9317 22.1286C15.8667 22.1403 13.8133 22.1286 11.7483 22.1286C11.5383 22.1286 11.3517 22.1753 11.165 22.2803C9.37999 23.2253 7.59499 24.1586 5.79833 25.092C5.63499 25.1736 5.45999 25.2553 5.28499 25.2903C4.89999 25.372 4.59666 25.127 4.61999 24.742C4.61999 24.5553 4.68999 24.357 4.77166 24.1703C5.05166 23.5053 5.34333 22.8403 5.63499 22.1753V22.187ZM16.66 15.7003C17.2783 15.7003 17.8033 15.1986 17.8033 14.5686C17.8033 13.9386 17.29 13.4136 16.66 13.4136C16.0417 13.4136 15.5167 13.927 15.5167 14.5453C15.5167 15.1753 16.03 15.7003 16.66 15.7003ZM6.66166 15.7003C7.30333 15.7003 7.80499 15.187 7.80499 14.557C7.80499 13.927 7.29166 13.4253 6.67333 13.4136C6.05499 13.4136 5.54166 13.9153 5.52999 14.5453C5.52999 15.187 6.03166 15.7003 6.66166 15.7003ZM10.745 14.5453C10.745 15.187 11.2467 15.7003 11.8883 15.7003C12.5183 15.7003 13.02 15.1986 13.0317 14.5686C13.0317 13.9386 12.5183 13.4136 11.8883 13.4136C11.27 13.4136 10.7567 13.927 10.745 14.5453Z"/>
</svg>
