<svg width="32" height="32" viewBox="0 0 32 32" fill="none" xmlns="http://www.w3.org/2000/svg">
<path fill-rule="evenodd" clip-rule="evenodd" d="M7.12383 22.6679C6.51423 23.2775 6.51423 24.2659 7.12383 24.8755C7.73342 25.4851 8.72178 25.4851 9.33138 24.8755L16 18.2069L22.6685 24.8755C23.2781 25.4851 24.2665 25.4851 24.8761 24.8755C25.4857 24.2659 25.4857 23.2775 24.8761 22.6679L18.2075 15.9993L24.8761 9.33077C25.4857 8.72117 25.4857 7.73281 24.8761 7.12321C24.2665 6.51362 23.2781 6.51362 22.6685 7.12321L16 13.7918L9.33138 7.12322C8.72178 6.51362 7.73342 6.51362 7.12383 7.12322C6.51423 7.73281 6.51423 8.72117 7.12383 9.33077L13.7924 15.9993L7.12383 22.6679Z"/>
</svg>
