<svg width="20" height="20" viewBox="0 0 20 20" fill="none" xmlns="http://www.w3.org/2000/svg">
<path fill-rule="evenodd" clip-rule="evenodd" d="M15.6347 5.78036L10.7994 2.95982C10.3047 2.67127 9.69527 2.67127 9.20059 2.95982L4.36529 5.78036C3.87061 6.06892 3.56588 6.60219 3.56588 7.1793V12.8204C3.56588 13.3975 3.87061 13.9308 4.36529 14.2193L9.20059 17.0399C9.69527 17.3284 10.3047 17.3284 10.7994 17.0399L15.6347 14.2193C16.1294 13.9308 16.4341 13.3975 16.4341 12.8204V7.1793C16.4341 6.60219 16.1294 6.06892 15.6347 5.78036ZM11.3323 2.0272C10.5079 1.54627 9.49211 1.54627 8.66765 2.0272L3.83235 4.84774C3.00789 5.32866 2.5 6.21745 2.5 7.1793V12.8204C2.5 13.7822 3.00789 14.671 3.83235 15.1519L8.66765 17.9725C9.49211 18.4534 10.5079 18.4534 11.3323 17.9725L16.1677 15.1519C16.9921 14.671 17.5 13.7822 17.5 12.8204V7.1793C17.5 6.21745 16.9921 5.32866 16.1677 4.84774L11.3323 2.0272ZM9.33384 4.39816C9.74607 4.1577 10.254 4.1577 10.6662 4.39816L14.2954 6.51515C14.7076 6.75561 14.9615 7.20001 14.9615 7.68093V11.9149C14.9615 12.3958 14.7076 12.8402 14.2954 13.0807L10.6662 15.1977C10.254 15.4381 9.74607 15.4381 9.33384 15.1977L5.70465 13.0807C5.29242 12.8402 5.03847 12.3958 5.03847 11.9149V7.68093C5.03847 7.20001 5.29242 6.75561 5.70465 6.51515L9.33384 4.39816ZM11.893 8.12791H8.16247V11.8971H11.893V8.12791Z" fill="#CE28D9"/>
</svg>
