<svg width="68" height="68" viewBox="0 0 68 68" fill="none" xmlns="http://www.w3.org/2000/svg">
<path fill-rule="evenodd" clip-rule="evenodd" d="M53.158 19.6541L36.718 10.0643C35.0361 9.08319 32.9639 9.08319 31.282 10.0643L14.842 19.6541C13.1601 20.6352 12.124 22.4483 12.124 24.4105V43.5902C12.124 45.5523 13.1601 47.3655 14.842 48.3465L31.282 57.9364C32.9639 58.9175 35.0361 58.9175 36.718 57.9364L53.158 48.3465C54.8399 47.3655 55.876 45.5523 55.876 43.5902V24.4105C55.876 22.4483 54.8399 20.6352 53.158 19.6541ZM38.53 6.89335C35.7268 5.25821 32.2732 5.25821 29.47 6.89335L13.03 16.4832C10.2268 18.1183 8.5 21.1402 8.5 24.4105V43.5902C8.5 46.8604 10.2268 49.8823 13.03 51.5175L29.47 61.1073C32.2732 62.7424 35.7268 62.7424 38.53 61.1073L54.97 51.5175C57.7732 49.8823 59.5 46.8604 59.5 43.5902V24.4105C59.5 21.1402 57.7732 18.1183 54.97 16.4832L38.53 6.89335ZM31.7351 14.9546C33.1366 14.1371 34.8635 14.1371 36.265 14.9546L48.6043 22.1524C50.0059 22.97 50.8693 24.4809 50.8693 26.116V40.5115C50.8693 42.1467 50.0059 43.6576 48.6043 44.4752L36.265 51.673C34.8635 52.4905 33.1366 52.4905 31.7351 51.673L19.3958 44.4752C17.9942 43.6576 17.1308 42.1467 17.1308 40.5115V26.116C17.1308 24.4809 17.9942 22.97 19.3958 22.1524L31.7351 14.9546ZM40.4363 27.6358H27.7524V40.4509H40.4363V27.6358Z" fill="url(#paint0_linear_195_74811)"/>
<defs>
<linearGradient id="paint0_linear_195_74811" x1="59.5" y1="34.0003" x2="8.5" y2="34.0003" gradientUnits="userSpaceOnUse">
<stop stop-color="#B34ABD"/>
<stop offset="1" stop-color="#873ED4"/>
</linearGradient>
</defs>
</svg>
