<svg width="28" height="28" viewBox="0 0 28 28" fill="none" xmlns="http://www.w3.org/2000/svg">
<path d="M18.5363 11.8039L15.1195 22.8939C14.7463 23.9668 13.277 23.9668 12.9038 22.8939L9.47535 11.7922C9.39372 11.559 9.56864 11.3141 9.81353 11.3141H18.2098C18.4547 11.3141 18.618 11.559 18.548 11.7922L18.5363 11.8039ZM10.7348 9.33159H17.2652C17.5684 9.33159 17.7317 8.95844 17.5334 8.72521L14.0117 4.67867L10.4899 8.72521C10.2917 8.95844 10.4433 9.33159 10.7581 9.33159H10.7348ZM25.3117 11.3257H20.9969C20.8453 11.3257 20.717 11.419 20.6587 11.5706L17.5334 20.6199C17.4052 21.0048 17.8833 21.2846 18.1398 20.9698L25.5799 11.9204C25.7781 11.6872 25.6149 11.3257 25.3117 11.3257ZM7.01477 11.3257H2.68836C2.38516 11.3257 2.2219 11.6872 2.42014 11.9204L9.87184 20.9698C10.1284 21.273 10.6065 20.9931 10.4782 20.6199L7.35296 11.5706C7.30631 11.4307 7.16637 11.3257 7.01477 11.3257ZM2.74667 9.33159H7.37628C7.53954 9.33159 7.69114 9.26164 7.79609 9.13337L9.81353 6.80107L11.1429 5.27341C11.3412 5.04018 11.1779 4.67867 10.8747 4.67867H6.16348C6.00022 4.67867 5.84862 4.74865 5.74367 4.87693L3.56297 7.44243L2.46679 8.73688C2.26854 8.97011 2.43181 9.34326 2.74667 9.34326V9.33159ZM18.2098 6.80107L20.2272 9.13337C20.3322 9.26164 20.4838 9.33159 20.6471 9.33159H25.2767C25.5915 9.33159 25.7548 8.9701 25.5566 8.72521L24.4604 7.4308L22.2797 4.86525C22.1747 4.73698 22.0231 4.66699 21.8599 4.66699H17.1603C16.8571 4.66699 16.6822 5.02851 16.8921 5.26174L18.2215 6.78939L18.2098 6.80107Z"/>
</svg>
