<svg width="24" height="24" viewBox="0 0 24 24" fill="none" xmlns="http://www.w3.org/2000/svg">
<path d="M21 19.0001H3C2.45 19.0001 2 18.5501 2 18.0001V6.00006C2 5.45006 2.45 5.00006 3 5.00006C3.27 5.00006 3.52 5.11006 3.71 5.29006L8.73 10.3101L11.11 5.55006C11.4 5.06006 12.04 4.89006 12.54 5.19006C12.69 5.28006 12.81 5.40006 12.9 5.55006L15.28 10.3101L20.29 5.29006C20.68 4.90006 21.31 4.90006 21.7 5.29006C21.89 5.48006 21.99 5.73006 21.99 6.00006V18.0001C21.99 18.5501 21.54 19.0001 20.99 19.0001H21Z" fill="#FFCC00"/>
</svg>
