<svg width="19" height="19" viewBox="0 0 19 19" fill="none" xmlns="http://www.w3.org/2000/svg">
<path d="M16.1857 4.475H13.4062L13.0361 2.5325C12.9416 2.18 12.666 2 12.2959 2H6.46128C6.0912 2 5.81561 2.2625 5.72112 2.5325L5.44553 4.475H2.65813C2.19356 4.475 1.91797 4.7375 1.91797 5.18C1.91797 5.6225 2.19356 5.975 2.65813 5.975H3.86285L4.50852 16.385C4.50852 16.7375 4.8786 17 5.24868 17H13.4928C13.8629 17 14.2329 16.7375 14.2329 16.385L14.9731 5.975H16.1778C16.6424 5.975 16.918 5.7125 16.918 5.27C16.918 4.8275 16.6424 4.475 16.1778 4.475H16.1857ZM7.10695 3.4175H11.6424L11.8314 4.475H6.91797L7.10695 3.4175ZM12.8471 15.5975H5.99671L5.35104 5.9825H13.5006L12.855 15.5975H12.8471ZM7.56364 14.1875H11.2723C11.7369 14.1875 12.0125 13.925 12.0125 13.4825C12.0125 13.04 11.7369 12.7775 11.2723 12.7775H7.56364C7.09907 12.7775 6.82348 13.04 6.82348 13.4825C6.82348 13.835 7.09907 14.1875 7.56364 14.1875Z" fill="white"/>
</svg>
