<svg width="32" height="32" viewBox="0 0 32 32" fill="none" xmlns="http://www.w3.org/2000/svg">
<path d="M21.1847 13.4894L17.2798 26.1638C16.8533 27.3899 15.174 27.3899 14.7475 26.1638L10.8293 13.4761C10.736 13.2095 10.9359 12.9297 11.2158 12.9297H20.8115C21.0914 12.9297 21.278 13.2095 21.198 13.4761L21.1847 13.4894ZM12.2686 10.664H19.732C20.0785 10.664 20.2651 10.2375 20.0385 9.97097L16.0137 5.34635L11.9888 9.97097C11.7622 10.2375 11.9355 10.664 12.2953 10.664H12.2686ZM28.9279 12.943H23.9968C23.8235 12.943 23.6769 13.0496 23.6103 13.2229L20.0385 23.565C19.8919 24.0048 20.4384 24.3246 20.7316 23.9648L29.2345 13.6227C29.461 13.3561 29.2744 12.943 28.9279 12.943ZM8.0172 12.943H3.07272C2.72621 12.943 2.53963 13.3561 2.76619 13.6227L11.2824 23.9648C11.5756 24.3113 12.122 23.9914 11.9754 23.565L8.40369 13.2229C8.35038 13.0629 8.19046 12.943 8.0172 12.943ZM3.13936 10.664H8.43035C8.61693 10.664 8.79019 10.584 8.91014 10.4374L11.2158 7.77195L12.7351 6.02606C12.9617 5.75951 12.7751 5.34635 12.4286 5.34635H7.0443C6.85771 5.34635 6.68446 5.42633 6.56451 5.57293L4.07228 8.50494L2.8195 9.98431C2.59294 10.2509 2.77952 10.6773 3.13936 10.6773V10.664ZM20.8115 7.77195L23.1172 10.4374C23.2371 10.584 23.4104 10.664 23.597 10.664H28.8879C29.2478 10.664 29.4344 10.2508 29.2078 9.97097L27.955 8.49164L25.4628 5.55959C25.3428 5.41299 25.1696 5.33301 24.983 5.33301H19.6121C19.2655 5.33301 19.0656 5.74617 19.3055 6.01272L20.8249 7.75861L20.8115 7.77195Z" fill="url(#paint0_linear_8024_47754)"/>
<defs>
<linearGradient id="paint0_linear_8024_47754" x1="29.3337" y1="16.2082" x2="2.66699" y2="16.2082" gradientUnits="userSpaceOnUse">
<stop stop-color="#B34ABD"/>
<stop offset="1" stop-color="#873ED4"/>
</linearGradient>
</defs>
</svg>
