<svg width="32" height="32" viewBox="0 0 32 32" fill="none" xmlns="http://www.w3.org/2000/svg">
<path d="M26.0305 9.03046C24.1957 7.53713 21.9938 6.79046 19.6697 6.66602L19.3027 7.03935C21.3822 7.53713 23.2171 8.53268 24.9296 9.90157C22.8501 8.78157 20.526 8.0349 18.0795 7.78602C17.3455 7.66157 16.7339 7.66157 16 7.66157C15.266 7.66157 14.6544 7.66157 13.9204 7.78602C11.474 8.0349 9.14981 8.78157 7.0703 9.90157C8.78283 8.53268 10.6177 7.53713 12.6972 7.03935L12.3302 6.66602C10.0061 6.79046 7.80424 7.53713 5.96938 9.03046C3.88987 13.0127 2.78895 17.4927 2.66663 22.0971C4.50149 24.0882 7.0703 25.3327 9.76143 25.3327C9.76143 25.3327 10.6177 24.3371 11.2293 23.466C9.6391 23.0927 8.17121 22.2216 7.19262 20.8527C8.04889 21.3505 8.90516 21.8482 9.76143 22.2216C10.8623 22.7193 11.9633 22.9682 13.0642 23.2171C14.0428 23.3416 15.0214 23.466 16 23.466C16.9786 23.466 17.9571 23.3416 18.9357 23.2171C20.0367 22.9682 21.1376 22.7193 22.2385 22.2216C23.0948 21.8482 23.951 21.3505 24.8073 20.8527C23.8287 22.2216 22.3608 23.0927 20.7706 23.466C21.3822 24.3371 22.2385 25.3327 22.2385 25.3327C24.9296 25.3327 27.4984 24.0882 29.3333 22.0971C29.211 17.4927 28.1101 13.0127 26.0305 9.03046ZM11.9633 19.8571C10.74 19.8571 9.6391 18.7371 9.6391 17.3682C9.6391 15.9993 10.74 14.8793 11.9633 14.8793C13.1865 14.8793 14.2874 15.9993 14.2874 17.3682C14.2874 18.7371 13.1865 19.8571 11.9633 19.8571ZM20.0367 19.8571C18.8134 19.8571 17.7125 18.7371 17.7125 17.3682C17.7125 15.9993 18.8134 14.8793 20.0367 14.8793C21.2599 14.8793 22.3608 15.9993 22.3608 17.3682C22.3608 18.7371 21.2599 19.8571 20.0367 19.8571Z" fill="url(#paint0_linear_8005_28751)"/>
<defs>
<linearGradient id="paint0_linear_8005_28751" x1="2.66663" y1="15.9993" x2="27.5104" y2="17.2585" gradientUnits="userSpaceOnUse">
<stop stop-color="#AA4FFC"/>
<stop offset="1" stop-color="#940FFF"/>
</linearGradient>
</defs>
</svg>
