<svg width="19" height="20" viewBox="0 0 19 20" fill="none" xmlns="http://www.w3.org/2000/svg">
<path fill-rule="evenodd" clip-rule="evenodd" d="M12.7727 0L2.13636 0C1.23636 0 0.5 0.75 0.5 1.66667L0.5 14.1667C0.5 15.0833 1.23636 15.8333 2.13636 15.8333H2.95454L2.95454 4.16667C2.95454 3.25 3.69091 2.5 4.59091 2.5L14.4091 2.5V1.66667C14.4091 0.75 13.6727 0 12.7727 0ZM16.8636 4.16667C17.7636 4.16667 18.5 4.91667 18.5 5.83333V18.3333C18.5 19.25 17.7636 20 16.8636 20H6.22728C5.32728 20 4.59092 19.25 4.59092 18.3333L4.59092 5.83333C4.59092 4.91667 5.32728 4.16667 6.22728 4.16667L16.8636 4.16667ZM10.7273 9.16667C10.9727 9.16667 11.1364 9 11.1364 8.75V7.91667C11.1364 7.66667 10.9727 7.5 10.7273 7.5L7.45456 7.5C7.2091 7.5 7.04547 7.66667 7.04547 7.91667V8.75C7.04547 9 7.2091 9.16667 7.45456 9.16667H10.7273ZM14 15.8333C14.2455 15.8333 14.4091 15.6667 14.4091 15.4167V14.5833C14.4091 14.3333 14.2455 14.1667 14 14.1667H7.45456C7.2091 14.1667 7.04547 14.3333 7.04547 14.5833V15.4167C7.04547 15.6667 7.2091 15.8333 7.45456 15.8333H14ZM15.6364 12.5C15.8818 12.5 16.0455 12.3333 16.0455 12.0833V11.25C16.0455 11 15.8818 10.8333 15.6364 10.8333L7.45456 10.8333C7.2091 10.8333 7.04547 11 7.04547 11.25V12.0833C7.04547 12.3333 7.2091 12.5 7.45456 12.5L15.6364 12.5Z"/>
</svg>
