<svg width="32" height="33" viewBox="0 0 32 33" fill="none" xmlns="http://www.w3.org/2000/svg">
<path fill-rule="evenodd" clip-rule="evenodd" d="M5.33268 9.83317C5.33268 7.62404 7.12355 5.83317 9.33268 5.83317H17.3327C18.0691 5.83317 18.666 5.23621 18.666 4.49984C18.666 3.76346 18.0691 3.1665 17.3327 3.1665H9.33268C5.65079 3.1665 2.66602 6.15128 2.66602 9.83317V23.1665C2.66602 26.8484 5.65079 29.8332 9.33268 29.8332H22.666C26.3479 29.8332 29.3327 26.8484 29.3327 23.1665V15.1665C29.3327 14.4301 28.7357 13.8332 27.9993 13.8332C27.2629 13.8332 26.666 14.4301 26.666 15.1665V23.1665C26.666 25.3757 24.8752 27.1665 22.666 27.1665H9.33268C7.12355 27.1665 5.33268 25.3757 5.33268 23.1665V9.83317ZM25.5959 3.1665C24.6048 3.1665 23.6543 3.56021 22.9535 4.26101L21.9092 5.3052C21.3886 5.8259 21.3886 6.67012 21.9092 7.19082L25.3084 10.5899C25.8291 11.1106 26.6734 11.1106 27.194 10.5899L28.2382 9.54574C28.939 8.84494 29.3327 7.89445 29.3327 6.90337C29.3327 5.91229 28.939 4.96181 28.2382 4.26101C27.5374 3.56021 26.587 3.1665 25.5959 3.1665ZM18.138 9.07644C18.6587 8.55573 19.503 8.55573 20.0236 9.07644L23.4228 12.4756C23.9435 12.9963 23.9435 13.8405 23.4228 14.3612L17.4743 20.3096C17.3035 20.4805 17.0894 20.6017 16.855 20.6604L12.3228 21.7933C11.8684 21.9069 11.3877 21.7738 11.0566 21.4426C10.7254 21.1114 10.5923 20.6308 10.7059 20.1765L11.8389 15.6442C11.8975 15.4098 12.0187 15.1957 12.1896 15.0249L18.138 9.07644Z"/>
</svg>
