<svg width="34" height="34" viewBox="0 0 34 34" fill="none" xmlns="http://www.w3.org/2000/svg">
<path d="M16.9999 33.6668C26.2047 33.6668 33.6666 26.2049 33.6666 17.0002C33.6666 7.79542 26.2047 0.333496 16.9999 0.333496C7.79517 0.333496 0.333252 7.79542 0.333252 17.0002C0.333252 26.2049 7.79517 33.6668 16.9999 33.6668Z" fill="#F0F0F0"/>
<path d="M4.14282 6.39404H29.8569C28.9071 5.24398 27.8056 4.22412 26.5836 3.36377H7.41606C6.19412 4.22399 5.09263 5.24391 4.14282 6.39404Z" fill="#F0F0F0"/>
<path d="M0.333252 17C0.333252 17.5108 0.357536 18.0159 0.402523 18.5151H33.5973C33.6423 18.0159 33.6666 17.5108 33.6666 17C33.6666 16.4891 33.6423 15.984 33.5973 15.4849H0.402523C0.357536 15.984 0.333252 16.4891 0.333252 17H0.333252Z" fill="#F0F0F0"/>
<path d="M2.15078 24.5761H31.8492C32.34 23.6161 32.7402 22.6023 33.0391 21.5459H0.960938C1.2597 22.6023 1.66009 23.6161 2.15078 24.5761Z" fill="#F0F0F0"/>
<path d="M7.41606 30.6367H26.5836C27.8055 29.7764 28.9071 28.7565 29.8568 27.6064H4.14282C5.09263 28.7564 6.19412 29.7764 7.41606 30.6367Z" fill="#F0F0F0"/>
<path d="M0.960693 12.4546H33.039C32.7401 11.3981 32.3398 10.3843 31.849 9.42432H2.1506C1.65991 10.3843 1.25952 11.3981 0.960693 12.4546Z" fill="#F0F0F0"/>
<path d="M8.3042 3.36377H26.5836C23.8727 1.45505 20.5674 0.333496 16.9998 0.333496C14.8259 0.333496 11.0151 1.45505 8.3042 3.36377Z" fill="#D80027"/>
<path d="M16.2754 9.42432H31.8492C31.295 8.34014 30.6256 7.32458 29.857 6.39404H16.2754V9.42432Z" fill="#D80027"/>
<path d="M16.2754 15.4849H33.5974C33.5036 14.4444 33.3152 13.4311 33.0391 12.4546H16.2754V15.4849Z" fill="#D80027"/>
<path d="M0.960921 21.5459H33.039C33.3152 20.5695 33.5036 19.5561 33.5974 18.5156H0.402588C0.496338 19.5561 0.684749 20.5694 0.960921 21.5459Z" fill="#D80027"/>
<path d="M4.14282 27.606H29.8569C30.6254 26.6753 31.2948 25.6598 31.8491 24.5757H2.15063C2.70487 25.6599 3.37427 26.6754 4.14282 27.606Z" fill="#D80027"/>
<path d="M17 33.667C20.5676 33.667 23.8729 32.5454 26.5838 30.6367H7.41626C10.1272 32.5454 13.4325 33.667 17 33.667Z" fill="#D80027"/>
<path d="M0.960856 12.4547C0.684684 13.4313 0.496338 14.4445 0.402588 15.485H17V0.333496C9.37108 0.333496 2.9395 5.45928 0.960856 12.4547Z" fill="#0052B4"/>
<path d="M10.2544 4.68115L11.3335 8.00244H14.8261L12.0007 10.0553L13.0797 13.3768L10.2544 11.3241L7.42895 13.3768L8.50825 10.0553L5.68286 8.00244H9.17524L10.2544 4.68115Z" fill="#F0F0F0"/>
</svg>
