<svg width="24" height="24" viewBox="0 0 24 24" fill="none" xmlns="http://www.w3.org/2000/svg">
<path fill-rule="evenodd" clip-rule="evenodd" d="M5.3429 17.0014C4.8857 17.4586 4.8857 18.1999 5.3429 18.6571C5.8001 19.1143 6.54137 19.1143 6.99856 18.6571L12 13.6557L17.0014 18.6571C17.4586 19.1143 18.1999 19.1143 18.6571 18.6571C19.1143 18.1999 19.1143 17.4586 18.6571 17.0014L13.6557 12L18.6571 6.99856C19.1143 6.54136 19.1143 5.8001 18.6571 5.3429C18.1999 4.8857 17.4586 4.8857 17.0014 5.3429L12 10.3443L6.99856 5.3429C6.54137 4.8857 5.8001 4.8857 5.3429 5.3429C4.8857 5.8001 4.8857 6.54137 5.3429 6.99856L10.3443 12L5.3429 17.0014Z" fill="#EF0C3C"/>
</svg>
