<svg width="27" height="24" viewBox="0 0 27 24" fill="none" xmlns="http://www.w3.org/2000/svg">
<path fill-rule="evenodd" clip-rule="evenodd" d="M1.40396 6.51252C0.483634 8.19507 0.00159395 10.0822 0.00225899 12C0.00176605 13.9179 0.484021 15.8051 1.40458 17.4876C2.32514 19.1701 3.65439 20.5939 5.26983 21.6276C6.88527 22.6614 8.73493 23.2719 10.6483 23.4029C12.5618 23.534 14.4774 23.1813 16.2186 22.3773C16.3923 22.3008 16.5491 22.1905 16.6796 22.0527C16.8102 21.9149 16.912 21.7525 16.979 21.5749C17.0461 21.3974 17.0771 21.2082 17.0703 21.0185C17.0634 20.8289 17.0188 20.6424 16.9391 20.4702C16.8593 20.2979 16.7461 20.1433 16.6059 20.0153C16.4657 19.8874 16.3014 19.7886 16.1226 19.7249C15.9439 19.6611 15.7542 19.6336 15.5647 19.644C15.3751 19.6544 15.1896 19.7025 15.0188 19.7854C13.7131 20.3866 12.2771 20.6497 10.8431 20.5505C9.40898 20.4513 8.0229 19.993 6.81239 19.2177C5.60188 18.4424 4.60583 17.3751 3.91593 16.114C3.22603 14.8529 2.86443 13.4384 2.86443 12.0009C2.86443 10.5634 3.22603 9.14904 3.91593 7.88792C4.60583 6.62679 5.60188 5.55947 6.81239 4.78418C8.0229 4.0089 9.40898 3.55056 10.8431 3.45136C12.2771 3.35216 13.7131 3.61529 15.0188 4.21652C15.3631 4.37537 15.7563 4.39097 16.112 4.2599C16.4677 4.12882 16.7568 3.8618 16.9157 3.51758C17.0745 3.17336 17.0901 2.78014 16.959 2.42441C16.828 2.06869 16.561 1.7796 16.2167 1.62075C14.4754 0.817192 12.5598 0.464838 10.6465 0.596158C8.73321 0.727479 6.88374 1.33825 5.26852 2.37219C3.6533 3.40613 2.32429 4.82997 1.40396 6.51252ZM19.1819 6.15423C19.2618 5.98443 19.3745 5.83204 19.5133 5.7058C19.6521 5.57941 19.8144 5.48162 19.991 5.418C20.1676 5.35438 20.3549 5.32618 20.5424 5.33503C20.7299 5.34387 20.9138 5.38958 21.0836 5.46954C21.2534 5.54949 21.4058 5.66213 21.5321 5.80102L26.2894 11.0344C26.5313 11.2968 26.666 11.6404 26.6667 11.9974C26.6674 12.3543 26.5341 12.6984 26.2932 12.9617L21.5321 18.199C21.277 18.4793 20.921 18.6468 20.5424 18.6647C20.1638 18.6825 19.7937 18.5493 19.5133 18.2942C19.233 18.0391 19.0655 17.6831 19.0476 17.3046C19.0298 16.926 19.163 16.5558 19.4181 16.2755L22.0082 13.4283H10.9528C10.574 13.4283 10.2107 13.2779 9.94285 13.01C9.67499 12.7421 9.5245 12.3788 9.5245 12C9.5245 11.6212 9.67499 11.2579 9.94285 10.99C10.2107 10.7221 10.574 10.5717 10.9528 10.5717H22.0082L19.4181 7.72451C19.2917 7.58575 19.1939 7.42344 19.1303 7.24686C19.0667 7.07028 19.0385 6.8829 19.0473 6.69542C19.0562 6.50794 19.1019 6.32404 19.1819 6.15423Z" />
</svg>
