<svg width="28" height="28" viewBox="0 0 28 28" fill="none" xmlns="http://www.w3.org/2000/svg">
<path fill-rule="evenodd" clip-rule="evenodd" d="M14.0002 4.12788C8.54812 4.12788 4.12837 8.54763 4.12837 13.9997C4.12837 19.4517 8.54812 23.8715 14.0002 23.8715C19.4522 23.8715 23.872 19.4517 23.872 13.9997C23.872 8.54763 19.4522 4.12788 14.0002 4.12788ZM2.3335 13.9997C2.3335 7.55635 7.55684 2.33301 14.0002 2.33301C20.4435 2.33301 25.6668 7.55635 25.6668 13.9997C25.6668 20.443 20.4435 25.6663 14.0002 25.6663C7.55684 25.6663 2.3335 20.443 2.3335 13.9997ZM14.516 8.21041C13.7073 8.08342 12.8822 8.23247 12.1552 8.63685C11.3975 9.10237 10.834 9.86576 10.5812 10.769C10.5304 10.8872 10.5028 11.0156 10.5003 11.146C10.4979 11.2764 10.5205 11.4059 10.5668 11.5263C10.613 11.6467 10.682 11.7553 10.7691 11.8452C10.8563 11.935 10.9598 12.0042 11.0731 12.0483C11.1957 12.0992 11.3264 12.1229 11.4576 12.1182C11.5888 12.1134 11.7177 12.0802 11.8369 12.0206C11.9561 11.961 12.063 11.8762 12.1515 11.7711C12.2399 11.666 12.3081 11.5428 12.3519 11.4087C12.4102 11.196 12.5109 10.9999 12.6469 10.8341C12.7829 10.6683 12.9508 10.5369 13.1389 10.4492C13.4952 10.2247 13.915 10.1488 14.3193 10.236C14.7065 10.3168 15.0549 10.5434 15.303 10.8756C15.4377 11.0326 15.542 11.2172 15.6096 11.4187C15.6772 11.6201 15.7068 11.8343 15.6965 12.0483C15.6965 12.4748 15.4014 12.9012 14.8111 13.3277C14.6259 13.454 14.4318 13.5645 14.2308 13.6581L14.0242 13.7541L13.6307 13.9673C13.4079 14.0622 13.2273 14.246 13.1259 14.481C13.0245 14.716 13.0102 14.9841 13.0859 15.2302C13.1616 15.4763 13.3215 15.6815 13.5327 15.8036C13.7439 15.9256 13.9902 15.9552 14.2209 15.8863C20.1231 13.221 16.6802 8.31702 14.516 8.21041ZM13.427 18.0109C13.6114 17.811 13.8617 17.6986 14.1225 17.6986C14.3834 17.6986 14.6336 17.811 14.8181 18.0109C15.0026 18.2108 15.1062 18.482 15.1062 18.7647C15.1062 19.0475 15.0026 19.3186 14.8181 19.5186C14.6336 19.7185 14.3834 19.8308 14.1225 19.8308C13.9911 19.8402 13.8593 19.8191 13.7361 19.7689C13.6128 19.7186 13.5008 19.6404 13.4077 19.5395C13.3145 19.4386 13.2424 19.3172 13.196 19.1836C13.1496 19.05 13.1302 18.9072 13.1389 18.7647C13.1389 18.482 13.2425 18.2108 13.427 18.0109Z" fill="url(#paint0_linear_8016_37355)"/>
<defs>
<linearGradient id="paint0_linear_8016_37355" x1="25.6668" y1="13.9997" x2="2.3335" y2="13.9997" gradientUnits="userSpaceOnUse">
<stop stop-color="#B34ABD"/>
<stop offset="1" stop-color="#873ED4"/>
</linearGradient>
</defs>
</svg>
