<svg width="41" height="41" viewBox="0 0 41 41" fill="none" xmlns="http://www.w3.org/2000/svg">
<path d="M34.9667 15.3497C34.8167 14.7497 34.2167 14.4331 33.6 14.4331H25.4167L31.9334 6.39974C32.2334 5.94974 32.3834 5.33307 32.0834 4.73307C31.7834 4.13307 31.3334 3.81641 30.7167 3.81641H17.0834C16.4834 3.81641 15.8667 4.11641 15.7167 4.56641L7.40005 20.6497C7.10005 21.0997 7.10005 21.7164 7.40005 22.1664C7.70005 22.6164 8.15005 22.9164 8.76672 22.9164H17.25L13.9167 35.3331C13.7667 35.9331 14.0667 36.6997 14.6667 36.9997C14.9667 37.1497 15.1167 37.1497 15.4167 37.1497C15.8667 37.1497 16.3334 36.9997 16.6334 36.6997L34.8167 16.9997C35.2667 16.5497 35.2667 15.9331 34.9667 15.3331V15.3497Z" fill="#7E00FF"/>
</svg>
