<svg width="16" height="16" viewBox="0 0 16 16" fill="none" xmlns="http://www.w3.org/2000/svg">
<path d="M13.7866 5.94048C13.7266 5.70048 13.4866 5.57382 13.2399 5.57382H9.96659L12.5733 2.36048C12.6933 2.18048 12.7533 1.93382 12.6333 1.69382C12.5133 1.45382 12.3333 1.32715 12.0866 1.32715H6.63326C6.39326 1.32715 6.14659 1.44715 6.08659 1.62715L2.75992 8.06048C2.63992 8.24048 2.63992 8.48715 2.75992 8.66715C2.87992 8.84715 3.05992 8.96715 3.30659 8.96715H6.69992L5.36659 13.9338C5.30659 14.1738 5.42659 14.4805 5.66659 14.6005C5.78659 14.6605 5.84659 14.6605 5.96659 14.6605C6.14659 14.6605 6.33326 14.6005 6.45326 14.4805L13.7266 6.60048C13.9066 6.42048 13.9066 6.17382 13.7866 5.93382V5.94048Z" fill="white"/>
</svg>
