<svg width="32" height="33" viewBox="0 0 32 33" fill="none" xmlns="http://www.w3.org/2000/svg">
<path fill-rule="evenodd" clip-rule="evenodd" d="M4.71925 16.5003C4.71925 10.2694 9.7704 5.21827 16.0013 5.21827C22.2322 5.21827 27.2834 10.2694 27.2834 16.5003C27.2834 22.7312 22.2322 27.7824 16.0013 27.7824C9.7704 27.7824 4.71925 22.7312 4.71925 16.5003ZM16.0013 3.16699C8.63751 3.16699 2.66797 9.13653 2.66797 16.5003C2.66797 23.8641 8.63751 29.8337 16.0013 29.8337C23.3651 29.8337 29.3346 23.8641 29.3346 16.5003C29.3346 9.13653 23.3651 3.16699 16.0013 3.16699ZM12.8137 12.5003V21.167H10.668V14.2337H9.33464V12.5003H12.8137ZM22.147 12.5003V21.167H20.0013V14.2337H18.668V12.5003H22.147ZM16.0013 16.367C16.5168 16.367 16.9346 15.9491 16.9346 15.4337C16.9346 14.9182 16.5168 14.5003 16.0013 14.5003C15.4858 14.5003 15.068 14.9182 15.068 15.4337C15.068 15.9491 15.4858 16.367 16.0013 16.367ZM16.9346 19.4337C16.9346 19.9491 16.5168 20.367 16.0013 20.367C15.4858 20.367 15.068 19.9491 15.068 19.4337C15.068 18.9182 15.4858 18.5003 16.0013 18.5003C16.5168 18.5003 16.9346 18.9182 16.9346 19.4337Z" fill="url(#paint0_linear_8133_51516)"/>
<defs>
<linearGradient id="paint0_linear_8133_51516" x1="29.3346" y1="16.5003" x2="2.66797" y2="16.5003" gradientUnits="userSpaceOnUse">
<stop stop-color="#B34ABD"/>
<stop offset="1" stop-color="#873ED4"/>
</linearGradient>
</defs>
</svg>
