<svg width="28" height="28" viewBox="0 0 28 28" fill="none" xmlns="http://www.w3.org/2000/svg">
<path fill-rule="evenodd" clip-rule="evenodd" d="M16.7465 3.5C14.7918 3.5 13.1313 4.72799 12.4814 6.45088C14.945 7.01129 16.7912 9.21501 16.7912 11.8458C16.7912 12.1062 16.7669 12.3619 16.7316 12.6151C16.734 12.6151 16.7364 12.6153 16.7387 12.6155C16.74 12.6156 16.7413 12.6157 16.7426 12.6158C16.7439 12.6159 16.7452 12.616 16.7465 12.616C18.1975 12.616 19.488 11.9381 20.3206 10.8856C20.9331 10.1066 21.3018 9.12546 21.3018 8.05504C21.3018 5.53967 19.262 3.5 16.7465 3.5ZM6.76452 11.867C6.76452 9.37644 8.78428 7.35681 11.2811 7.35681C13.7719 7.35681 15.7917 9.37644 15.7917 11.867C15.7917 12.9269 15.4266 13.8984 14.8201 14.6698C13.9957 15.7119 12.7179 16.3832 11.2811 16.3832C9.84428 16.3832 8.56054 15.7119 7.73614 14.6698C7.12957 13.8984 6.76452 12.9269 6.76452 11.867ZM15.6002 15.283C15.7137 15.1385 15.907 15.0793 16.0717 15.1607C18.5019 16.3622 20.1745 18.865 20.1745 21.7587V22.5557C20.1745 23.6295 19.304 24.5 18.2301 24.5H4.27795C3.20406 24.5 2.3335 23.6295 2.3335 22.5557V21.7587C2.3335 18.8652 4.00146 16.367 6.43013 15.1629C6.59554 15.0809 6.78969 15.1403 6.9038 15.2855C7.96142 16.622 9.54692 17.3885 11.2542 17.3885C12.9576 17.3885 14.5407 16.622 15.6002 15.283ZM21.0926 11.4922C21.2061 11.3477 21.3993 11.2884 21.5641 11.3698C23.9943 12.5713 25.6669 15.0741 25.6668 17.9678V18.7649C25.6668 19.8387 24.7963 20.7092 23.7224 20.7092H22.7984C21.8194 20.7092 21.0161 19.9696 20.6968 19.0442C20.0024 17.0319 18.5516 15.3277 16.6047 14.3333C16.4265 14.2423 16.3474 14.0278 16.4188 13.8409L16.4313 13.8078C16.4805 13.6765 16.6063 13.5977 16.7465 13.5977C18.4499 13.5977 20.033 12.8311 21.0926 11.4922Z" fill="url(#paint0_linear_8016_14425)"/>
<defs>
<linearGradient id="paint0_linear_8016_14425" x1="25.6668" y1="14" x2="2.3335" y2="14" gradientUnits="userSpaceOnUse">
<stop stop-color="#B34ABD"/>
<stop offset="1" stop-color="#873ED4"/>
</linearGradient>
</defs>
</svg>
