<svg width="28" height="28" viewBox="0 0 28 28" fill="none" xmlns="http://www.w3.org/2000/svg">
<path d="M23.2101 15.528C23.0234 15.9713 22.4984 16.1813 22.0551 15.9946C21.6118 15.808 21.4018 15.2946 21.5884 14.8513C21.7284 14.513 22.0551 14.3146 22.3934 14.3146C22.5101 14.3146 22.6268 14.3263 22.7318 14.373C22.9534 14.4663 23.1168 14.6296 23.2101 14.8513C23.2918 15.073 23.2918 15.3063 23.2101 15.528ZM20.7134 16.5546C20.6318 16.7646 20.4568 16.9396 20.2468 17.0213C20.0251 17.1146 19.7918 17.1146 19.5701 17.0213C19.3601 16.9396 19.1851 16.7646 19.0917 16.543C19.0101 16.333 19.0101 16.088 19.0917 15.878C19.2317 15.5396 19.5701 15.3296 19.9084 15.3296C20.0251 15.3296 20.1301 15.353 20.2468 15.3996C20.4568 15.493 20.6318 15.6563 20.7251 15.878C20.8068 16.0996 20.8068 16.333 20.7251 16.5546H20.7134ZM22.1834 13.043C21.9968 13.4863 21.4834 13.6963 21.0284 13.5096C20.5851 13.323 20.3751 12.8096 20.5617 12.3663C20.6434 12.1446 20.8184 11.9813 21.0284 11.888C21.1451 11.8413 21.2501 11.818 21.3668 11.818C21.4834 11.818 21.6001 11.8413 21.7051 11.888C21.9268 11.9813 22.0901 12.1446 22.1834 12.3663C22.2651 12.5763 22.2651 12.8213 22.1834 13.043ZM19.6984 14.058C19.6051 14.2796 19.4301 14.4546 19.2201 14.5363C18.9984 14.6296 18.7651 14.6296 18.5434 14.5363C18.3334 14.443 18.1584 14.2796 18.0651 14.058C17.9834 13.848 17.9834 13.603 18.0651 13.393C18.1584 13.1713 18.3334 13.008 18.5434 12.9146C18.6601 12.868 18.7651 12.8446 18.8818 12.8446C18.9984 12.8446 19.1151 12.868 19.2201 12.9146C19.4301 13.008 19.6051 13.1713 19.6984 13.393C19.7801 13.603 19.7801 13.848 19.6984 14.058ZM12.5701 10.1496L12.0684 11.328L10.7618 10.7796L10.2134 12.098L9.02342 11.608L9.57175 10.2896L8.25342 9.7413L8.75508 8.56297L10.0618 9.1113L10.6101 7.79297L11.8001 8.28297L11.2518 9.6013L12.5701 10.1496Z" fill="url(#paint0_linear_8016_43869)"/>
<path fill-rule="evenodd" clip-rule="evenodd" d="M25.5203 13.0081C25.357 11.7481 25.0537 10.5931 24.6453 9.67148C24.2253 8.73815 23.6887 8.00315 22.942 7.68815C21.717 7.18648 20.7953 7.24481 20.0137 7.31481C19.372 7.36148 18.8237 7.40815 18.0653 7.17481L17.167 6.82481C16.4087 6.43981 16.047 6.00815 15.627 5.50648L15.6037 5.47148C15.102 4.87648 14.4953 4.17648 13.282 3.67481C12.5237 3.35981 11.6253 3.49981 10.6687 3.86148C9.72367 4.22315 8.69701 4.82981 7.68201 5.59981C5.66368 7.13981 3.71534 9.34481 2.74701 11.6548C2.35034 12.6115 2.23368 13.5565 2.42034 14.3848C2.60701 15.2131 3.12034 15.9248 3.92534 16.2631C6.04868 17.1498 8.03201 16.7181 9.72367 16.2398L9.89868 16.1931L10.1087 16.1348C11.6253 15.7148 12.897 15.3531 13.912 15.7848C14.927 16.2048 15.5687 17.3481 16.3387 18.7248C16.397 18.8415 16.467 18.9581 16.5253 19.0748C17.3887 20.6031 18.4853 22.3181 20.6087 23.1931C21.4137 23.5315 22.2887 23.3915 23.0003 22.9365C23.7237 22.4815 24.307 21.7348 24.7037 20.7781C25.6603 18.4681 25.847 15.5281 25.5203 13.0081ZM22.5337 22.2131C22.207 22.4115 21.892 22.5165 21.5653 22.5165C21.367 22.5165 21.157 22.4698 20.947 22.3881C19.092 21.6181 18.1237 20.1131 17.2953 18.6548C17.237 18.5381 17.1787 18.4331 17.1203 18.3281L17.0153 18.1298C16.2803 16.7881 15.5803 15.5281 14.2503 14.9681C12.9087 14.4081 11.532 14.8165 10.062 15.2365L9.98034 15.2598C9.81701 15.3065 9.64201 15.3531 9.47867 15.3998C7.85701 15.8548 6.11868 16.2281 4.26368 15.4465C3.72701 15.2365 3.41201 14.8165 3.27201 14.1981C3.13201 13.5681 3.23701 12.7865 3.56368 11.9931C4.35701 10.0681 6.15368 7.88648 8.23034 6.29981C9.19868 5.55315 10.1553 4.99315 10.9837 4.67815C11.777 4.37481 12.512 4.30481 12.9437 4.47981C13.9937 4.92315 14.4137 5.42481 14.9037 6.00815L14.927 6.03148C15.4053 6.59148 16.012 7.30315 17.2253 7.80481C17.237 7.80481 17.2487 7.80481 17.272 7.82815L17.342 7.86315C18.5087 8.30648 19.3953 8.23648 20.107 8.17815H20.142C20.9003 8.11981 21.5537 8.06148 22.6037 8.50481C23.0237 8.67981 23.4903 9.25148 23.8403 10.0215C24.202 10.8265 24.482 11.8998 24.6453 13.1248C24.9837 15.7031 24.692 18.5148 23.887 20.4398C23.5603 21.2331 23.082 21.8631 22.5337 22.2131Z" fill="url(#paint1_linear_8016_43869)"/>
<defs>
<linearGradient id="paint0_linear_8016_43869" x1="23.2713" y1="12.4421" x2="8.25342" y2="12.4421" gradientUnits="userSpaceOnUse">
<stop stop-color="#B34ABD"/>
<stop offset="1" stop-color="#873ED4"/>
</linearGradient>
<linearGradient id="paint1_linear_8016_43869" x1="25.6688" y1="13.4403" x2="2.3335" y2="13.4403" gradientUnits="userSpaceOnUse">
<stop stop-color="#B34ABD"/>
<stop offset="1" stop-color="#873ED4"/>
</linearGradient>
</defs>
</svg>
