<svg width="22" height="22" viewBox="0 0 22 22" fill="none" xmlns="http://www.w3.org/2000/svg">
<path fill-rule="evenodd" clip-rule="evenodd" d="M20.1304 4.5791H18.6018C18.8034 4.25944 18.9365 3.90062 18.9744 3.52113C19.0956 2.30835 18.458 1.22117 17.3726 0.739173C16.3748 0.296126 15.2536 0.47724 14.4462 1.21082L12.516 2.96321C12.1401 2.55134 11.5997 2.29249 11 2.29249C10.3992 2.29249 9.85794 2.55216 9.48195 2.9653L7.5493 1.21061C6.7406 0.477034 5.61981 0.296619 4.62251 0.73942C3.53732 1.22146 2.89961 2.30901 3.02118 3.52175C3.05921 3.90095 3.19218 4.2596 3.39377 4.5791H1.86955C1.11314 4.5791 0.5 5.19336 0.5 5.95106L0.5 8.00901C0.5 8.38784 0.806591 8.69501 1.1848 8.69501L20.8152 8.69501C21.1934 8.69501 21.5 8.38788 21.5 8.00901V5.95106C21.5 5.19336 20.8868 4.5791 20.1304 4.5791ZM8.94563 4.35045V4.5791L5.72415 4.5791C4.873 4.5791 4.20313 3.78422 4.41571 2.89648C4.50935 2.50553 4.79105 2.17227 5.15539 2.00356C5.6557 1.77191 6.2099 1.84628 6.6301 2.22729L8.94621 4.33023L8.94594 4.33877L8.94563 4.35045ZM17.6155 3.33899C17.5645 4.05199 16.9216 4.57918 16.2081 4.57918H13.0543V4.35053L13.054 4.33734L13.0538 4.32633L15.334 2.25588C15.6848 1.93733 16.1757 1.78863 16.6295 1.92422C17.2807 2.11881 17.6632 2.67358 17.6155 3.33899Z" fill="url(#paint0_linear_8016_38713)"/>
<path d="M1.86957 10.0669L1.86957 20.128C1.86957 20.8858 2.48271 21.5 3.23912 21.5H9.63041L9.63041 10.0669H1.86957Z" fill="url(#paint1_linear_8016_38713)"/>
<path d="M12.3696 21.5L12.3696 10.0669L20.1304 10.0669V20.128C20.1304 20.8858 19.5173 21.5 18.7609 21.5H12.3696Z" fill="url(#paint2_linear_8016_38713)"/>
<defs>
<linearGradient id="paint0_linear_8016_38713" x1="21.5" y1="11" x2="0.5" y2="11" gradientUnits="userSpaceOnUse">
<stop stop-color="#B34ABD"/>
<stop offset="1" stop-color="#873ED4"/>
</linearGradient>
<linearGradient id="paint1_linear_8016_38713" x1="21.5" y1="11" x2="0.5" y2="11" gradientUnits="userSpaceOnUse">
<stop stop-color="#B34ABD"/>
<stop offset="1" stop-color="#873ED4"/>
</linearGradient>
<linearGradient id="paint2_linear_8016_38713" x1="21.5" y1="11" x2="0.5" y2="11" gradientUnits="userSpaceOnUse">
<stop stop-color="#B34ABD"/>
<stop offset="1" stop-color="#873ED4"/>
</linearGradient>
</defs>
</svg>
