<svg width="22" height="22" viewBox="0 0 22 22" fill="none" xmlns="http://www.w3.org/2000/svg">
<path d="M5.06133 13.2266L4.31874 15.9988L1.60459 16.0562C0.793461 14.5517 0.333374 12.8304 0.333374 11.0012C0.333374 9.23244 0.763544 7.56442 1.52605 6.0957H1.52663L3.94299 6.53871L5.00149 8.94056C4.77995 9.58644 4.6592 10.2798 4.6592 11.0012C4.65928 11.7842 4.80112 12.5345 5.06133 13.2266Z" fill="#FBBB00"/>
<path d="M21.4802 9.00781C21.6027 9.65307 21.6666 10.3194 21.6666 11.0005C21.6666 11.7642 21.5863 12.5091 21.4334 13.2276C20.9141 15.6728 19.5573 17.8079 17.6778 19.3188L17.6772 19.3182L14.6337 19.1629L14.2029 16.474C15.4501 15.7425 16.4247 14.5979 16.9382 13.2276H11.2344V9.00781H17.0214H21.4802Z" fill="#518EF8"/>
<path d="M17.677 19.3189L17.6776 19.3195C15.8497 20.7888 13.5275 21.6679 10.9998 21.6679C6.93762 21.6679 3.40589 19.3974 1.60425 16.0562L5.06098 13.2266C5.96178 15.6307 8.28093 17.3421 10.9998 17.3421C12.1684 17.3421 13.2633 17.0261 14.2027 16.4746L17.677 19.3189Z" fill="#28B446"/>
<path d="M17.8088 2.78967L14.3532 5.61869C13.3809 5.01094 12.2315 4.65985 11.0002 4.65985C8.2198 4.65985 5.85728 6.44974 5.00161 8.94005L1.52671 6.0952H1.52612C3.30139 2.67246 6.87767 0.333984 11.0002 0.333984C13.5883 0.333984 15.9614 1.25591 17.8088 2.78967Z" fill="#F14336"/>
</svg>
