<svg width="33" height="33" viewBox="0 0 33 33" fill="none" xmlns="http://www.w3.org/2000/svg">
<path fill-rule="evenodd" clip-rule="evenodd" d="M10.15 9.0924H9.99432C9.78683 9.0924 9.57929 8.94425 9.47545 8.7468C9.37168 8.40108 9.31982 8.00605 9.31982 7.61097C9.31982 5.1418 11.3949 3.1665 13.9888 3.1665C16.5826 3.1665 18.6577 5.1418 18.6577 7.61097C18.6577 7.95663 18.6058 8.35171 18.5021 8.69737C18.4502 8.94425 18.1389 9.14182 17.8795 9.04303C17.6202 8.99367 17.4126 8.69737 17.5164 8.45044C17.523 8.41301 17.5295 8.37637 17.536 8.34032C17.5806 8.09097 17.6202 7.86978 17.6202 7.61091C17.6202 5.68498 16.012 4.15412 13.9888 4.15412C11.9656 4.15412 10.3574 5.68498 10.3574 7.61091C10.3574 7.90686 10.4092 8.20281 10.461 8.49877L10.4612 8.4998C10.565 8.74674 10.4094 9.04304 10.15 9.0924ZM23.5342 14.5245C23.8974 14.2282 24.3643 14.0307 24.8831 14.0307C26.2318 14.0307 27.1656 15.3146 27.1654 16.4998V23.3641V23.3641C27.1654 26.5246 27.1654 26.6234 26.1278 27.8579C25.9722 28.0554 25.8165 28.253 25.6091 28.4999V29.3394C25.6091 29.6357 25.4016 29.8332 25.0903 29.8332C24.779 29.8332 24.5716 29.6357 24.5716 29.3394V28.3517C24.5716 28.2531 24.6233 28.1545 24.675 28.0559L24.6753 28.0554C24.9347 27.7097 25.1422 27.4628 25.3497 27.2653C26.1797 26.327 26.1797 26.327 26.1797 23.364L26.1279 16.4998C26.1279 15.8085 25.6091 15.0184 24.8828 15.0184C24.2084 15.0184 23.534 15.7591 23.534 16.4998V18.4751C23.534 18.7714 23.3265 18.9689 23.0152 18.9689C22.704 18.9689 22.4965 18.7714 22.4965 18.4751V14.5245C22.4965 13.8331 21.9777 13.043 21.2514 13.043C20.577 13.043 19.9026 13.7837 19.9026 14.5245V17.4875C19.9026 17.7838 19.6951 17.9813 19.3839 17.9813C19.0726 17.9813 18.8651 17.7838 18.8651 17.4875V12.5492C18.8651 11.8578 18.3464 11.0677 17.6201 11.0677C16.9456 11.0677 16.2712 11.8084 16.2712 12.5492V16.9936C16.2712 17.2899 16.0638 17.4875 15.7525 17.4875C15.4412 17.4875 15.2337 17.2899 15.2337 16.9936V7.61091C15.2337 6.91953 14.715 6.12942 13.9887 6.12942C13.3143 6.12942 12.6399 6.87017 12.6399 7.61091V19.9566C12.6399 20.2529 12.4324 20.4504 12.1211 20.4504C11.8099 20.4504 11.6024 20.2529 11.6024 19.9566C11.6024 18.7221 10.4611 16.0554 9.21605 14.8702C8.64544 14.327 7.60788 14.327 7.14098 14.6727C6.67409 15.0677 7.08913 15.8085 7.40039 16.2035C8.5416 17.7151 9.0659 20.5819 9.42712 22.5571C9.44355 22.6469 9.45965 22.7349 9.47545 22.8209L9.57923 23.3147C10.2623 27.0306 12.3682 27.732 12.7024 27.8433C12.7235 27.8503 12.7375 27.855 12.7437 27.8579C13.0031 27.9073 13.1587 28.1048 13.1587 28.3517V29.3393C13.1587 29.6356 12.9513 29.8331 12.64 29.8331C12.3287 29.8331 12.1212 29.6356 12.1212 29.3393V28.6973C11.2393 28.3517 9.21611 27.1665 8.54172 23.5121L8.43795 23.0183L8.4285 22.9643C8.1162 21.1801 7.59699 18.2138 6.51852 16.7961C5.22155 15.1171 6.10348 14.1788 6.41475 13.9319C7.34853 13.1911 8.9567 13.2899 9.89049 14.1788C10.5649 14.7714 11.1355 15.6109 11.6024 16.4998V7.61091C11.6024 6.42572 12.6399 5.14174 13.9888 5.14174C15.3376 5.14174 16.2714 6.42572 16.2714 7.61091V10.5738C16.6345 10.2775 17.1014 10.08 17.6202 10.08C18.969 10.08 19.9028 11.3639 19.9028 12.5491C20.266 12.2528 20.7329 12.0553 21.2516 12.0553C22.6004 12.0553 23.5342 13.3393 23.5342 14.5245Z" fill="#FF9202"/>
</svg>
