<svg width="20" height="20" viewBox="0 0 20 20" fill="none" xmlns="http://www.w3.org/2000/svg">
<path d="M18.332 9.98505V10.001C18.332 14.6031 14.6011 18.3337 9.99865 18.3337C8.01099 18.3337 6.18514 17.6378 4.75308 16.476L4.76836 16.4885C4.5857 16.3392 4.46972 16.1142 4.46972 15.8621C4.46972 15.6392 4.56001 15.4378 4.70655 15.2913L5.08505 14.9128C5.23159 14.7656 5.43439 14.6739 5.65871 14.6739C5.84761 14.6739 6.02124 14.7385 6.15875 14.8475L6.15736 14.8462C7.20189 15.6795 8.54089 16.183 9.99796 16.183C13.4128 16.183 16.1811 13.4149 16.1811 10.0003C16.1811 6.58574 13.4128 3.81769 9.99796 3.81769C8.35755 3.81769 6.86645 4.45658 5.76011 5.49824L5.76358 5.49546L7.46928 7.20102C7.56651 7.29824 7.62623 7.43296 7.62623 7.58088C7.62623 7.87741 7.38594 8.11838 7.08869 8.11838H2.20356C1.90631 8.11838 1.66602 7.87741 1.66602 7.58088L1.66602 2.69616C1.66602 2.39963 1.90701 2.15866 2.20356 2.15866C2.35218 2.15866 2.48622 2.21908 2.58345 2.3156L4.24262 3.97463C5.7358 2.54616 7.76513 1.66699 9.99935 1.66699C14.5963 1.66699 18.3244 5.38921 18.3327 9.98366V9.98435L18.332 9.98505ZM12.253 12.6316L12.5829 12.2073C12.6885 12.0719 12.7524 11.8996 12.7524 11.7121C12.7524 11.4538 12.6315 11.2246 12.4426 11.0767L12.4405 11.0753L11.073 10.0114V6.50588C11.073 6.06074 10.7119 5.69894 10.266 5.69894H9.72849C9.28332 5.69894 8.92148 6.06005 8.92148 6.50588V11.0614L11.1196 12.7705C11.255 12.8774 11.4286 12.942 11.6168 12.942C11.8745 12.942 12.1037 12.8212 12.2516 12.6337L12.253 12.6316Z" fill="url(#paint0_linear_8074_26490)"/>
<defs>
<linearGradient id="paint0_linear_8074_26490" x1="18.3327" y1="10.0003" x2="1.66602" y2="10.0003" gradientUnits="userSpaceOnUse">
<stop stop-color="#B34ABD"/>
<stop offset="1" stop-color="#873ED4"/>
</linearGradient>
</defs>
</svg>
