<svg width="20" height="20" viewBox="0 0 20 20" fill="none" xmlns="http://www.w3.org/2000/svg">
<path d="M18.3339 9.98407V10C18.3339 14.6021 14.6031 18.3327 10.0006 18.3327C8.01294 18.3327 6.1871 17.6369 4.75503 16.475L4.77031 16.4875C4.58766 16.3382 4.47167 16.1132 4.47167 15.8612C4.47167 15.6382 4.56196 15.4368 4.7085 15.2903L5.087 14.9118C5.23354 14.7646 5.43634 14.673 5.66066 14.673C5.84957 14.673 6.02319 14.7375 6.1607 14.8466L6.15932 14.8452C7.20385 15.6785 8.54285 16.182 9.99991 16.182C13.4148 16.182 16.1831 13.4139 16.1831 9.99935C16.1831 6.58477 13.4148 3.81671 9.99991 3.81671C8.3595 3.81671 6.8684 4.4556 5.76206 5.49727L5.76553 5.49449L7.47123 7.20004C7.56846 7.29727 7.62819 7.43199 7.62819 7.5799C7.62819 7.87643 7.38789 8.1174 7.09064 8.1174H2.20551C1.90827 8.1174 1.66797 7.87643 1.66797 7.5799L1.66797 2.69518C1.66797 2.39865 1.90896 2.15768 2.20551 2.15768C2.35414 2.15768 2.48818 2.2181 2.58541 2.31463L4.24457 3.97365C5.73775 2.54518 7.76709 1.66602 10.0013 1.66602C14.5982 1.66602 18.3263 5.38824 18.3346 9.98268V9.98338L18.3339 9.98407ZM12.255 12.6306L12.5849 12.2063C12.6904 12.0709 12.7543 11.8987 12.7543 11.7112C12.7543 11.4528 12.6335 11.2237 12.4446 11.0757L12.4425 11.0743L11.075 10.0105V6.5049C11.075 6.05977 10.7139 5.69796 10.268 5.69796H9.73045C9.28527 5.69796 8.92343 6.05907 8.92343 6.5049V11.0605L11.1215 12.7695C11.257 12.8764 11.4306 12.941 11.6188 12.941C11.8765 12.941 12.1056 12.8202 12.2536 12.6327L12.255 12.6306Z" fill="#7A93CC"/>
</svg>
