<svg width="28" height="28" viewBox="0 0 28 28" fill="none" xmlns="http://www.w3.org/2000/svg">
<path d="M25.6317 13.6882V14.2362C25.6317 14.2362 25.5967 14.2945 25.5967 14.3178C25.3752 15.4253 24.5475 16.1015 23.4283 16.1015C23.335 16.1015 23.2417 16.1015 23.1368 16.1015V16.4163C23.1368 18.6081 23.1368 20.7998 23.1368 22.9916C23.1368 24.5421 22.0642 25.6147 20.5253 25.6147C19.3712 25.6147 18.217 25.6147 17.0628 25.6147C16.4682 25.6147 16.2234 25.3582 16.2234 24.7637C16.2234 23.0149 16.2234 21.2778 16.2234 19.529C16.2234 18.7713 15.7454 18.2933 14.9876 18.2933C14.3348 18.2933 13.6819 18.2933 13.029 18.2933C12.2013 18.2933 11.7466 18.7479 11.7466 19.5757C11.7466 21.3244 11.7466 23.0615 11.7466 24.8103C11.7466 25.3465 11.4785 25.6147 10.9539 25.6147C9.77636 25.6147 8.59887 25.6147 7.42138 25.6147C7.19987 25.6147 6.97836 25.5914 6.76851 25.5447C5.60268 25.2649 4.83323 24.2856 4.83323 23.0615C4.83323 20.8348 4.83323 18.6197 4.83323 16.3929C4.83323 16.2997 4.83323 16.2181 4.83323 16.1132C4.68167 16.1132 4.55343 16.1132 4.42519 16.1132C3.64408 16.0782 3.03785 15.7168 2.62981 15.0522C2.11684 14.1895 2.28006 13.1519 3.03785 12.3942C6.03404 9.39796 9.04189 6.40177 12.0381 3.39392C12.5161 2.91593 12.9941 2.46125 13.6819 2.33301H14.3231C14.9993 2.47291 15.4773 2.91595 15.9553 3.38229C18.8349 6.28521 21.7261 9.17644 24.6291 12.056C25.1071 12.534 25.5501 13.0237 25.6667 13.7115L25.6317 13.6882Z"/>
</svg>
