<svg width="24" height="24" viewBox="0 0 24 24" fill="none" xmlns="http://www.w3.org/2000/svg">
<path d="M23.6319 11.6887V12.2367C23.6319 12.2367 23.5969 12.2949 23.5969 12.3183C23.3754 13.4258 22.5476 14.102 21.4284 14.102C21.3352 14.102 21.2419 14.102 21.137 14.102V14.4168C21.137 16.6085 21.137 18.8003 21.137 20.9921C21.137 22.5426 20.0644 23.6152 18.5255 23.6152C17.3713 23.6152 16.2172 23.6152 15.063 23.6152C14.4684 23.6152 14.2236 23.3587 14.2236 22.7641C14.2236 21.0154 14.2236 19.2783 14.2236 17.5295C14.2236 16.7717 13.7456 16.2938 12.9878 16.2938C12.3349 16.2938 11.6821 16.2938 11.0292 16.2938C10.2015 16.2938 9.74678 16.7484 9.74678 17.5762C9.74678 19.3249 9.74678 21.062 9.74678 22.8108C9.74678 23.347 9.47864 23.6152 8.95402 23.6152C7.77653 23.6152 6.59903 23.6152 5.42154 23.6152C5.20004 23.6152 4.97853 23.5919 4.76868 23.5452C3.60284 23.2654 2.83339 22.2861 2.83339 21.062C2.83339 18.8353 2.83339 16.6202 2.83339 14.3934C2.83339 14.3002 2.83339 14.2186 2.83339 14.1136C2.68184 14.1136 2.55359 14.1136 2.42535 14.1136C1.64424 14.0787 1.03801 13.7173 0.62997 13.0527C0.117004 12.19 0.28022 11.1524 1.03801 10.3946C4.0342 7.39845 7.04205 4.40226 10.0382 1.39441C10.5162 0.916417 10.9942 0.461738 11.6821 0.333496H12.3233C12.9995 0.473396 13.4774 0.916441 13.9554 1.38277C16.835 4.2857 19.7263 7.17693 22.6292 10.0565C23.1072 10.5345 23.5502 11.0242 23.6668 11.712L23.6319 11.6887Z" fill="url(#paint0_linear_8016_42595)"/>
<defs>
<linearGradient id="paint0_linear_8016_42595" x1="23.6668" y1="11.9743" x2="0.333496" y2="11.9743" gradientUnits="userSpaceOnUse">
<stop stop-color="#B34ABD"/>
<stop offset="1" stop-color="#873ED4"/>
</linearGradient>
</defs>
</svg>
