<svg width="32" height="32" viewBox="0 0 32 32" fill="none" xmlns="http://www.w3.org/2000/svg">
<path fill-rule="evenodd" clip-rule="evenodd" d="M27.6664 13.0832H4.33327C3.58578 13.0832 2.92995 12.5857 2.7287 11.8657C2.52662 11.1461 2.82954 10.3798 3.46828 9.99192L15.1348 2.90859C15.4007 2.74692 15.7003 2.6665 15.9998 2.6665C16.2994 2.6665 16.599 2.74692 16.8652 2.90859L28.5318 9.99192C29.1705 10.3798 29.473 11.1457 29.2714 11.8657C29.0697 12.5857 28.4139 13.0832 27.6664 13.0832ZM17 16.398C17 15.5798 17.6633 14.9165 18.4815 14.9165H18.8519C19.6701 14.9165 20.3333 15.5798 20.3333 16.398V22.5184C20.3333 23.3366 19.6701 23.9998 18.8519 23.9998H18.4815C17.6633 23.9998 17 23.3366 17 22.5184V16.398ZM25.3333 16.398C25.3333 15.5798 24.67 14.9165 23.8518 14.9165H23.4815C22.6633 14.9165 22 15.5798 22 16.398V22.5184C22 23.3366 22.6633 23.9998 23.4815 23.9998H23.8518C24.67 23.9998 25.3333 23.3366 25.3333 22.5184V16.398ZM12.0001 16.398C12.0001 15.5798 12.6634 14.9165 13.4816 14.9165H13.8519C14.6701 14.9165 15.3334 15.5798 15.3334 16.398V22.5184C15.3334 23.3366 14.6701 23.9998 13.8519 23.9998H13.4816C12.6634 23.9998 12.0001 23.3366 12.0001 22.5184V16.398ZM10.3334 16.398C10.3334 15.5798 9.67015 14.9165 8.85195 14.9165H8.48161C7.66341 14.9165 7.00013 15.5798 7.00013 16.398V22.5184C7.00013 23.3366 7.66341 23.9998 8.48161 23.9998H8.85195C9.67015 23.9998 10.3334 23.3366 10.3334 22.5184V16.398ZM28.8431 27.9608C29.3215 28.6246 28.6698 29.3332 27.8516 29.3332H4.21019C3.39199 29.3332 2.71041 28.6289 3.12624 27.9242C3.79703 26.7875 5.22668 25.9998 6.71421 25.9998H25.3333C26.3123 25.9998 28.0099 26.8044 28.8431 27.9608Z" fill="url(#paint0_linear_8001_2011)"/>
<defs>
<linearGradient id="paint0_linear_8001_2011" x1="16" y1="2.6665" x2="16" y2="29.3332" gradientUnits="userSpaceOnUse">
<stop stop-color="#FFB400"/>
<stop offset="1" stop-color="#FF4800"/>
</linearGradient>
</defs>
</svg>
