<svg width="28" height="28" viewBox="0 0 28 28" fill="none" xmlns="http://www.w3.org/2000/svg">
<path fill-rule="evenodd" clip-rule="evenodd" d="M14.0002 4.12837C8.54812 4.12837 4.12837 8.54812 4.12837 14.0002C4.12837 19.4522 8.54812 23.872 14.0002 23.872C19.4522 23.872 23.872 19.4522 23.872 14.0002C23.872 8.54812 19.4522 4.12837 14.0002 4.12837ZM2.3335 14.0002C2.3335 7.55684 7.55684 2.3335 14.0002 2.3335C20.4435 2.3335 25.6668 7.55684 25.6668 14.0002C25.6668 20.4435 20.4435 25.6668 14.0002 25.6668C7.55684 25.6668 2.3335 20.4435 2.3335 14.0002Z" fill="url(#paint0_linear_8016_37440)"/>
<path fill-rule="evenodd" clip-rule="evenodd" d="M14.0002 19.0856C14.4958 19.0856 14.8976 18.6838 14.8976 18.1882L14.8976 13.4019C14.8976 12.9062 14.4958 12.5044 14.0002 12.5044C13.5045 12.5044 13.1027 12.9062 13.1027 13.4019L13.1027 18.1882C13.1027 18.6838 13.5045 19.0856 14.0002 19.0856Z" fill="url(#paint1_linear_8016_37440)"/>
<path d="M15.1967 9.81213C15.1967 9.15128 14.661 8.61555 14.0002 8.61555C13.3393 8.61555 12.8036 9.15128 12.8036 9.81213C12.8036 10.473 13.3393 11.0087 14.0002 11.0087C14.661 11.0087 15.1967 10.473 15.1967 9.81213Z" fill="url(#paint2_linear_8016_37440)"/>
<defs>
<linearGradient id="paint0_linear_8016_37440" x1="25.6668" y1="14.0002" x2="2.3335" y2="14.0002" gradientUnits="userSpaceOnUse">
<stop stop-color="#B34ABD"/>
<stop offset="1" stop-color="#873ED4"/>
</linearGradient>
<linearGradient id="paint1_linear_8016_37440" x1="25.6668" y1="14.0002" x2="2.3335" y2="14.0002" gradientUnits="userSpaceOnUse">
<stop stop-color="#B34ABD"/>
<stop offset="1" stop-color="#873ED4"/>
</linearGradient>
<linearGradient id="paint2_linear_8016_37440" x1="25.6668" y1="14.0002" x2="2.3335" y2="14.0002" gradientUnits="userSpaceOnUse">
<stop stop-color="#B34ABD"/>
<stop offset="1" stop-color="#873ED4"/>
</linearGradient>
</defs>
</svg>
