<svg width="24" height="24" viewBox="0 0 24 24" fill="none" xmlns="http://www.w3.org/2000/svg">
<g clip-path="url(#clip0_4770_52197)">
<path fill-rule="evenodd" clip-rule="evenodd" d="M8.86828 3.33168C8.63632 3.40227 8.39106 3.27041 8.32102 3.03816C8.25097 2.8059 8.38241 2.56052 8.61509 2.4906C9.26623 2.29415 9.95665 2.15446 10.6666 2.0749C11.9505 1.93059 13.2311 2.04065 14.4719 2.40219C18.2313 3.49761 20.955 6.71855 21.4112 10.608C21.5875 12.1102 21.5261 13.5254 21.2112 15.1966C21.1664 15.4352 20.9369 15.5916 20.6983 15.5467C20.6839 15.5444 20.6698 15.5407 20.6563 15.5368C20.4417 15.4743 20.3056 15.258 20.3481 15.0338C20.6455 13.4541 20.7041 12.1209 20.5386 10.7101C20.1241 7.17237 17.646 4.24217 14.2261 3.24567C13.0971 2.9167 11.9329 2.81678 10.7641 2.94794C10.1062 3.02161 9.46871 3.15066 8.86828 3.33168ZM12.1866 11.6894C12.1992 11.7955 12.4637 14.3736 10.0556 21.6804C9.98118 21.9058 9.7417 22.0304 9.51565 21.9646L9.50088 21.9603C9.27042 21.8844 9.14512 21.6361 9.22097 21.4056C11.548 14.346 11.3163 11.8137 11.3138 11.7892C11.2883 11.5484 11.4617 11.3317 11.7019 11.3052C11.9429 11.2789 12.1587 11.4493 12.1866 11.6894ZM7.34683 3.43878C7.23162 3.22493 6.96527 3.14503 6.75184 3.26037C4.59842 4.42147 3.03301 6.36747 2.22454 8.88772C1.76644 10.3154 1.53966 11.9464 1.55039 13.7358C1.55146 13.9347 1.68479 14.1021 1.86656 14.155C1.90662 14.1667 1.94883 14.1726 1.99234 14.1725C2.23485 14.1708 2.43067 13.973 2.42904 13.7305C2.41867 12.0341 2.63146 10.4952 3.06097 9.15614C3.80933 6.82337 5.1914 5.09984 7.16843 4.03377C7.38186 3.91843 7.46175 3.65208 7.34683 3.43878ZM18.3895 13.6826C18.4737 13.0075 18.5013 12.3773 18.4743 11.7554C18.3576 9.08589 16.2454 6.16436 13.8608 5.37711C12.9331 5.06838 11.9704 4.96952 11.0026 5.07825C8.3283 5.37791 6.1007 7.23483 5.32719 9.80781C5.14438 10.4148 5.04924 11.0459 5.0447 11.6834C5.04215 12.0894 5.0341 12.5222 4.97366 12.9557C4.85452 13.8137 4.54203 15.3808 3.72842 17.9704C3.65638 18.1988 3.41495 18.327 3.18637 18.2604L3.17751 18.2578C2.94619 18.185 2.81762 17.9384 2.8901 17.7069C3.6859 15.1752 3.98926 13.6599 4.10394 12.8345C4.15692 12.4532 4.16402 12.0536 4.16671 11.6769C4.17236 10.9556 4.27976 10.2416 4.48634 9.55457C5.36148 6.64379 7.88132 4.54396 10.9053 4.2048C12.0004 4.08146 13.0862 4.19467 14.1375 4.54218C16.8799 5.44878 19.2195 8.66717 19.3521 11.7169C19.3815 12.3885 19.3517 13.0671 19.2616 13.7912C19.0427 15.5425 18.474 17.5273 17.6275 20.1623C17.5544 20.3894 17.3144 20.5162 17.0866 20.4498L17.0748 20.4464C16.8438 20.3722 16.7169 20.1248 16.7911 19.8938C17.622 17.3074 18.1795 15.366 18.3895 13.6826ZM10.2957 7.41943C10.5252 7.34128 10.6479 7.09151 10.5697 6.86193C10.4915 6.63277 10.2418 6.50969 10.0122 6.58784C8.4222 7.12977 7.18942 8.43513 6.63004 10.1696L6.62967 10.1709C6.43604 10.771 6.33186 11.3986 6.31998 12.033C6.31961 12.0342 6.31915 12.0767 6.3192 12.078C6.29485 13.5026 5.69259 16.0752 4.62272 19.3213C4.54687 19.5518 4.67217 19.8002 4.90263 19.876L4.9174 19.8803C5.14345 19.9462 5.38293 19.8215 5.4573 19.5961C6.57003 16.2201 7.17187 13.6255 7.19832 12.0524C7.2085 11.5008 7.29841 10.9582 7.46585 10.4401L7.4661 10.4393C7.93894 8.97198 8.97032 7.87103 10.2957 7.41943ZM14.4735 21.5489L14.4588 21.5446C14.2284 21.4683 14.1031 21.2199 14.1783 20.9888C15.5096 16.9504 16.1315 14.8507 16.2964 13.0869L16.2966 13.086C16.3576 12.4339 16.352 11.8201 16.2807 11.2091C16.0672 9.38532 14.7898 7.8747 13.0265 7.36091C12.7097 7.26862 12.3839 7.21074 12.058 7.189C11.8159 7.17198 11.6328 6.96351 11.6494 6.72127C11.6659 6.47945 11.8747 6.29644 12.1171 6.31262C12.5058 6.33848 12.8948 6.40744 13.2726 6.51755C15.3755 7.13027 16.8986 8.93162 17.1537 11.107C17.2327 11.7798 17.2387 12.4532 17.1721 13.1668L17.1718 13.1681C16.9991 15.017 16.3663 17.1602 15.0134 21.2646C14.9391 21.49 14.6996 21.6147 14.4735 21.5489ZM12.9071 19.4333L12.9041 19.4325C12.6726 19.365 12.4296 19.4969 12.3603 19.7284C12.2797 19.9986 12.1946 20.2767 12.1052 20.5632C12.0331 20.7947 12.1622 21.041 12.3937 21.1135L12.4021 21.1159C12.6311 21.1827 12.8727 21.054 12.9444 20.8251C13.0347 20.5357 13.121 20.2538 13.2025 19.9802C13.2717 19.7473 13.1394 19.5028 12.9071 19.4333ZM11.5206 9.69305C10.7161 9.78303 10.0359 10.3416 9.7869 11.116C9.70379 11.3745 9.67348 11.6434 9.69583 11.9153C9.70536 12.2045 9.71855 14.7125 7.67956 20.8984C7.60518 21.1238 7.3657 21.2485 7.13965 21.1826L7.12489 21.1783C6.89442 21.1025 6.76912 20.8541 6.84497 20.6236C8.87115 14.4771 8.82203 12.0656 8.81906 11.966C8.78747 11.6017 8.8313 11.2173 8.95005 10.8474C9.30435 9.74457 10.2747 8.94887 11.4222 8.82019C11.811 8.77655 12.1981 8.80971 12.5726 8.91883C13.7087 9.24989 14.5319 10.2232 14.6699 11.3986C14.6886 11.5559 14.7259 11.8752 14.7137 12.4212C14.6813 13.8498 14.3284 15.865 13.6921 18.2496C13.6294 18.4839 13.3888 18.6234 13.1545 18.5606L13.1448 18.5578C12.9166 18.4913 12.7818 18.2539 12.8435 18.023C13.6246 15.0944 13.8138 13.349 13.8351 12.4012C13.8463 11.92 13.814 11.6424 13.7984 11.5077L13.798 11.5046C13.7012 10.6766 13.124 9.99415 12.3273 9.76202C12.065 9.68558 11.7936 9.66232 11.5206 9.69305Z" fill="white"/>
</g>
<defs>
<clipPath id="clip0_4770_52197">
<rect width="24" height="24" fill="white"/>
</clipPath>
</defs>
</svg>
