<svg width="41" height="41" viewBox="0 0 41 41" fill="none" xmlns="http://www.w3.org/2000/svg">
<path fill-rule="evenodd" clip-rule="evenodd" d="M7.41671 20.4997C7.41671 13.1359 13.3862 7.16634 20.75 7.16634C28.1138 7.16634 34.0834 13.1359 34.0834 20.4997C34.0834 27.8635 28.1138 33.833 20.75 33.833C13.3862 33.833 7.41671 27.8635 7.41671 20.4997ZM20.75 3.83301C11.5453 3.83301 4.08337 11.2949 4.08337 20.4997C4.08337 29.7044 11.5453 37.1663 20.75 37.1663C29.9548 37.1663 37.4167 29.7044 37.4167 20.4997C37.4167 11.2949 29.9548 3.83301 20.75 3.83301ZM20.8846 10.6111C20.7501 10.7349 20.7501 10.9343 20.7501 11.333V20.0185C20.7501 20.2534 20.7501 20.3707 20.6942 20.4675C20.6384 20.5642 20.5367 20.6229 20.3334 20.7402L12.8115 25.083L12.8115 25.083C12.4662 25.2824 12.2935 25.382 12.2536 25.5605C12.2137 25.7389 12.3212 25.8937 12.5361 26.2032C13.3745 27.4107 14.471 28.4215 15.7501 29.16C17.2703 30.0377 18.9947 30.4997 20.7501 30.4997C22.5054 30.4997 24.2299 30.0377 25.7501 29.16C27.2702 28.2822 28.5326 27.0199 29.4104 25.4997C30.2881 23.9795 30.7501 22.255 30.7501 20.4997C30.7501 18.7444 30.2881 17.0199 29.4104 15.4997C28.5326 13.9795 27.2702 12.7171 25.7501 11.8394C24.4711 11.101 23.0474 10.6568 21.5824 10.5344L21.5823 10.5344C21.2069 10.503 21.0192 10.4873 20.8846 10.6111Z" fill="#7E00FF"/>
</svg>
