<svg width="60" height="60" viewBox="0 0 60 60" fill="none" xmlns="http://www.w3.org/2000/svg">
<rect x="1" y="1" width="58" height="58" rx="29" stroke="url(#paint0_linear_188_72533)" stroke-width="2"/>
<path fill-rule="evenodd" clip-rule="evenodd" d="M33.1386 18C30.9046 18 29.007 19.4034 28.2643 21.3724C31.0798 22.0129 33.1897 24.5314 33.1897 27.5381C33.1897 27.8357 33.1619 28.1279 33.1216 28.4172C33.1243 28.4173 33.127 28.4175 33.1298 28.4177C33.1312 28.4179 33.1327 28.418 33.1342 28.4181C33.1357 28.4182 33.1371 28.4182 33.1386 28.4182C34.7969 28.4182 36.2718 27.6436 37.2233 26.4407C37.9234 25.5504 38.3447 24.4291 38.3447 23.2058C38.3447 20.3311 36.0135 18 33.1386 18ZM21.7307 27.5623C21.7307 24.7159 24.039 22.4078 26.8924 22.4078C29.7391 22.4078 32.0475 24.7159 32.0475 27.5623C32.0475 28.7736 31.6302 29.8839 30.937 30.7654C29.9948 31.9565 28.5345 32.7236 26.8924 32.7236C25.2504 32.7236 23.7832 31.9565 22.8411 30.7654C22.1479 29.8839 21.7307 28.7736 21.7307 27.5623ZM31.8286 31.4663C31.9583 31.3012 32.1792 31.2334 32.3675 31.3265C35.1449 32.6997 37.0564 35.56 37.0564 38.8671V39.778C37.0564 41.0052 36.0615 42 34.8342 42H18.8889C17.6616 42 16.6666 41.0052 16.6666 39.778V38.8671C16.6666 35.5602 18.5729 32.7051 21.3485 31.329C21.5375 31.2353 21.7594 31.3032 21.8898 31.4691C23.0985 32.9966 24.9105 33.8726 26.8617 33.8726C28.8085 33.8726 30.6177 32.9965 31.8286 31.4663ZM38.1056 27.1339C38.2353 26.9688 38.4562 26.901 38.6444 26.9941C41.4219 28.3673 43.3333 31.2276 43.3333 34.5347V35.4456C43.3333 36.6728 42.3384 37.6676 41.1111 37.6676H40.0551C38.9362 37.6676 38.0182 36.8224 37.6532 35.7648C36.8596 33.4651 35.2016 31.5173 32.9766 30.3809C32.7729 30.2769 32.6825 30.0318 32.7641 29.8182L32.7784 29.7803C32.8346 29.6303 32.9784 29.5402 33.1386 29.5402C35.0854 29.5402 36.8947 28.6641 38.1056 27.1339Z" fill="url(#paint1_linear_188_72533)"/>
<defs>
<linearGradient id="paint0_linear_188_72533" x1="60" y1="30" x2="1.10114e-07" y2="30" gradientUnits="userSpaceOnUse">
<stop stop-color="#B34ABD"/>
<stop offset="1" stop-color="#873ED4"/>
</linearGradient>
<linearGradient id="paint1_linear_188_72533" x1="43.3333" y1="30" x2="16.6666" y2="30" gradientUnits="userSpaceOnUse">
<stop stop-color="#B34ABD"/>
<stop offset="1" stop-color="#873ED4"/>
</linearGradient>
</defs>
</svg>
