<svg width="20" height="21" viewBox="0 0 20 21" fill="none" xmlns="http://www.w3.org/2000/svg">
<path fill-rule="evenodd" clip-rule="evenodd" d="M14.7426 13.1555L13.6932 12.0911C13.403 11.7984 13.4056 11.3253 13.699 11.0344C13.9924 10.7435 14.4655 10.7449 14.7557 11.0375L15.7943 12.0849C16.0473 12.3401 16.1738 12.4677 16.3332 12.4648C16.4926 12.4619 16.6125 12.3325 16.8523 12.0736C17.7981 11.053 18.2723 10.318 18.2769 9.46765C18.2816 8.61529 17.8133 7.87606 16.8743 6.84598C16.6882 6.64171 16.5951 6.53953 16.4936 6.51044C16.3921 6.48131 16.165 6.54467 15.7106 6.67129C15.2061 6.81194 14.643 6.68312 14.2488 6.28552C13.8546 5.88792 13.7305 5.32382 13.8754 4.82049C14.0059 4.36724 14.0712 4.14063 14.0429 4.03891C14.0147 3.93718 13.9133 3.84322 13.7106 3.65531C12.6885 2.70763 11.9533 2.23314 11.1009 2.23061C10.1758 2.22783 9.38254 2.78185 8.20462 3.89108C8.05266 4.03417 8.04953 4.27426 8.19613 4.4221L9.50124 5.73833C9.79144 6.031 9.78881 6.50413 9.49544 6.79501C9.20203 7.08595 8.72894 7.08452 8.43875 6.79185L7.1205 5.47012C6.97528 5.32451 6.73931 5.32415 6.59295 5.46928L4.73283 7.31369C2.72939 9.30021 1.72767 10.2935 1.72088 11.5314C1.7162 12.3838 2.18445 13.123 3.1234 14.1531C3.30961 14.3574 3.40271 14.4595 3.50419 14.4887C3.60568 14.5178 3.83283 14.4544 4.28714 14.3278C4.79167 14.1872 5.35471 14.316 5.74895 14.7136C6.14319 15.1112 6.26723 15.6753 6.12231 16.1786C5.99187 16.6319 5.9266 16.8584 5.95486 16.9602C5.98309 17.0619 6.08447 17.1559 6.28713 17.3438C7.30924 18.2915 8.04446 18.766 8.89681 18.7685C10.1348 18.7722 11.1365 17.779 13.14 15.7924L14.7352 14.2106C14.985 13.963 15.1099 13.8391 15.111 13.6847C15.112 13.5303 14.9889 13.4054 14.7426 13.1555ZM12.6539 8.91786L11.603 7.85802C11.3128 7.56534 10.8397 7.56397 10.5463 7.85486C10.2529 8.1458 10.2503 8.61886 10.5405 8.91154L11.5914 9.97138C11.8816 10.2641 12.3547 10.2655 12.6481 9.97454C12.9415 9.68365 12.9441 9.21054 12.6539 8.91786Z" fill="#FFCC00"/>
</svg>
