<svg width="20" height="20" viewBox="0 0 20 20" fill="none" xmlns="http://www.w3.org/2000/svg">
<g clip-path="url(#clip0_8032_14777)">
<path fill-rule="evenodd" clip-rule="evenodd" d="M9.99935 2.94904C6.10503 2.94904 2.94807 6.10601 2.94807 10.0003C2.94807 13.8946 6.10503 17.0516 9.99935 17.0516C13.8937 17.0516 17.0506 13.8946 17.0506 10.0003C17.0506 6.10601 13.8937 2.94904 9.99935 2.94904ZM1.66602 10.0003C1.66602 5.39795 5.39698 1.66699 9.99935 1.66699C14.6017 1.66699 18.3327 5.39795 18.3327 10.0003C18.3327 14.6027 14.6017 18.3337 9.99935 18.3337C5.39698 18.3337 1.66602 14.6027 1.66602 10.0003Z"/>
<path fill-rule="evenodd" clip-rule="evenodd" d="M9.99935 13.6328C10.3534 13.6328 10.6404 13.3458 10.6404 12.9918V9.57298C10.6404 9.21895 10.3534 8.93195 9.99935 8.93195C9.64532 8.93195 9.35833 9.21895 9.35833 9.57298V12.9918C9.35833 13.3458 9.64532 13.6328 9.99935 13.6328Z"/>
<path d="M10.8541 7.00887C10.8541 6.53684 10.4714 6.15417 9.99935 6.15417C9.52731 6.15417 9.14465 6.53684 9.14465 7.00887C9.14465 7.48091 9.52731 7.86357 9.99935 7.86357C10.4714 7.86357 10.8541 7.48091 10.8541 7.00887Z"/>
</g>
<defs>
<clipPath id="clip0_8032_14777">
<rect width="20" height="20" fill="white"/>
</clipPath>
</defs>
</svg>
