<svg width="43" height="42" viewBox="0 0 43 42" fill="none" xmlns="http://www.w3.org/2000/svg">
<g clip-path="url(#clip0_8001_30432)">
<g opacity="0.5">
<path d="M29.9666 29.7503V29.757C29.9666 31.4276 28.6129 32.7812 26.9431 32.7812H15.2948C15.2423 32.7795 15.1906 32.777 15.138 32.7737C10.9736 32.5502 7.38307 30.1681 5.46393 26.726C4.99436 25.8845 4.62572 24.9795 4.37217 24.0271C4.12195 23.0862 3.98517 22.0996 3.97766 21.082C4.66241 22.2005 5.52899 23.1955 6.53568 24.0271C8.5766 25.7135 11.1938 26.726 14.0488 26.726H26.9431C28.6129 26.726 29.9666 28.0797 29.9666 29.7503Z" fill="#4C5C80"/>
<path d="M35.7381 26.7265V26.7615C35.7381 27.7816 35.5637 28.7616 35.2435 29.6723C34.8314 30.8467 34.1767 31.9059 33.3393 32.7917C31.8848 34.3313 29.8789 35.3447 27.6378 35.5157C27.4568 35.5299 27.275 35.5382 27.0915 35.5407C27.2758 35.5357 27.4585 35.5223 27.6378 35.5007C29.4227 35.2863 30.9565 34.2546 31.8531 32.7917C32.0749 32.4314 32.2576 32.0452 32.3952 31.6382C32.5929 31.0569 32.7005 30.4338 32.7005 29.7849C32.7005 28.6615 32.3785 27.6122 31.8205 26.7265C30.9198 25.2911 29.401 24.2811 27.6378 24.0692C27.4902 24.0517 27.3417 24.0392 27.1907 24.0333C27.109 24.0292 27.0264 24.0275 26.943 24.0275H15.7701C15.5575 24.0275 15.3464 24.0192 15.1379 24.0033C14.7343 23.975 14.3381 23.9183 13.9519 23.8357C13.9503 23.8365 13.9486 23.8357 13.9469 23.8357C10.876 23.1835 8.39884 20.9249 7.43551 17.9807C7.15694 17.1308 7.00515 16.2233 7.00098 15.2817V15.2467C7.00098 14.3609 7.13192 13.5052 7.37797 12.6987C7.7733 11.3875 8.4689 10.2065 9.38468 9.23402C10.8468 7.67602 12.8735 6.65348 15.1379 6.49001C15.3506 6.47333 15.565 6.46582 15.7818 6.46582C15.8327 6.46582 15.8827 6.46665 15.9336 6.46749C15.6634 6.47416 15.3973 6.50002 15.1379 6.54339C13.4532 6.82112 12.0153 7.82949 11.1612 9.23402C10.946 9.58682 10.7684 9.96465 10.6324 10.3617C10.4331 10.9455 10.3247 11.5719 10.3247 12.2232C10.3247 13.3467 10.6466 14.3959 11.2046 15.2817C12.0628 16.6495 13.4807 17.6304 15.1379 17.9031C15.3515 17.939 15.5691 17.9623 15.7902 17.9732C15.8869 17.9782 15.9845 17.9807 16.0821 17.9807H26.9714C27.0339 17.9807 27.0965 17.9815 27.159 17.9832C27.1732 17.9832 27.1874 17.984 27.2016 17.984H27.2099C27.3534 17.9882 27.496 17.9957 27.6378 18.0074C31.2334 18.2826 34.2226 20.7239 35.3035 24.0283C35.5821 24.8782 35.7347 25.7849 35.7381 26.7273V26.7265Z" fill="#4C5C80"/>
<path d="M38.9976 20.9224C38.3128 19.8048 37.4462 18.8106 36.4404 17.9791C34.3995 16.2926 31.7814 15.2801 28.9265 15.2801H16.0821C15.7527 15.2801 15.4349 15.2276 15.138 15.1291C13.9303 14.733 13.0587 13.597 13.0587 12.2558C13.0587 11.421 13.3973 10.6653 13.9445 10.1182C14.2756 9.78706 14.6834 9.53268 15.138 9.38338C15.4349 9.28497 15.7527 9.23242 16.0821 9.23242H27.1933C27.2984 9.23242 27.4026 9.23409 27.5069 9.23659C27.5511 9.23743 27.5945 9.23909 27.6379 9.24076C31.8798 9.39756 35.5496 11.7929 37.5013 15.2801C37.9725 16.1217 38.3437 17.0266 38.5981 17.9791C38.8499 18.919 38.9884 19.9057 38.9976 20.9224Z" fill="#4C5C80"/>
<path fill-rule="evenodd" clip-rule="evenodd" d="M27.59 6.45719H15.725C13.52 6.45719 8.84754 7.66469 7.22004 13.1247C5.85504 19.1622 10.685 23.2032 13.52 23.7297C9.84504 23.0472 3.23004 18.6897 4.43754 10.3422C5.43385 3.45468 11.84 0.367188 15.725 0.367188H24.3875C25.2275 0.367188 26.12 0.577187 26.855 1.36469C27.59 2.15219 27.59 2.93969 27.59 3.30719V6.45719ZM24.755 4.93469C25.5089 4.93469 26.12 4.32356 26.12 3.56969C26.12 2.81582 25.5089 2.20469 24.755 2.20469C24.0012 2.20469 23.39 2.81582 23.39 3.56969C23.39 4.32356 24.0012 4.93469 24.755 4.93469Z" fill="#4C5C80"/>
<path fill-rule="evenodd" clip-rule="evenodd" d="M15.1074 35.4901H26.9723C29.1773 35.4901 33.8498 34.2826 35.4773 28.8226C36.8423 22.7851 31.055 18.5866 28.22 18.0601C33.2075 18.4276 39.77 23.2051 38.5625 31.5526C37.5662 38.4401 31.5275 41.5801 26.9723 41.5801H18.3099C17.4699 41.5801 16.5774 41.3701 15.8424 40.5826C15.1074 39.7951 15.1074 39.0076 15.1074 38.6401V35.4901ZM18.1523 37.2226C17.3985 37.2226 16.7873 37.8337 16.7873 38.5876C16.7873 39.3414 17.3985 39.9526 18.1523 39.9526C18.9062 39.9526 19.5173 39.3414 19.5173 38.5876C19.5173 37.8337 18.9062 37.2226 18.1523 37.2226Z" fill="#4C5C80"/>
</g>
</g>
<defs>
<clipPath id="clip0_8001_30432">
<rect width="42" height="42" fill="white" transform="translate(0.5)"/>
</clipPath>
</defs>
</svg>
