<svg width="32" height="32" viewBox="0 0 32 32" fill="none" xmlns="http://www.w3.org/2000/svg">
<path d="M26.6673 19.0852C26.6673 21.358 23.7494 23.2 20.1488 23.2C16.5482 23.2 13.6303 21.358 13.6303 19.0852C13.6303 16.8124 16.5482 14.9716 20.1488 14.9716C23.7494 14.9716 26.6673 16.8136 26.6673 19.0852ZM20.1488 25.4284C16.5482 25.4284 13.6303 23.5864 13.6303 21.3148V23.8852C13.6303 26.158 16.5482 28 20.1488 28C23.7494 28 26.6673 26.158 26.6673 23.8852V21.3148C26.6673 23.5864 23.7494 25.4284 20.1488 25.4284ZM11.8525 12.2284C15.4531 12.2284 18.371 10.3864 18.371 8.1148C18.371 5.8432 15.4531 4 11.8525 4C8.25191 4 5.33398 5.842 5.33398 8.1148C5.33398 10.3876 8.25191 12.2284 11.8525 12.2284ZM11.7044 17.0284C12.2675 15.8353 13.1669 14.8378 14.2892 14.1616C13.4922 14.3625 12.6738 14.4633 11.8525 14.4616C8.25191 14.4568 5.33398 12.6148 5.33398 10.3432V12.9136C5.33398 15.16 8.17843 16.9732 11.7044 17.0236V17.0284ZM11.8525 28C12.28 27.9997 12.7071 27.9728 13.1313 27.9196C12.3866 27.2408 11.8274 26.3791 11.5076 25.4176C8.06821 25.3036 5.33398 23.5132 5.33398 21.3148V23.8852C5.33398 26.158 8.25191 28 11.8525 28ZM11.2599 22.6672V20.08C7.94139 19.888 5.33398 18.1444 5.33398 16V18.5716C5.33398 20.7172 7.94139 22.48 11.2599 22.6672Z" fill="white"/>
<path d="M22.6298 13.0307L20.2913 10.5985C19.9029 10.1945 19.9029 9.54043 20.291 9.1365C20.6798 8.73256 21.3094 8.73256 21.6975 9.1365L22.3387 9.80373V3.70119C22.3387 3.13036 22.7866 2.66699 23.3355 2.66699C23.8844 2.66699 24.3322 3.13036 24.3322 3.70119V9.80373L24.9708 9.1365C25.3589 8.73256 25.9875 8.73256 26.3759 9.1365C26.57 9.33829 26.6667 9.60297 26.6667 9.86731C26.6667 10.1323 26.569 10.3967 26.3749 10.5985L24.0365 13.0307C23.6478 13.4346 23.0182 13.4346 22.6298 13.0307Z" fill="white"/>
</svg>
