<svg width="21" height="20" viewBox="0 0 21 20" fill="none" xmlns="http://www.w3.org/2000/svg">
<path d="M10.4997 10C12.6038 10 14.3092 8.32129 14.3092 6.25C14.3092 4.17871 12.6038 2.5 10.4997 2.5C8.39551 2.5 6.69015 4.17871 6.69015 6.25C6.69015 8.32129 8.39551 10 10.4997 10ZM13.1663 10.9375H12.6693C12.0086 11.2363 11.2735 11.4062 10.4997 11.4062C9.72586 11.4062 8.99372 11.2363 8.33003 10.9375H7.83301C5.62467 10.9375 3.83301 12.7012 3.83301 14.875V16.0938C3.83301 16.8701 4.47289 17.5 5.26158 17.5H15.7378C16.5265 17.5 17.1663 16.8701 17.1663 16.0938V14.875C17.1663 12.7012 15.3747 10.9375 13.1663 10.9375Z" fill="white"/>
</svg>
