<svg width="24" height="24" viewBox="0 0 24 24" fill="none" xmlns="http://www.w3.org/2000/svg">
<path fill-rule="evenodd" clip-rule="evenodd" d="M18.7617 6.93663L12.9593 3.55198C12.3657 3.20572 11.6343 3.20572 11.0407 3.55198L5.23834 6.93663C4.64473 7.28289 4.27905 7.92282 4.27905 8.61535V15.3846C4.27905 16.0772 4.64473 16.7171 5.23834 17.0634L11.0407 20.448C11.6343 20.7943 12.3657 20.7943 12.9593 20.448L18.7617 17.0634C19.3553 16.7171 19.7209 16.0772 19.7209 15.3846V8.61535C19.7209 7.92282 19.3553 7.28289 18.7617 6.93663ZM13.5988 2.43283C12.6095 1.85572 11.3905 1.85572 10.4012 2.43283L4.59882 5.81748C3.60947 6.39459 3 7.46113 3 8.61535V15.3846C3 16.5389 3.60947 17.6054 4.59882 18.1825L10.4012 21.5672C11.3905 22.1443 12.6095 22.1443 13.5988 21.5672L19.4012 18.1825C20.3905 17.6054 21 16.5389 21 15.3846V8.61535C21 7.46113 20.3905 6.39459 19.4012 5.81748L13.5988 2.43283ZM11.2006 5.27799C11.6953 4.98944 12.3047 4.98944 12.7994 5.27799L17.1545 7.81837C17.6491 8.10693 17.9539 8.6402 17.9539 9.21731V14.2981C17.9539 14.8752 17.6491 15.4085 17.1545 15.697L12.7994 18.2374C12.3047 18.526 11.6953 18.526 11.2006 18.2374L6.84558 15.697C6.3509 15.4085 6.04617 14.8752 6.04617 14.2981V9.21731C6.04617 8.6402 6.3509 8.10693 6.84558 7.81837L11.2006 5.27799ZM14.2717 9.75369H9.79497V14.2767H14.2717V9.75369Z" fill="white"/>
</svg>
