<svg width="24" height="24" viewBox="0 0 24 24" fill="none" xmlns="http://www.w3.org/2000/svg">
<path d="M22 11.9701C22.0008 12.35 21.8922 12.7224 21.6866 13.0438C21.4811 13.3653 21.1871 13.6227 20.839 13.7861L5.9187 20.7492C5.64562 20.8958 5.34311 20.9815 5.03265 21C4.69291 20.9993 4.35875 20.9149 4.06058 20.7545C3.76241 20.594 3.50971 20.3627 3.32548 20.0815C3.14125 19.8003 3.03135 19.4781 3.00578 19.1444C2.98021 18.8106 3.03978 18.4759 3.17908 18.1706L5.50114 12.9734H11.1433C11.4134 12.9734 11.6725 12.8677 11.8635 12.6795C12.0545 12.4914 12.1618 12.2362 12.1618 11.9701C12.1618 11.704 12.0545 11.4488 11.8635 11.2606C11.6725 11.0724 11.4134 10.9667 11.1433 10.9667H5.50114L3.17908 5.81967C3.01082 5.44564 2.96263 5.02988 3.04097 4.62811C3.11931 4.22634 3.32044 3.85776 3.61739 3.57177C3.91434 3.28577 4.29294 3.09603 4.70243 3.02797C5.11193 2.9599 5.53275 3.01677 5.90852 3.19096L20.8288 10.154C21.1789 10.316 21.4749 10.5727 21.6823 10.8943C21.8897 11.2159 21.9999 11.5891 22 11.9701Z" fill="url(#paint0_linear_8016_25704)"/>
<defs>
<linearGradient id="paint0_linear_8016_25704" x1="22" y1="12" x2="3" y2="12" gradientUnits="userSpaceOnUse">
<stop stop-color="#B34ABD"/>
<stop offset="1" stop-color="#873ED4"/>
</linearGradient>
</defs>
</svg>
