<svg width="25" height="24" viewBox="0 0 25 24" fill="none" xmlns="http://www.w3.org/2000/svg">
<path d="M12.5 2C6.97581 2 2.5 6.47581 2.5 12C2.5 17.5242 6.97581 22 12.5 22C18.0242 22 22.5 17.5242 22.5 12C22.5 6.47581 18.0242 2 12.5 2ZM15.7258 8.77419C16.4395 8.77419 17.0161 9.35081 17.0161 10.0645C17.0161 10.7782 16.4395 11.3548 15.7258 11.3548C15.0121 11.3548 14.4355 10.7782 14.4355 10.0645C14.4355 9.35081 15.0121 8.77419 15.7258 8.77419ZM9.27419 8.77419C9.9879 8.77419 10.5645 9.35081 10.5645 10.0645C10.5645 10.7782 9.9879 11.3548 9.27419 11.3548C8.56048 11.3548 7.98387 10.7782 7.98387 10.0645C7.98387 9.35081 8.56048 8.77419 9.27419 8.77419ZM17.129 15.6371C15.9798 17.0161 14.2944 17.8065 12.5 17.8065C10.7056 17.8065 9.02016 17.0161 7.87097 15.6371C7.32258 14.9798 8.31452 14.1573 8.8629 14.8105C9.76613 15.8952 11.0887 16.5121 12.5 16.5121C13.9113 16.5121 15.2339 15.8911 16.1371 14.8105C16.6774 14.1573 17.6734 14.9798 17.129 15.6371Z" fill="#99B8FF"/>
</svg>
