<svg width="32" height="32" viewBox="0 0 32 32" fill="none" xmlns="http://www.w3.org/2000/svg">
<path fill-rule="evenodd" clip-rule="evenodd" d="M19.9831 8.69389C19.6205 8.69389 19.3265 8.99236 19.3265 9.36055V15.0575C19.3265 15.4257 19.0326 15.7242 18.67 15.7242H16.8795C16.5169 15.7242 16.223 15.4257 16.223 15.0575V9.36055C16.223 8.99236 15.9291 8.69389 15.5665 8.69389H13.1527C12.5678 8.69389 12.2748 7.97579 12.6884 7.55581L17.3105 2.86225C17.5669 2.60191 17.9826 2.6019 18.239 2.86225L22.8611 7.55581C23.2747 7.97579 22.9818 8.69389 22.3969 8.69389H19.9831ZM28.0384 8.00031C27.501 8.00031 27.0195 8.33751 26.8285 8.8476L22.9743 19.1409C22.7806 19.6583 22.2921 20.0003 21.747 20.0003H13.7994C13.2394 20.0003 12.7411 19.6398 12.5583 19.1023L8.10795 6.02031C7.81646 4.83364 6.76603 4.00031 5.56066 4.00031H2.64702C1.92223 4.00031 1.33398 4.59764 1.33398 5.33364C1.33398 6.06964 1.92223 6.66698 2.64702 6.66698H4.62498C5.18495 6.66698 5.6833 7.02759 5.86609 7.56507L10.3152 20.647C10.608 21.8337 11.6584 22.667 12.8638 22.667H22.6525C23.8368 22.667 24.8741 21.8617 25.1867 20.7017L29.2493 9.77919C29.5691 8.91941 28.9435 8.00031 28.0384 8.00031ZM15.7774 26.667C15.7774 28.1398 14.6017 29.3337 13.1513 29.3337C11.701 29.3337 10.5253 28.1398 10.5253 26.667C10.5253 25.1942 11.701 24.0003 13.1513 24.0003C14.6017 24.0003 15.7774 25.1942 15.7774 26.667ZM24.9687 26.667C24.9687 28.1398 23.793 29.3337 22.3426 29.3337C20.8923 29.3337 19.7165 28.1398 19.7165 26.667C19.7165 25.1942 20.8923 24.0003 22.3426 24.0003C23.793 24.0003 24.9687 25.1942 24.9687 26.667Z" fill="white"/>
</svg>
