<svg width="33" height="32" viewBox="0 0 33 32" fill="none" xmlns="http://www.w3.org/2000/svg">
<path d="M25.9544 25.7583C20.9341 30.8179 12.0928 30.3313 7.17747 25.4082C2.09604 20.3188 1.84303 12.2219 6.41795 6.83262C6.70432 6.49549 6.98145 6.15868 7.34019 5.93345C8.3149 5.32212 9.61604 5.44083 10.4638 6.28992C11.2698 7.09724 11.4167 8.31516 10.9046 9.27223C10.7741 9.51572 10.6587 9.66465 10.47 9.86752C6.72674 13.8926 6.60645 19.9862 10.2634 23.6488C14.3321 27.7239 21.1058 26.8703 24.7004 22.7372C27.5478 19.4619 28.5061 14.7945 26.7765 10.691C24.5469 5.40098 18.6379 2.91397 13.1643 4.74916L13.1582 4.74312C19.4461 2.53972 26.2836 5.37046 28.8489 11.457C30.7255 15.9091 29.8267 20.9437 26.9371 24.638C26.631 25.0294 26.3045 25.4057 25.9544 25.7583Z" fill="white"/>
</svg>
