<svg width="33" height="32" viewBox="0 0 33 32" fill="none" xmlns="http://www.w3.org/2000/svg">
<path d="M6.18651 15.6176L10.7949 17.4614L12.5787 23.6107C12.6928 24.0046 13.1421 24.1502 13.4403 23.8888L16.0091 21.644C16.2783 21.4088 16.6619 21.397 16.9433 21.616L21.5765 25.2219C21.8955 25.4705 22.3474 25.2831 22.4274 24.8699L25.8215 7.36874C25.9088 6.91737 25.4951 6.54082 25.0941 6.70705L6.18111 14.5283C5.71438 14.7212 5.71844 15.4296 6.18651 15.6176ZM12.2912 16.4799L21.2977 10.5335C21.4596 10.4269 21.6261 10.6616 21.4871 10.7998L14.0541 18.2064C13.7929 18.4671 13.6243 18.816 13.5766 19.1947L13.3234 21.2062C13.2899 21.4747 12.9379 21.5014 12.8688 21.2415L11.895 17.5735C11.7835 17.1552 11.946 16.7083 12.2912 16.4799Z"/>
</svg>
