<svg width="40" height="40" viewBox="0 0 40 40" fill="none" xmlns="http://www.w3.org/2000/svg">
<path fill-rule="evenodd" clip-rule="evenodd" d="M19.9987 3.33398C10.7987 3.33398 3.33203 10.8007 3.33203 20.0007C3.33203 29.2007 10.7987 36.6673 19.9987 36.6673C29.1987 36.6673 36.6654 29.2007 36.6654 20.0007C36.6654 10.8007 29.1987 3.33398 19.9987 3.33398ZM19.9987 7.50065C26.8987 7.50065 32.4987 13.1007 32.4987 20.0007C32.4987 26.9007 26.8987 32.5007 19.9987 32.5007C13.0987 32.5007 7.4987 26.9007 7.4987 20.0007C7.4987 13.1007 13.0987 7.50065 19.9987 7.50065ZM17.9154 11.6673V20.0007C17.9154 20.5507 18.132 21.084 18.532 21.4673L21.682 24.6173C22.4987 25.434 23.8154 25.434 24.632 24.6173C25.4487 23.8007 25.4487 22.484 24.632 21.6673L22.082 19.1173V11.6507C22.082 10.5007 21.1487 9.56732 19.9987 9.56732C18.8487 9.56732 17.9154 10.5007 17.9154 11.6507V11.6673Z" fill="#3E5BB3"/>
</svg>
