<svg width="28" height="28" viewBox="0 0 28 28" fill="none" xmlns="http://www.w3.org/2000/svg">
<path fill-rule="evenodd" clip-rule="evenodd" d="M2.7173 14.0003C2.7173 7.76942 7.76844 2.71827 13.9994 2.71827C20.2303 2.71827 25.2814 7.76942 25.2814 14.0003C25.2814 20.2312 20.2303 25.2824 13.9994 25.2824C7.76844 25.2824 2.7173 20.2312 2.7173 14.0003ZM13.9994 0.666992C6.63555 0.666992 0.666016 6.63653 0.666016 14.0003C0.666016 21.3641 6.63555 27.3337 13.9994 27.3337C21.3631 27.3337 27.3327 21.3641 27.3327 14.0003C27.3327 6.63653 21.3631 0.666992 13.9994 0.666992ZM21.0003 13.0171C21.5521 13.0171 21.9994 12.5699 21.9994 12.0181C21.9994 11.661 21.8122 11.3477 21.5304 11.171L18.8453 8.48588C18.4551 8.09572 17.8226 8.09572 17.4323 8.48588C17.0422 8.87605 17.0422 9.50862 17.4323 9.89879L18.5526 11.019H7.00961C6.45783 11.019 6.01054 11.4663 6.01054 12.0181C6.01054 12.5699 6.45783 13.0171 7.00961 13.0171H20.951H20.9784H21.0003ZM6.99843 14.9835C6.44666 14.9835 5.99935 15.4308 5.99935 15.9826C5.99935 16.3397 6.18667 16.653 6.46839 16.8296L9.15353 19.5148C9.54369 19.905 10.1763 19.905 10.5664 19.5148C10.9566 19.1246 10.9566 18.492 10.5664 18.1019L9.44625 16.9817H20.9893C21.5409 16.9817 21.9883 16.5344 21.9883 15.9826C21.9883 15.4308 21.5409 14.9835 20.9893 14.9835H7.04783H7.0205H6.99843Z" fill="white"/>
</svg>
