<svg width="24" height="25" viewBox="0 0 24 25" fill="none" xmlns="http://www.w3.org/2000/svg">
  <path fill-rule="evenodd" clip-rule="evenodd" d="M14.354 3.5C12.6785 3.5 11.2553 4.55256 10.6982 6.02933C12.8099 6.50968 14.3923 8.39858 14.3923 10.6535C14.3923 10.8767 14.3715 11.0959 14.3412 11.3129C14.3433 11.3129 14.3453 11.3131 14.3474 11.3133C14.3485 11.3134 14.3496 11.3135 14.3507 11.3136C14.3518 11.3136 14.3529 11.3137 14.354 11.3137C15.5977 11.3137 16.7039 10.7327 17.4175 9.83049C17.9426 9.16281 18.2586 8.32182 18.2586 7.40432C18.2586 5.24829 16.5101 3.5 14.354 3.5ZM5.79802 10.6717C5.79802 8.53695 7.52925 6.80584 9.66935 6.80584C11.8044 6.80584 13.5356 8.53695 13.5356 10.6717C13.5356 11.5802 13.2226 12.4129 12.7028 13.0741C11.9962 13.9674 10.9009 14.5427 9.66935 14.5427C8.43781 14.5427 7.33746 13.9674 6.63084 13.0741C6.11092 12.4129 5.79802 11.5802 5.79802 10.6717ZM13.3715 13.5997C13.4688 13.4759 13.6344 13.4251 13.7756 13.4949C15.8587 14.5247 17.2923 16.67 17.2923 19.1503V19.8335C17.2923 20.7539 16.5461 21.5 15.6256 21.5H3.66667C2.74619 21.5 2 20.7539 2 19.8335V19.1503C2 16.6702 3.42968 14.5289 5.5114 13.4968C5.65318 13.4265 5.8196 13.4774 5.91741 13.6018C6.82394 14.7474 8.18293 15.4044 9.64628 15.4044C11.1064 15.4044 12.4633 14.7474 13.3715 13.5997ZM18.0792 10.3504C18.1765 10.2266 18.3422 10.1758 18.4834 10.2456C20.5664 11.2754 22 13.4207 22 15.901V16.5842C22 17.5046 21.2538 18.2507 20.3333 18.2507H19.5414C18.7022 18.2507 18.0137 17.6168 17.74 16.8236C17.1448 15.0988 15.9012 13.638 14.2325 12.7857C14.0797 12.7077 14.0119 12.5239 14.0731 12.3636L14.0838 12.3353C14.126 12.2227 14.2338 12.1551 14.354 12.1551C15.8141 12.1551 17.171 11.498 18.0792 10.3504Z" fill="#CE28D9" />
</svg>