<svg width="40" height="41" viewBox="0 0 40 41" fill="none" xmlns="http://www.w3.org/2000/svg">
<path d="M20.0001 20.5C24.2084 20.5 27.6191 17.1426 27.6191 13C27.6191 8.85742 24.2084 5.5 20.0001 5.5C15.7917 5.5 12.381 8.85742 12.381 13C12.381 17.1426 15.7917 20.5 20.0001 20.5ZM25.3334 22.375H24.3394C23.0179 22.9727 21.5477 23.3125 20.0001 23.3125C18.4525 23.3125 16.9882 22.9727 15.6608 22.375H14.6667C10.2501 22.375 6.66675 25.9023 6.66675 30.25V32.6875C6.66675 34.2402 7.94651 35.5 9.52389 35.5H30.4763C32.0537 35.5 33.3334 34.2402 33.3334 32.6875V30.25C33.3334 25.9023 29.7501 22.375 25.3334 22.375Z" fill="#7E00FF"/>
</svg>
