<svg width="40" height="40" viewBox="0 0 40 40" fill="none" xmlns="http://www.w3.org/2000/svg">
<path d="M19.9993 20C24.2077 20 27.6184 16.6426 27.6184 12.5C27.6184 8.35742 24.2077 5 19.9993 5C15.791 5 12.3803 8.35742 12.3803 12.5C12.3803 16.6426 15.791 20 19.9993 20ZM25.3327 21.875H24.3386C23.0172 22.4727 21.547 22.8125 19.9993 22.8125C18.4517 22.8125 16.9874 22.4727 15.6601 21.875H14.666C10.2493 21.875 6.66602 25.4023 6.66602 29.75V32.1875C6.66602 33.7402 7.94578 35 9.52316 35H30.4755C32.0529 35 33.3327 33.7402 33.3327 32.1875V29.75C33.3327 25.4023 29.7493 21.875 25.3327 21.875Z" fill="url(#paint0_linear_8032_1776)"/>
<defs>
<linearGradient id="paint0_linear_8032_1776" x1="33.3327" y1="20" x2="6.66602" y2="20" gradientUnits="userSpaceOnUse">
<stop stop-color="#B34ABD"/>
<stop offset="1" stop-color="#873ED4"/>
</linearGradient>
</defs>
</svg>
