<svg width="20" height="20" viewBox="0 0 20 20" fill="none" xmlns="http://www.w3.org/2000/svg">
<path d="M9.9987 10C12.1029 10 13.8082 8.32129 13.8082 6.25C13.8082 4.17871 12.1029 2.5 9.9987 2.5C7.89453 2.5 6.18917 4.17871 6.18917 6.25C6.18917 8.32129 7.89453 10 9.9987 10ZM12.6654 10.9375H12.1683C11.5076 11.2363 10.7725 11.4062 9.9987 11.4062C9.22489 11.4062 8.49275 11.2363 7.82906 10.9375H7.33203C5.1237 10.9375 3.33203 12.7012 3.33203 14.875V16.0938C3.33203 16.8701 3.97191 17.5 4.7606 17.5H15.2368C16.0255 17.5 16.6654 16.8701 16.6654 16.0938V14.875C16.6654 12.7012 14.8737 10.9375 12.6654 10.9375Z" fill="white"/>
</svg>
