<svg width="33" height="32" viewBox="0 0 33 32" fill="none" xmlns="http://www.w3.org/2000/svg">
<path d="M25.0682 17.1749C24.6155 16.6149 24.745 16.3657 25.0682 15.8651C25.0741 15.8594 28.811 10.8011 29.196 9.08571L29.1984 9.08457C29.3897 8.45943 29.1984 8 28.2732 8H25.2117C24.4324 8 24.073 8.39429 23.8805 8.83543C23.8805 8.83543 22.3218 12.4903 20.1167 14.8594C19.405 15.544 19.076 15.7634 18.6875 15.7634C18.4962 15.7634 18.1987 15.544 18.1987 14.9189V9.08457C18.1987 8.33486 17.9805 8 17.3353 8H12.5215C12.0326 8 11.7421 8.34971 11.7421 8.67543C11.7421 9.38629 12.8446 9.54971 12.959 11.5497V15.8891C12.959 16.84 12.7828 17.0149 12.392 17.0149C11.3512 17.0149 8.82533 13.3451 7.32844 9.14514C7.02627 8.33029 6.73109 8.00114 5.94589 8.00114H2.88329C2.00942 8.00114 1.83325 8.39543 1.83325 8.83657C1.83325 9.616 2.87395 13.4914 6.67275 18.6114C9.20451 22.1063 12.77 24 16.0134 24C17.963 24 18.201 23.5794 18.201 22.856C18.201 19.5166 18.0248 19.2011 19.0013 19.2011C19.454 19.2011 20.2334 19.4206 22.0535 21.1063C24.1337 23.1051 24.4755 24 25.6399 24H28.7013C29.574 24 30.0162 23.5794 29.7619 22.7497C29.1797 21.0046 25.2456 17.4149 25.0682 17.1749Z"/>
</svg>
