<svg width="32" height="32" viewBox="0 0 32 32" fill="none" xmlns="http://www.w3.org/2000/svg">
<path d="M24.5683 17.1749C24.1157 16.6149 24.2452 16.3657 24.5683 15.8651C24.5742 15.8594 28.3111 10.8011 28.6962 9.08571L28.6985 9.08457C28.8898 8.45943 28.6985 8 27.7733 8H24.7119C23.9325 8 23.5731 8.39429 23.3806 8.83543C23.3806 8.83543 21.8219 12.4903 19.6168 14.8594C18.9051 15.544 18.5761 15.7634 18.1876 15.7634C17.9963 15.7634 17.6988 15.544 17.6988 14.9189V9.08457C17.6988 8.33486 17.4806 8 16.8354 8H12.0216C11.5327 8 11.2422 8.34971 11.2422 8.67543C11.2422 9.38629 12.3448 9.54971 12.4591 11.5497V15.8891C12.4591 16.84 12.2829 17.0149 11.8921 17.0149C10.8514 17.0149 8.32545 13.3451 6.82856 9.14514C6.52639 8.33029 6.23121 8.00114 5.44602 8.00114H2.38341C1.50955 8.00114 1.33337 8.39543 1.33337 8.83657C1.33337 9.616 2.37408 13.4914 6.17287 18.6114C8.70463 22.1063 12.2701 24 15.5135 24C17.4631 24 17.7011 23.5794 17.7011 22.856C17.7011 19.5166 17.5249 19.2011 18.5015 19.2011C18.9542 19.2011 19.7335 19.4206 21.5536 21.1063C23.6338 23.1051 23.9757 24 25.14 24H28.2015C29.0742 24 29.5163 23.5794 29.262 22.7497C28.6798 21.0046 24.7457 17.4149 24.5683 17.1749Z" fill="url(#paint0_linear_8005_27948)"/>
<defs>
<linearGradient id="paint0_linear_8005_27948" x1="1.33337" y1="13.3333" x2="29.3334" y2="16" gradientUnits="userSpaceOnUse">
<stop stop-color="#5CB0F7"/>
<stop offset="1" stop-color="#0083FC"/>
</linearGradient>
</defs>
</svg>
