<svg width="41" height="41" viewBox="0 0 41 41" fill="none" xmlns="http://www.w3.org/2000/svg">
<path d="M36.9167 17.167V28.8337C36.9167 31.5952 34.6782 33.8337 31.9167 33.8337H8.58337C5.82196 33.8337 3.58337 31.5952 3.58337 28.8337V17.167H36.9167ZM30.25 23.8337H25.25C24.3295 23.8337 23.5834 24.5798 23.5834 25.5003C23.5834 26.4208 24.3295 27.167 25.25 27.167H30.25C31.1705 27.167 31.9167 26.4208 31.9167 25.5003C31.9167 24.5798 31.1705 23.8337 30.25 23.8337ZM31.9167 7.16699C34.6782 7.16699 36.9167 9.40558 36.9167 12.167V13.8337H3.58337V12.167C3.58337 9.40558 5.82196 7.16699 8.58337 7.16699H31.9167Z" fill="#7E00FF"/>
</svg>
