<svg width="28" height="28" viewBox="0 0 28 28" fill="none" xmlns="http://www.w3.org/2000/svg">
<path d="M19.6443 19.8335V19.838C19.6443 20.9517 18.7419 21.8541 17.6287 21.8541H9.86318C9.82815 21.853 9.79367 21.8514 9.75864 21.8491C6.98238 21.7001 4.58867 20.1121 3.30924 17.8174C2.99619 17.2563 2.75043 16.653 2.58139 16.018C2.41458 15.3908 2.32339 14.733 2.31839 14.0547C2.77489 14.8003 3.35261 15.4637 4.02374 16.018C5.38435 17.1423 7.12917 17.8174 9.03247 17.8174H17.6287C18.7419 17.8174 19.6443 18.7198 19.6443 19.8335Z" fill="url(#paint0_linear_8002_56359)"/>
<path d="M23.4921 17.8177V17.841C23.4921 18.521 23.3759 19.1744 23.1623 19.7816C22.8877 20.5645 22.4512 21.2706 21.8929 21.8611C20.9232 22.8876 19.5859 23.5631 18.0919 23.6771C17.9712 23.6866 17.85 23.6921 17.7277 23.6938C17.8506 23.6905 17.9723 23.6816 18.0919 23.6671C19.2818 23.5242 20.3043 22.8364 20.9021 21.8611C21.05 21.6209 21.1717 21.3635 21.2635 21.0921C21.3953 20.7046 21.467 20.2892 21.467 19.8566C21.467 19.1077 21.2524 18.4082 20.8804 17.8177C20.2799 16.8607 19.2673 16.1874 18.0919 16.0461C17.9935 16.0345 17.8945 16.0261 17.7939 16.0222C17.7394 16.0195 17.6843 16.0183 17.6287 16.0183H10.1801C10.0383 16.0183 9.89766 16.0128 9.75865 16.0022C9.48954 15.9833 9.22542 15.9455 8.96798 15.8905C8.96687 15.891 8.96575 15.8905 8.96464 15.8905C6.91734 15.4556 5.26592 13.9499 4.62371 11.9871C4.43799 11.4205 4.3368 10.8156 4.33401 10.1878V10.1644C4.33401 9.57394 4.42131 9.00345 4.58534 8.46577C4.8489 7.59169 5.31263 6.80435 5.92315 6.15601C6.89787 5.11735 8.24903 4.43565 9.75865 4.32667C9.90044 4.31555 10.0433 4.31055 10.1879 4.31055C10.2218 4.31055 10.2552 4.3111 10.2891 4.31166C10.109 4.31611 9.93158 4.33334 9.75865 4.36226C8.63547 4.54742 7.67687 5.21966 7.1075 6.15601C6.96404 6.39122 6.84561 6.6431 6.75497 6.90777C6.62208 7.29699 6.5498 7.71457 6.5498 8.14883C6.5498 8.8978 6.76443 9.59729 7.13641 10.1878C7.70857 11.0997 8.65382 11.7536 9.75865 11.9354C9.901 11.9593 10.0461 11.9749 10.1935 11.9821C10.258 11.9854 10.323 11.9871 10.3881 11.9871H17.6476C17.6893 11.9871 17.731 11.9877 17.7727 11.9888C17.7822 11.9888 17.7916 11.9893 17.8011 11.9893H17.8066C17.9023 11.9921 17.9974 11.9971 18.0919 12.0049C20.4889 12.1884 22.4818 13.8159 23.2024 16.0189C23.3881 16.5855 23.4898 17.1899 23.4921 17.8182V17.8177Z" fill="url(#paint1_linear_8002_56359)"/>
<path d="M25.665 13.9486C25.2085 13.2035 24.6308 12.5407 23.9602 11.9864C22.5996 10.8621 20.8543 10.1871 18.951 10.1871H10.3881C10.1684 10.1871 9.9566 10.152 9.75865 10.0864C8.95352 9.8223 8.37247 9.06499 8.37247 8.17089C8.37247 7.6143 8.59822 7.11054 8.96297 6.74578C9.18372 6.52503 9.45562 6.35545 9.75865 6.25592C9.9566 6.1903 10.1684 6.15527 10.3881 6.15527H17.7955C17.8656 6.15527 17.9351 6.15639 18.0046 6.15805C18.0341 6.15861 18.063 6.15972 18.0919 6.16083C20.9199 6.26537 23.3664 7.86229 24.6675 10.1871C24.9817 10.7481 25.2291 11.3514 25.3987 11.9864C25.5666 12.613 25.6589 13.2708 25.665 13.9486Z" fill="url(#paint2_linear_8002_56359)"/>
<path fill-rule="evenodd" clip-rule="evenodd" d="M18.06 4.30512H10.15C8.67999 4.30512 5.56499 5.11012 4.47999 8.75012C3.56999 12.7751 6.78999 15.4691 8.67999 15.8201C6.22999 15.3651 1.81999 12.4601 2.62499 6.89512C3.28919 2.30345 7.55999 0.245117 10.15 0.245117H15.925C16.485 0.245117 17.08 0.385117 17.57 0.910117C18.06 1.43512 18.06 1.96012 18.06 2.20512V4.30512ZM16.17 3.29012C16.6726 3.29012 17.08 2.8827 17.08 2.38012C17.08 1.87754 16.6726 1.47012 16.17 1.47012C15.6674 1.47012 15.26 1.87754 15.26 2.38012C15.26 2.8827 15.6674 3.29012 16.17 3.29012Z" fill="#B4169D"/>
<path fill-rule="evenodd" clip-rule="evenodd" d="M9.73822 23.6602H17.6482C19.1182 23.6602 22.2332 22.8552 23.3182 19.2152C24.2282 15.1902 20.37 12.3912 18.48 12.0402C21.805 12.2852 26.18 15.4702 25.375 21.0352C24.7108 25.6269 20.685 27.7202 17.6482 27.7202H11.8732C11.3132 27.7202 10.7182 27.5802 10.2282 27.0552C9.73821 26.5302 9.73822 26.0052 9.73822 25.7602V23.6602ZM11.7682 24.8152C11.2656 24.8152 10.8582 25.2226 10.8582 25.7252C10.8582 26.2278 11.2656 26.6352 11.7682 26.6352C12.2708 26.6352 12.6782 26.2278 12.6782 25.7252C12.6782 25.2226 12.2708 24.8152 11.7682 24.8152Z" fill="#B4169D"/>
<defs>
<linearGradient id="paint0_linear_8002_56359" x1="2.31839" y1="17.9541" x2="19.6443" y2="17.9541" gradientUnits="userSpaceOnUse">
<stop stop-color="#B5179E"/>
<stop offset="0.42" stop-color="#B3169E"/>
<stop offset="0.58" stop-color="#AB159F"/>
<stop offset="0.7" stop-color="#9F14A1"/>
<stop offset="0.8" stop-color="#8E12A4"/>
<stop offset="0.89" stop-color="#780FA8"/>
<stop offset="0.96" stop-color="#600CAC"/>
</linearGradient>
<linearGradient id="paint1_linear_8002_56359" x1="4.39518" y1="13.8904" x2="23.5516" y2="14.1139" gradientUnits="userSpaceOnUse">
<stop stop-color="#4509B0"/>
<stop offset="0.07" stop-color="#5B0BAC"/>
<stop offset="0.2" stop-color="#8210A6"/>
<stop offset="0.32" stop-color="#9E14A1"/>
<stop offset="0.42" stop-color="#AF169E"/>
<stop offset="0.5" stop-color="#B5179E"/>
<stop offset="0.58" stop-color="#AE169F"/>
<stop offset="0.7" stop-color="#9C13A2"/>
<stop offset="0.83" stop-color="#7E0FA6"/>
<stop offset="0.95" stop-color="#600CAC"/>
</linearGradient>
<linearGradient id="paint2_linear_8002_56359" x1="8.37247" y1="10.0519" x2="25.665" y2="10.0519" gradientUnits="userSpaceOnUse">
<stop offset="0.04" stop-color="#600CAC"/>
<stop offset="0.11" stop-color="#780FA8"/>
<stop offset="0.2" stop-color="#8E12A4"/>
<stop offset="0.3" stop-color="#9F14A1"/>
<stop offset="0.42" stop-color="#AB159F"/>
<stop offset="0.58" stop-color="#B3169E"/>
<stop offset="1" stop-color="#B5179E"/>
</linearGradient>
</defs>
</svg>
